<svg width="500" height="500" viewBox="0 0 500 500" fill="none" xmlns="http://www.w3.org/2000/svg">
<g clip-path="url(#clip0_107_6158)">
<path d="M83.96 447.21L83.11 451.34C89.01 459.92 101.02 461.37 111.42 460.78C121.82 460.19 132.95 458.52 142.09 463.52C142.87 463.94 143.69 464.51 143.86 465.38C144.02 466.2 143.54 466.99 143.27 467.78C142.41 470.32 143.83 473.19 145.98 474.78C148.13 476.37 150.85 476.96 153.5 477.4C166.46 479.55 179.83 479.16 192.64 476.26C194.59 475.82 196.94 474.91 196.71 472.6C196.59 471.47 195.85 470.5 194.86 469.94L189.94 467.1C187.42 465.65 188.38 461.81 191.28 461.69C200.67 461.31 210.41 464.46 219.99 465.18C228.44 465.81 237.03 464.5 244.91 461.36C252.54 458.32 259.75 453.55 267.95 453.07C275.38 452.63 282.48 455.8 289.75 457.38C300.97 459.81 313 458.36 323.31 453.32C329.1 450.49 334.01 451.54 340.34 452.76C354.61 455.51 387.79 460.15 396.92 457.89C401.14 456.85 419.64 450.09 422.26 447.23H83.96V447.21ZM179.75 473.7C174.95 473.7 171.06 472.66 171.06 471.38C171.06 470.1 174.95 469.06 179.75 469.06C184.55 469.06 188.44 470.1 188.44 471.38C188.44 472.66 184.55 473.7 179.75 473.7ZM229.19 460.76C224.71 460.76 221.08 459.94 221.08 458.93C221.08 457.92 224.71 457.1 229.19 457.1C233.67 457.1 237.3 457.92 237.3 458.93C237.3 459.94 233.67 460.76 229.19 460.76Z" fill="#E0E0E0"/>
<path d="M9.06 226.91C16.44 211.37 35.13 202.81 52.16 205.34C69.18 207.86 83.88 220.22 91.41 235.69C99.76 230.74 110.53 230.12 119.4 234.06C128.27 238.01 135.02 246.42 136.94 255.94C141.55 253.26 147.55 253.13 152.27 255.61C156.99 258.09 160.29 263.1 160.7 268.42H11.55L9.06 226.91Z" fill="#F5F5F5"/>
<path d="M213.57 267.02C218.46 256.85 231.27 251.58 241.63 255.47C238.62 231.25 254.04 205.93 276.54 198.16C299.04 190.39 326.18 200.99 338 222.17C340.47 187.48 359.99 160.73 378.89 145.05C402.35 125.6 424.98 126.5 424.98 126.5C424.98 126.5 426.92 107.4 446.82 97C458.94 90.66 480.14 89.96 488.14 101.27V268.63L213.57 267.01V267.02Z" fill="#F5F5F5"/>
<path d="M104.23 105.45C103.45 103.37 102.66 101.27 101.35 99.4798C100.04 97.6898 98.13 96.2198 95.93 95.9498C93.73 95.6798 91.29 96.8698 90.57 98.9698C90.25 94.2398 89.58 89.3898 87.22 85.2798C84.85 81.1698 80.44 77.9498 75.71 78.2398C71.25 78.5098 67.43 81.8298 65.31 85.7598C63.19 89.6898 62.46 94.1998 61.76 98.6198C60.07 96.5498 56.5 97.1998 54.74 99.2098C52.98 101.22 52.53 104.03 52.15 106.68H105.37L104.24 105.45H104.23Z" fill="#EBEBEB"/>
<path d="M323.73 148.44C321.56 142.64 319.34 136.77 315.69 131.77C312.04 126.77 306.7 122.68 300.56 121.93C294.42 121.18 287.61 124.49 285.61 130.35C284.73 117.15 282.86 103.61 276.25 92.1499C269.64 80.6899 257.32 71.6899 244.12 72.4999C231.67 73.2599 221.01 82.5099 215.09 93.4799C209.17 104.46 207.14 117.04 205.19 129.36C200.47 123.57 190.51 125.39 185.58 131.01C180.66 136.63 179.41 144.48 178.36 151.87L325.43 153.4L323.72 148.43L323.73 148.44Z" fill="#F5F5F5"/>
<path d="M421.24 189.65C420.68 188.16 420.11 186.66 419.18 185.37C418.24 184.09 416.87 183.04 415.3 182.84C413.72 182.65 411.98 183.5 411.46 185C411.23 181.61 410.75 178.14 409.06 175.2C407.37 172.26 404.2 169.95 400.82 170.16C397.63 170.36 394.89 172.73 393.37 175.54C391.85 178.36 391.33 181.59 390.83 184.75C389.62 183.26 387.06 183.73 385.8 185.17C384.54 186.61 384.22 188.62 383.95 190.52L421.68 190.91L421.24 189.64V189.65Z" fill="#EBEBEB"/>
<path d="M168.88 66.2599C168.41 65.0199 167.94 63.7599 167.16 62.6899C166.38 61.6199 165.23 60.7399 163.92 60.5799C162.6 60.4199 161.15 61.1299 160.72 62.3799C160.53 59.5499 160.13 56.6499 158.72 54.1999C157.3 51.7499 154.66 49.8199 151.84 49.9899C149.17 50.1499 146.89 52.1299 145.62 54.4799C144.35 56.8299 143.92 59.5299 143.5 62.1699C142.49 60.9299 140.35 61.3199 139.3 62.5199C138.25 63.7199 137.98 65.3999 137.75 66.9899L169.26 67.3199L168.89 66.2599H168.88Z" fill="#F5F5F5"/>
<path d="M158.34 184.91C157.44 182.5 156.52 180.06 155 177.98C153.48 175.9 151.27 174.2 148.71 173.89C146.16 173.58 143.33 174.96 142.5 177.39C142.13 171.91 141.36 166.28 138.61 161.52C135.87 156.76 130.74 153.02 125.26 153.36C120.09 153.68 115.66 157.52 113.2 162.08C110.74 166.64 109.9 171.87 109.09 176.99C107.13 174.58 102.99 175.34 100.94 177.67C98.89 180 98.38 183.26 97.94 186.34L159.04 186.98L158.33 184.92L158.34 184.91Z" fill="#F5F5F5"/>
<path d="M467.46 268.43C467.46 268.57 370.09 268.69 250.01 268.69C129.93 268.69 32.54 268.57 32.54 268.43C32.54 268.29 129.89 268.17 250.01 268.17C370.13 268.17 467.46 268.29 467.46 268.43Z" fill="#263238"/>
<path d="M410.89 292.15C410.89 292.29 343.31 292.41 259.96 292.41C176.61 292.41 109.01 292.29 109.01 292.15C109.01 292.01 176.58 291.89 259.96 291.89C343.34 291.89 410.89 292.01 410.89 292.15Z" fill="#263238"/>
<path d="M261.98 298.83C261.98 298.97 222.36 299.09 173.5 299.09C124.64 299.09 85.01 298.97 85.01 298.83C85.01 298.69 124.62 298.57 173.5 298.57C222.38 298.57 261.98 298.69 261.98 298.83Z" fill="#263238"/>
<path d="M348.79 309.41C348.79 309.55 321.29 309.67 287.37 309.67C253.45 309.67 225.94 309.55 225.94 309.41C225.94 309.27 253.44 309.15 287.37 309.15C321.3 309.15 348.79 309.27 348.79 309.41Z" fill="#263238"/>
<path d="M324.76 465.72C324.76 465.86 307.56 465.98 286.35 465.98C265.14 465.98 247.93 465.86 247.93 465.72C247.93 465.58 265.13 465.46 286.35 465.46C307.57 465.46 324.76 465.58 324.76 465.72Z" fill="#263238"/>
<path d="M149.09 454.27C149.09 454.41 131.89 454.53 110.68 454.53C89.47 454.53 72.26 454.41 72.26 454.27C72.26 454.13 89.46 454.01 110.68 454.01C131.9 454.01 149.09 454.13 149.09 454.27Z" fill="#FF725E"/>
<path d="M402.82 451.3C402.82 451.44 395.08 451.56 385.53 451.56C375.98 451.56 368.24 451.44 368.24 451.3C368.24 451.16 375.98 451.04 385.53 451.04C395.08 451.04 402.82 451.16 402.82 451.3Z" fill="#FF725E"/>
<path d="M266.69 472.16C266.69 472.3 260.92 472.42 253.81 472.42C246.7 472.42 240.93 472.3 240.93 472.16C240.93 472.02 246.7 471.9 253.81 471.9C260.92 471.9 266.69 472.02 266.69 472.16Z" fill="#263238"/>
<path d="M387.908 102.14C399.628 90.4206 399.628 71.4193 387.908 59.6996C376.189 47.98 357.187 47.98 345.468 59.6996C333.748 71.4193 333.748 90.4206 345.468 102.14C357.187 113.86 376.189 113.86 387.908 102.14Z" fill="#FFD808"/>
<path opacity="0.9" d="M387.908 102.14C399.628 90.4206 399.628 71.4193 387.908 59.6996C376.189 47.98 357.187 47.98 345.468 59.6996C333.748 71.4193 333.748 90.4206 345.468 102.14C357.187 113.86 376.189 113.86 387.908 102.14Z" fill="white"/>
<path d="M369.937 107.496C384.607 105.703 395.045 92.3567 393.252 77.6867C391.458 63.0168 378.112 52.5784 363.442 54.3718C348.772 56.1653 338.334 69.5115 340.127 84.1814C341.921 98.8513 355.267 109.29 369.937 107.496Z" fill="#FFD808"/>
<path opacity="0.6" d="M369.937 107.496C384.607 105.703 395.045 92.3567 393.252 77.6867C391.458 63.0168 378.112 52.5784 363.442 54.3718C348.772 56.1653 338.334 69.5115 340.127 84.1814C341.921 98.8513 355.267 109.29 369.937 107.496Z" fill="white"/>
<path d="M370.233 102.926C382.376 100.97 390.634 89.5404 388.679 77.3975C386.723 65.2547 375.293 56.9964 363.151 58.9523C351.008 60.9081 342.749 72.3374 344.705 84.4803C346.661 96.6231 358.09 104.881 370.233 102.926Z" fill="#FFD808"/>
<path opacity="0.3" d="M370.233 102.926C382.376 100.97 390.634 89.5404 388.679 77.3975C386.723 65.2547 375.293 56.9964 363.151 58.9523C351.008 60.9081 342.749 72.3374 344.705 84.4803C346.661 96.6231 358.09 104.881 370.233 102.926Z" fill="white"/>
<path fill-rule="evenodd" clip-rule="evenodd" d="M384.52 80.9198C384.52 90.7698 376.54 98.7498 366.69 98.7498C356.84 98.7498 348.86 90.7698 348.86 80.9198C348.86 71.0698 356.84 63.0898 366.69 63.0898C376.54 63.0898 384.52 71.0698 384.52 80.9198Z" fill="#FFD808"/>
<path d="M116.94 135C116.94 135 116.31 134.78 115.14 134.52C113.98 134.26 112.23 134.04 110.12 134.33C108.02 134.61 105.53 135.45 103.36 137.25C101.19 139.01 99.33 141.67 98.59 144.83L98.57 144.91L98.43 145.45L98.22 144.94C97 141.94 94.85 139.55 92.5 138.04C90.15 136.5 87.63 135.86 85.52 135.71C83.4 135.56 81.68 135.87 80.53 136.17C79.38 136.47 78.77 136.74 78.76 136.71C78.76 136.7 78.9 136.63 79.19 136.5C79.48 136.37 79.92 136.21 80.49 136.04C81.64 135.7 83.37 135.35 85.53 135.46C87.67 135.57 90.26 136.2 92.68 137.76C95.09 139.3 97.31 141.73 98.55 144.81L98.2 144.84L98.22 144.75C98.98 141.5 100.9 138.78 103.14 136.99C105.38 135.17 107.94 134.33 110.08 134.08C112.24 133.82 114 134.09 115.17 134.39C115.76 134.54 116.2 134.69 116.49 134.81C116.78 134.93 116.94 134.99 116.93 135.01L116.94 135Z" fill="#263238"/>
<path d="M167.13 110.23C167.13 110.23 166.78 110.13 166.13 110C165.49 109.87 164.54 109.76 163.38 109.92C162.23 110.08 160.88 110.55 159.7 111.53C158.52 112.49 157.51 113.94 157.11 115.66V115.71L156.96 116.25L156.75 115.74C156.09 114.11 154.91 112.81 153.64 111.98C152.36 111.14 150.99 110.78 149.84 110.69C148.68 110.6 147.74 110.76 147.11 110.91C146.48 111.07 146.14 111.2 146.13 111.17C146.13 111.16 146.2 111.11 146.36 111.04C146.52 110.96 146.76 110.87 147.07 110.77C147.7 110.57 148.66 110.37 149.86 110.43C151.05 110.49 152.49 110.83 153.83 111.69C155.17 112.54 156.4 113.89 157.1 115.6L156.75 115.63V115.58C157.19 113.77 158.25 112.26 159.5 111.27C160.75 110.26 162.17 109.8 163.36 109.67C164.56 109.53 165.53 109.69 166.17 109.87C166.49 109.96 166.74 110.04 166.9 110.12C167.06 110.19 167.14 110.23 167.14 110.24L167.13 110.23Z" fill="#263238"/>
<path d="M134.32 98.9598C134.32 98.9598 133.98 99.3498 133.36 100.05C132.74 100.75 131.89 101.81 131 103.23C129.22 106.03 127.44 110.49 127.5 115.61V115.77L127.14 115.8C126.76 113.3 125.93 111.01 124.88 109.1C123.83 107.18 122.6 105.62 121.43 104.45C120.27 103.27 119.21 102.44 118.44 101.92C117.68 101.39 117.24 101.13 117.25 101.1C117.25 101.09 117.37 101.15 117.59 101.26C117.8 101.38 118.13 101.54 118.52 101.8C119.31 102.29 120.41 103.1 121.61 104.27C122.81 105.44 124.08 107 125.17 108.94C126.26 110.88 127.11 113.21 127.5 115.75L127.14 115.78V115.62C127.08 110.41 128.93 105.89 130.79 103.1C131.71 101.68 132.6 100.64 133.26 99.9598C133.58 99.6098 133.86 99.3798 134.04 99.1998C134.22 99.0298 134.32 98.9498 134.33 98.9598H134.32Z" fill="#263238"/>
<path d="M370.615 353.068C370.745 353.118 370.175 354.988 369.175 357.178C368.175 359.368 367.145 361.028 367.025 360.958C366.895 360.888 367.715 359.128 368.705 356.958C369.695 354.788 370.485 353.018 370.615 353.068Z" fill="#263238"/>
<path d="M378.105 389.028V388.528L377.625 388.418C377.665 388.168 377.655 386.138 377.625 383.258C377.625 383.008 377.725 382.768 377.915 382.578C378.215 382.268 378.735 382.088 379.305 382.088H438.285V383.088H379.305C378.885 383.088 378.645 383.238 378.615 383.298C378.695 388.658 378.665 388.688 378.475 388.878L378.325 389.028H378.115H378.105Z" fill="#455A64"/>
<path d="M384.565 382.588H383.565V388.568H384.565V382.588Z" fill="#455A64"/>
<path d="M390.975 382.588H389.975V388.568H390.975V382.588Z" fill="#455A64"/>
<path d="M397.375 382.588H396.375V388.568H397.375V382.588Z" fill="#455A64"/>
<path d="M403.785 382.588H402.785V388.568H403.785V382.588Z" fill="#455A64"/>
<path d="M410.195 382.588H409.195V388.568H410.195V382.588Z" fill="#455A64"/>
<path d="M416.595 382.588H415.595V388.568H416.595V382.588Z" fill="#455A64"/>
<path d="M423.005 382.588H422.005V388.568H423.005V382.588Z" fill="#455A64"/>
<path d="M429.405 382.588H428.405V388.568H429.405V382.588Z" fill="#455A64"/>
<path d="M351.915 395.038C351.785 394.978 354.785 387.758 358.625 378.908C362.465 370.058 365.685 362.928 365.815 362.978C365.945 363.038 362.945 370.258 359.105 379.108C355.265 387.958 352.045 395.088 351.915 395.038Z" fill="#263238"/>
<path d="M372.395 393.128L375.775 388.508H430.055L440.285 374.518C441.285 373.148 442.875 372.338 444.575 372.338H496.545L511.865 395.978L372.405 393.138L372.395 393.128Z" fill="#E0E0E0"/>
<path d="M499.025 376.178L463.375 376.438L461.675 390.758H508.525L499.025 376.178Z" fill="#455A64"/>
<g opacity="0.3">
<path d="M490.795 376.238L464.535 390.758H472.295L497.395 376.198L490.795 376.238Z" fill="white"/>
</g>
<g opacity="0.3">
<path d="M499.425 376.798L477.115 390.758H479.945L500.215 378.008L499.425 376.798Z" fill="white"/>
</g>
<g opacity="0.3">
<path d="M497.235 373.418V394.658H500.755L500.505 378.498L497.235 373.418Z" fill="black"/>
</g>
<path d="M499.495 360.918H491.585L490.135 362.868L499.495 373.418V360.918Z" fill="#E0E0E0"/>
<path d="M499.495 360.918C499.495 360.918 499.535 361.208 499.555 361.788C499.575 362.468 499.595 363.328 499.625 364.348C499.675 366.558 499.725 369.718 499.745 373.408V374.058L499.315 373.568C498.085 372.188 496.745 370.678 495.345 369.118C493.415 366.928 491.595 364.868 489.965 363.018L489.835 362.878L489.945 362.728C490.455 362.048 490.945 361.408 491.415 360.788L491.485 360.698H491.595C494.035 360.718 496.035 360.768 497.405 360.808C498.775 360.848 499.525 360.878 499.495 360.908C499.475 360.928 499.265 360.938 498.895 360.958C498.445 360.978 497.915 360.988 497.275 361.008C495.885 361.048 493.945 361.098 491.595 361.118L491.765 361.028C491.305 361.648 490.835 362.308 490.335 362.988V362.698C491.965 364.538 493.795 366.588 495.735 368.768C497.125 370.338 498.455 371.848 499.685 373.238L499.255 373.398C499.275 369.808 499.325 366.718 499.375 364.498C499.405 363.448 499.425 362.578 499.445 361.878C499.465 361.258 499.485 360.918 499.505 360.898L499.495 360.918Z" fill="#263238"/>
<path d="M361.855 379.978C382.715 383.658 404.085 384.338 425.135 381.928C431.075 381.248 436.985 380.318 442.845 379.168C443.635 379.008 443.295 377.808 442.515 377.958C421.995 382.008 400.925 383.098 380.095 381.178C374.095 380.628 368.125 379.818 362.185 378.768C361.395 378.628 361.065 379.838 361.855 379.978Z" fill="#AE7461"/>
<path d="M367.025 388.868C386.435 392.578 406.385 393.288 426.005 390.878C431.465 390.208 436.905 389.298 442.285 388.158C443.075 387.988 442.735 386.788 441.955 386.948C422.885 390.968 403.235 392.028 383.835 390.068C378.305 389.508 372.805 388.698 367.355 387.648C366.565 387.498 366.235 388.698 367.025 388.858V388.868Z" fill="#AE7461"/>
<path d="M442.985 379.408C463.185 383.018 483.795 383.418 504.145 380.828C509.865 380.098 515.545 379.158 521.205 378.028C521.995 377.868 521.655 376.668 520.875 376.818C501.115 380.758 480.915 382.298 460.825 380.538C454.955 380.028 449.125 379.238 443.325 378.198C442.535 378.058 442.205 379.258 442.995 379.408H442.985Z" fill="#AE7461"/>
<path d="M443.175 388.888C463.425 392.758 484.395 393.298 504.855 390.878C510.465 390.218 516.035 389.318 521.555 388.158C522.345 387.988 522.005 386.788 521.225 386.948C501.315 391.148 480.615 392.048 460.375 390.088C454.715 389.538 449.085 388.738 443.505 387.678C442.715 387.528 442.385 388.728 443.175 388.888Z" fill="#AE7461"/>
<g opacity="0.3">
<path d="M440.365 394.658C439.955 394.658 439.625 394.328 439.625 393.918V378.168C439.625 377.758 439.955 377.428 440.365 377.428C440.775 377.428 441.105 377.758 441.105 378.168V393.918C441.105 394.328 440.775 394.658 440.365 394.658Z" fill="black"/>
</g>
<path d="M441.105 376.878V396.168C441.105 397.488 443.145 397.488 443.145 396.168V376.878C443.145 375.558 441.105 375.558 441.105 376.878Z" fill="#E0E0E0"/>
<path d="M441.105 376.878C441.105 376.878 441.045 376.718 441.155 376.408C441.255 376.118 441.685 375.718 442.315 375.798C442.615 375.828 442.965 376.008 443.155 376.358C443.345 376.738 443.265 377.128 443.295 377.528C443.305 378.348 443.315 379.268 443.335 380.268C443.385 384.338 443.415 389.958 443.415 396.158C443.435 396.628 443.115 397.148 442.655 397.308C442.215 397.478 441.705 397.428 441.315 397.138C440.895 396.868 440.825 396.248 440.855 395.918C440.855 395.548 440.855 395.178 440.855 394.808C440.855 393.348 440.865 391.938 440.875 390.588C440.895 387.918 440.915 385.508 440.935 383.448C440.965 381.478 440.995 379.858 441.015 378.628C441.045 377.488 441.085 376.858 441.115 376.858C441.145 376.858 441.185 377.488 441.215 378.628C441.235 379.848 441.265 381.478 441.295 383.448C441.315 385.508 441.325 387.928 441.355 390.588C441.355 391.938 441.355 393.348 441.375 394.808C441.375 395.178 441.375 395.538 441.375 395.918C441.365 396.318 441.405 396.538 441.635 396.728C441.855 396.898 442.195 396.938 442.465 396.828C442.745 396.718 442.895 396.468 442.895 396.168C442.895 389.958 442.925 384.348 442.975 380.278C442.985 379.278 443.005 378.358 443.015 377.538C443.015 377.128 443.075 376.738 442.945 376.478C442.815 376.208 442.555 376.048 442.295 376.008C441.765 375.918 441.375 376.218 441.255 376.458C441.125 376.718 441.145 376.878 441.115 376.878H441.105Z" fill="#263238"/>
<path d="M344.335 395.888C344.335 395.888 353.675 417.028 370.025 432.188C378.455 439.998 389.585 444.218 401.075 444.218L588.245 444.198C597.965 444.498 607.615 441.888 615.635 436.388C619.105 434.008 622.425 430.998 624.955 427.248C633.945 413.888 653.735 388.188 654.765 387.928C655.795 387.668 540.405 398.978 455.345 397.178C389.315 395.778 344.325 395.888 344.325 395.888H344.335Z" fill="#E0E0E0"/>
<path d="M365.535 384.848H346.985V386.618H365.535V384.848Z" fill="#E0E0E0"/>
<path d="M365.535 386.618C365.535 386.618 365.505 386.438 365.485 386.138C365.465 385.778 365.445 385.358 365.425 384.858L365.535 384.968C362.405 385.058 355.275 385.118 346.985 385.118C347.505 384.598 347.125 384.978 347.245 384.858V385.758C347.245 386.058 347.245 386.348 347.245 386.628L346.985 386.368C352.135 386.368 356.725 386.428 360.075 386.478L364.045 386.558C364.985 386.578 365.515 386.608 365.545 386.628C365.565 386.648 365.085 386.678 364.175 386.698C363.165 386.718 361.855 386.748 360.265 386.778C356.935 386.828 352.245 386.888 346.985 386.888H346.725V386.628C346.725 386.348 346.725 386.058 346.725 385.758V384.888V384.868C346.845 384.748 346.465 385.118 346.985 384.598C355.275 384.598 362.405 384.658 365.535 384.748H365.645V384.858C365.625 385.458 365.605 385.908 365.585 386.208C365.565 386.498 365.555 386.648 365.535 386.628V386.618Z" fill="#263238"/>
<path d="M370.235 396.148L359.535 375.928C359.255 375.398 358.705 375.068 358.105 375.068H349.495C348.605 375.068 347.875 375.798 347.875 376.688V395.638H346.105V376.688C346.105 374.818 347.625 373.298 349.495 373.298H358.105C359.365 373.298 360.515 373.988 361.105 375.108L371.805 395.328L370.245 396.158L370.235 396.148Z" fill="#E0E0E0"/>
<path d="M370.235 396.148C370.235 396.148 370.365 396.058 370.615 395.918C370.895 395.758 371.265 395.548 371.765 395.268L371.735 395.348C370.265 392.698 366.795 386.248 362.065 377.378C361.765 376.828 361.465 376.258 361.165 375.688C360.865 375.098 360.565 374.568 360.055 374.188C359.565 373.798 358.945 373.558 358.305 373.518C357.625 373.518 356.925 373.518 356.225 373.518C354.815 373.518 353.365 373.518 351.885 373.518C351.145 373.518 350.395 373.518 349.635 373.518C348.905 373.498 348.205 373.698 347.625 374.138C347.045 374.558 346.615 375.188 346.435 375.898C346.265 376.588 346.365 377.418 346.335 378.208C346.335 379.808 346.335 381.438 346.335 383.088C346.335 386.398 346.335 389.788 346.335 393.258C346.335 394.058 346.335 394.868 346.335 395.608L346.075 395.348C346.705 395.348 347.285 395.348 347.845 395.348L347.585 395.608C347.585 391.778 347.585 388.048 347.585 384.458C347.585 382.658 347.585 380.898 347.585 379.178C347.585 378.318 347.585 377.458 347.585 376.618C347.585 375.628 348.465 374.778 349.425 374.798C351.065 374.798 352.665 374.798 354.225 374.808C355.005 374.808 355.765 374.808 356.515 374.808C356.895 374.808 357.265 374.808 357.635 374.808C357.985 374.808 358.425 374.788 358.805 374.968C359.185 375.138 359.495 375.428 359.675 375.788C359.835 376.098 360.005 376.418 360.165 376.718C360.485 377.338 360.805 377.938 361.115 378.538C361.735 379.728 362.325 380.868 362.895 381.948C365.145 386.288 366.965 389.808 368.245 392.268C368.865 393.468 369.345 394.418 369.695 395.098C369.845 395.408 369.975 395.648 370.065 395.848C370.145 396.018 370.185 396.108 370.185 396.118C370.185 396.118 370.135 396.048 370.045 395.898C369.945 395.718 369.815 395.488 369.655 395.198C369.295 394.538 368.795 393.618 368.155 392.458C366.835 390.008 364.955 386.518 362.625 382.198C362.035 381.108 361.425 379.958 360.785 378.768C360.465 378.168 360.135 377.558 359.805 376.938L359.305 375.998C359.155 375.718 358.915 375.498 358.625 375.368C358.335 375.228 358.015 375.248 357.625 375.248C357.255 375.248 356.885 375.248 356.505 375.248C355.755 375.248 354.985 375.248 354.215 375.248C352.665 375.248 351.065 375.248 349.425 375.258C348.715 375.248 348.055 375.888 348.065 376.618C348.065 377.458 348.065 378.308 348.065 379.168C348.065 380.888 348.065 382.648 348.065 384.448C348.065 388.038 348.065 391.768 348.065 395.598V395.858H347.805C347.245 395.858 346.665 395.858 346.035 395.858H345.775V395.598C345.775 394.858 345.775 394.048 345.775 393.248C345.775 389.778 345.775 386.378 345.775 383.078C345.775 381.428 345.775 379.798 345.775 378.198C345.775 377.798 345.775 377.398 345.775 376.998C345.775 376.618 345.775 376.168 345.895 375.758C346.095 374.938 346.605 374.208 347.275 373.718C347.935 373.218 348.785 372.988 349.575 373.018C350.335 373.018 351.085 373.018 351.825 373.018C353.305 373.018 354.755 373.018 356.165 373.018C356.875 373.018 357.575 373.018 358.275 373.028C359.005 373.078 359.705 373.358 360.265 373.798C360.835 374.228 361.205 374.888 361.475 375.448C361.775 376.018 362.075 376.588 362.365 377.148C367.035 386.048 370.415 392.548 371.775 395.248L371.805 395.308L371.755 395.338C371.235 395.598 370.835 395.798 370.545 395.938C370.285 396.068 370.165 396.118 370.165 396.108L370.235 396.148Z" fill="#263238"/>
<path d="M365.705 363.548C365.115 363.718 365.325 363.588 365.605 363.588C365.845 363.588 366.075 363.578 366.315 363.578C367.185 363.568 368.045 363.558 368.915 363.548C372.005 363.528 375.085 363.518 378.175 363.518C388.185 363.498 398.205 363.498 408.215 363.508C420.215 363.508 432.225 363.528 444.225 363.538C454.575 363.548 464.925 363.568 475.275 363.588C480.295 363.588 485.335 363.768 490.345 363.618C490.415 363.618 490.485 363.618 490.555 363.618C492.525 363.618 492.535 360.558 490.555 360.548C486.405 360.548 482.245 360.528 478.095 360.528C468.155 360.508 458.205 360.498 448.265 360.478C436.235 360.458 424.195 360.448 412.165 360.438C401.745 360.438 391.315 360.438 380.895 360.438C377.435 360.438 373.975 360.448 370.515 360.468C368.865 360.468 367.195 360.428 365.545 360.518C365.325 360.528 365.105 360.528 364.895 360.588C362.995 361.118 363.805 364.078 365.715 363.548H365.705Z" fill="#E0E0E0"/>
<path d="M365.705 363.548C365.705 363.548 365.485 363.658 365.035 363.618C364.595 363.578 363.895 363.128 363.775 362.208C363.715 361.768 363.835 361.218 364.265 360.838C364.705 360.458 365.355 360.438 365.975 360.428C367.245 360.408 368.715 360.388 370.365 360.358C376.985 360.328 386.525 360.288 398.315 360.238C421.935 360.238 454.525 360.248 490.535 360.258C491.165 360.228 491.885 360.618 492.125 361.238C492.395 361.828 492.355 362.538 492.005 363.098C491.835 363.388 491.545 363.598 491.245 363.718C490.945 363.848 490.575 363.848 490.335 363.848L488.665 363.888C486.435 363.928 484.225 363.908 482.035 363.888C477.645 363.818 473.335 363.818 469.085 363.808C460.595 363.788 452.405 363.778 444.605 363.758C429.005 363.728 414.955 363.698 403.145 363.668C391.355 363.638 381.815 363.618 375.195 363.608C371.905 363.608 369.355 363.598 367.595 363.598C366.735 363.598 366.085 363.598 365.615 363.598C365.515 363.578 365.395 363.648 365.345 363.598C365.415 363.598 365.495 363.578 365.545 363.568C365.655 363.548 365.715 363.538 365.715 363.538C365.715 363.538 365.665 363.558 365.555 363.598C365.495 363.608 365.435 363.638 365.345 363.648C365.395 363.538 365.515 363.578 365.625 363.558C366.085 363.548 366.745 363.528 367.605 363.508C369.365 363.488 371.915 363.458 375.205 363.428C381.825 363.408 391.365 363.368 403.155 363.328C414.965 363.328 429.015 363.308 444.615 363.308C452.415 363.308 460.605 363.318 469.095 363.328C473.335 363.328 477.665 363.328 482.045 363.398C484.235 363.418 486.445 363.438 488.665 363.398L490.335 363.358C490.895 363.378 491.325 363.248 491.585 362.838C491.835 362.458 491.875 361.898 491.665 361.478C491.485 361.038 491.035 360.798 490.545 360.798C454.545 360.728 421.945 360.668 398.335 360.618C386.545 360.598 377.005 360.578 370.385 360.568C368.735 360.568 367.275 360.588 366.005 360.588C365.375 360.588 364.775 360.608 364.365 360.938C363.975 361.278 363.845 361.778 363.895 362.198C363.995 363.068 364.645 363.508 365.065 363.568C365.505 363.628 365.725 363.518 365.725 363.548H365.705Z" fill="#263238"/>
<path d="M499.225 360.918C499.115 361.048 496.935 359.268 494.495 356.818C493.365 355.688 492.335 354.668 491.375 353.698C490.585 352.898 490.085 352.408 490.135 352.348C490.245 352.218 492.425 353.998 494.865 356.448C495.995 357.578 497.015 358.598 497.985 359.568C498.775 360.368 499.275 360.858 499.225 360.918Z" fill="#263238"/>
<path d="M499.225 29.7884C499.365 29.8284 498.375 33.9284 497.015 38.9484C495.655 43.9684 494.435 48.0084 494.305 47.9684C494.175 47.9284 495.155 43.8284 496.515 38.8084C497.875 33.7884 499.095 29.7484 499.225 29.7884Z" fill="#263238"/>
<path d="M499.225 25.4983V397.088C499.225 399.058 502.295 399.068 502.295 397.088V25.4983C502.295 23.5283 499.225 23.5183 499.225 25.4983Z" fill="#E0E0E0"/>
<path d="M499.225 25.4982C499.225 25.4982 499.225 25.4582 499.225 25.3782C499.235 25.2982 499.225 25.1682 499.285 25.0182C499.365 24.7182 499.655 24.2182 500.305 24.0582C500.615 23.9782 501.005 23.9682 501.385 24.1082C501.765 24.2482 502.135 24.5782 502.265 25.0582C502.375 25.5382 502.315 26.0482 502.335 26.6082C502.335 27.1582 502.335 27.7482 502.335 28.3782C502.345 33.3982 502.365 40.7882 502.385 50.3082C502.405 69.3582 502.435 96.9182 502.465 130.968C502.485 199.078 502.515 293.158 502.545 397.078C502.545 397.528 502.375 398.038 502.015 398.368C501.655 398.698 501.175 398.848 500.715 398.838C500.255 398.838 499.775 398.658 499.435 398.318C499.085 397.978 498.945 397.468 498.955 397.028C498.955 395.408 498.955 393.788 498.955 392.178C498.955 388.948 498.955 385.728 498.955 382.518C498.955 376.098 498.955 369.728 498.955 363.398C498.955 350.748 498.955 338.278 498.955 326.028C498.955 301.528 498.965 277.888 498.975 255.378C498.995 210.348 499.015 169.798 499.035 135.748C499.065 101.698 499.095 74.1482 499.115 55.0982C499.135 45.5782 499.155 38.1882 499.165 33.1682C499.175 30.6682 499.185 28.7582 499.195 27.4682C499.195 26.1882 499.225 25.5282 499.225 25.5282C499.225 25.5282 499.245 26.1882 499.255 27.4682C499.255 28.7582 499.265 30.6682 499.285 33.1682C499.295 38.1882 499.315 45.5782 499.335 55.0982C499.355 74.1482 499.385 101.698 499.415 135.748C499.435 169.808 499.445 210.358 499.475 255.378C499.475 277.898 499.475 301.528 499.495 326.028C499.495 338.278 499.495 350.748 499.495 363.398C499.495 369.728 499.495 376.098 499.495 382.518V397.028C499.445 397.768 500.025 398.318 500.745 398.318C501.465 398.358 502.075 397.798 502.045 397.078C502.075 293.168 502.105 199.088 502.125 130.968C502.155 96.9182 502.185 69.3582 502.205 50.3082C502.225 40.7882 502.245 33.3982 502.255 28.3782C502.255 27.7482 502.255 27.1582 502.255 26.6082C502.235 26.0582 502.305 25.5282 502.205 25.0782C502.085 24.6282 501.745 24.3082 501.385 24.1682C501.025 24.0282 500.645 24.0282 500.345 24.1082C499.715 24.2582 499.415 24.7282 499.335 25.0282C499.245 25.3382 499.265 25.5082 499.245 25.5082L499.225 25.4982Z" fill="#263238"/>
<path d="M649.735 388.138C649.735 388.138 649.585 387.828 649.325 387.218C649.055 386.598 648.665 385.688 648.165 384.508C647.145 382.108 645.655 378.598 643.735 374.068C639.905 364.988 634.385 351.858 627.555 335.648C613.945 303.178 595.145 258.328 574.375 208.808C553.705 159.218 534.985 114.338 521.445 81.8381C514.735 65.5781 509.305 52.4181 505.545 43.3081C503.705 38.7581 502.265 35.2181 501.295 32.7981C500.825 31.5881 500.455 30.6781 500.225 30.0481C500.005 29.4181 499.905 29.0981 499.905 29.0981C499.905 29.0981 500.045 29.4181 500.275 30.0281C500.535 30.6581 500.905 31.5681 501.395 32.7581C502.395 35.1581 503.855 38.6881 505.735 43.2281C509.535 52.3181 515.015 65.4581 521.795 81.6981C535.385 114.188 554.145 159.048 574.875 208.608C595.585 258.158 614.335 303.018 627.905 335.508C634.675 351.748 640.145 364.898 643.935 373.988C645.815 378.528 647.275 382.058 648.275 384.458C648.765 385.648 649.135 386.558 649.395 387.188C649.645 387.808 649.755 388.128 649.755 388.128L649.735 388.138Z" fill="#263238"/>
<path d="M411.485 411.958H393.995C391.975 411.958 390.335 410.318 390.335 408.298C390.335 406.278 391.975 404.638 393.995 404.638H411.485C413.505 404.638 415.145 406.278 415.145 408.298C415.145 410.318 413.505 411.958 411.485 411.958Z" fill="#455A64"/>
<g opacity="0.3">
<path d="M394.505 411.958L406.185 404.638H411.805C412.145 404.658 412.465 404.728 412.755 404.828L401.685 411.968H394.505V411.958Z" fill="white"/>
</g>
<g opacity="0.3">
<path d="M404.485 411.958L413.925 405.478C414.155 405.678 414.365 405.908 414.545 406.168L405.825 411.958H404.485Z" fill="white"/>
</g>
<path d="M655.525 389.978C655.525 389.978 656.105 389.738 656.125 389.728C656.875 389.368 657.395 388.388 657.365 387.568C657.315 386.468 656.625 385.448 655.525 385.158C654.715 384.938 653.745 385.158 652.925 385.218C651.055 385.378 649.175 385.548 647.305 385.708C640.405 386.308 633.495 386.878 626.585 387.428C604.005 389.228 581.405 390.768 558.795 391.978C531.205 393.458 503.565 394.478 475.935 394.518C460.815 394.538 445.695 394.108 430.575 393.848C416.465 393.608 402.365 393.408 388.255 393.268C373.845 393.128 359.405 392.808 344.985 393.038C344.795 393.038 344.605 393.038 344.415 393.038C341.195 393.038 341.195 398.048 344.415 398.038C356.105 398.008 367.805 398.098 379.495 398.188C408.345 398.428 437.195 399.228 466.035 399.478C493.525 399.718 521.025 398.848 548.485 397.508C572.195 396.348 595.885 394.808 619.555 392.988C627.345 392.388 635.135 391.758 642.925 391.088C646.715 390.768 650.535 390.558 654.305 390.108C654.825 390.048 655.175 390.248 654.195 389.988C653.585 389.188 652.975 388.378 652.355 387.578C652.765 386.858 653.185 386.138 653.595 385.418C653.795 385.338 653.985 385.248 654.185 385.168C651.095 386.058 652.415 390.888 655.515 389.988L655.525 389.978Z" fill="#00BEF8"/>
<path d="M355.785 415.698C359.645 421.188 364.405 427.068 369.995 432.248C370.245 432.478 370.505 432.698 370.765 432.928C454.615 435.138 537.735 435.148 620.095 432.878C621.875 431.238 623.535 429.388 624.935 427.298C628.065 422.638 632.515 416.488 637.015 410.438C590.775 417.998 394.135 418.038 355.775 415.698H355.785Z" fill="#455A64"/>
<path d="M373.825 435.398C381.665 441.178 391.225 444.278 401.055 444.278L588.225 444.258C597.945 444.558 607.595 441.948 615.615 436.448C616.195 436.048 616.765 435.638 617.325 435.208C537.925 437.878 454.135 437.988 373.825 435.408V435.398Z" fill="#00BEF8"/>
<path d="M370.765 432.928C371.755 433.798 372.765 434.628 373.825 435.398C454.135 437.978 537.925 437.868 617.325 435.198C618.275 434.478 619.195 433.698 620.095 432.878C537.735 435.148 454.625 435.138 370.765 432.928Z" fill="white"/>
<path d="M369.915 353.608H491.285C470.265 268.478 483.225 162.528 495.465 44.0283C426.605 150.718 379.325 254.618 369.915 353.608Z" fill="#00BEF8"/>
<path d="M445.225 260.758C445.225 260.758 445.115 261.018 444.845 261.478L443.675 263.498C442.665 265.248 441.125 267.738 439.155 270.768C437.195 273.808 434.755 277.358 431.935 281.228C429.095 285.078 425.875 289.238 422.335 293.478C418.775 297.708 415.245 301.608 411.945 305.068C408.625 308.518 405.555 311.538 402.905 314.008C400.265 316.478 398.075 318.428 396.535 319.728C395.795 320.358 395.195 320.858 394.755 321.228C394.345 321.568 394.125 321.738 394.115 321.728C394.105 321.718 394.305 321.518 394.685 321.148C395.115 320.758 395.685 320.228 396.395 319.578C397.895 318.228 400.045 316.238 402.645 313.738C405.255 311.248 408.295 308.198 411.585 304.738C414.855 301.258 418.375 297.358 421.925 293.138C425.455 288.908 428.685 284.768 431.535 280.938C434.365 277.088 436.835 273.568 438.835 270.558C440.845 267.558 442.425 265.098 443.495 263.378C444.015 262.558 444.435 261.908 444.745 261.418C445.035 260.968 445.195 260.738 445.215 260.748L445.225 260.758Z" fill="#263238"/>
<path d="M443.205 300.468C443.205 300.468 442.875 300.858 442.215 301.498C441.555 302.138 440.585 303.028 439.355 304.118C436.905 306.288 433.415 309.168 429.375 312.108C425.335 315.048 421.535 317.498 418.725 319.178C417.325 320.018 416.175 320.668 415.365 321.108C414.555 321.538 414.105 321.768 414.085 321.738C414.065 321.708 414.485 321.418 415.255 320.938C416.115 320.398 417.205 319.708 418.525 318.878C421.285 317.128 425.045 314.638 429.065 311.708C433.085 308.768 436.605 305.948 439.105 303.858C440.295 302.858 441.295 302.018 442.065 301.368C442.765 300.778 443.165 300.468 443.185 300.498L443.205 300.468Z" fill="#263238"/>
<g opacity="0.3">
<path d="M370.115 353.608C370.115 353.608 413.065 351.698 437.535 337.368C462.005 323.048 480.145 248.578 480.145 248.578C481.635 284.148 483.845 321.718 491.285 353.598H370.115V353.608Z" fill="black"/>
</g>
<path d="M613.085 393.278C613.085 393.278 598.585 394.978 575.025 396.358C551.465 397.758 518.875 398.748 482.875 399.048C446.865 399.288 414.265 398.938 390.675 398.488C378.875 398.268 369.335 398.038 362.745 397.848C359.465 397.748 356.905 397.668 355.155 397.618C354.295 397.588 353.645 397.558 353.185 397.548C352.745 397.528 352.515 397.508 352.515 397.508C352.515 397.508 352.745 397.498 353.185 397.498C353.645 397.498 354.305 397.508 355.165 397.518C356.915 397.548 359.475 397.588 362.755 397.648C369.365 397.758 378.905 397.918 390.685 398.118C414.275 398.478 446.865 398.778 482.875 398.528C518.865 398.228 551.445 397.298 575.005 395.988C577.955 395.848 580.755 395.698 583.405 395.508C586.055 395.328 588.555 395.168 590.895 395.008C593.235 394.848 595.405 394.708 597.405 394.568C599.405 394.398 601.225 394.238 602.875 394.098C606.145 393.828 608.695 393.608 610.445 393.468C611.295 393.398 611.955 393.348 612.415 393.318C612.855 393.288 613.085 393.288 613.085 393.288V393.278Z" fill="#263238"/>
<path d="M430.595 409.618C430.095 411.628 428.065 412.858 426.045 412.368C424.025 411.878 422.805 409.838 423.295 407.818C423.785 405.798 425.825 404.578 427.845 405.068C429.855 405.568 431.085 407.598 430.595 409.618Z" fill="#455A64"/>
<g opacity="0.3">
<path d="M428.325 405.228L423.185 408.608C423.145 408.778 423.165 410.168 424.095 411.168L430.215 406.878C430.215 406.878 429.535 405.638 428.325 405.218V405.228Z" fill="white"/>
</g>
<path d="M439.685 412.478C441.762 412.478 443.445 410.795 443.445 408.718C443.445 406.641 441.762 404.958 439.685 404.958C437.608 404.958 435.925 406.641 435.925 408.718C435.925 410.795 437.608 412.478 439.685 412.478Z" fill="#455A64"/>
<g opacity="0.3">
<path d="M442.185 405.918L436.225 410.188C436.225 410.188 436.595 410.998 436.845 411.168L442.965 406.878C442.965 406.878 442.645 406.248 442.185 405.918Z" fill="white"/>
</g>
<path d="M453.195 372.938C453.275 372.558 457.755 367.368 458.895 367.168C460.025 366.968 479.465 368.778 480.895 369.388C482.335 369.988 484.375 372.938 484.375 372.938H453.195Z" fill="#E0E0E0"/>
<path d="M493.205 372.328C493.205 372.468 482.155 372.588 468.535 372.588C454.915 372.588 443.865 372.468 443.865 372.328C443.865 372.188 454.905 372.068 468.535 372.068C482.165 372.068 493.205 372.188 493.205 372.328Z" fill="#263238"/>
<g opacity="0.3">
<path d="M367.195 397.848C367.195 397.848 450.035 401.908 503.545 401.208C570.095 400.348 626.505 392.288 626.505 392.288C626.505 392.288 541.785 399.398 487.085 398.568C432.385 397.738 367.185 397.848 367.185 397.848H367.195Z" fill="black"/>
</g>
<path d="M639.295 444.278C639.295 444.418 573.265 444.538 491.825 444.538C410.385 444.538 344.345 444.418 344.345 444.278C344.345 444.138 410.365 444.018 491.825 444.018C573.285 444.018 639.295 444.138 639.295 444.278Z" fill="#263238"/>
<path d="M245.3 304.399H241.126L231.342 192.704H236.821C238.692 192.705 240.496 193.407 241.875 194.672C243.254 195.936 244.11 197.672 244.273 199.536L252.736 296.262C252.826 297.294 252.701 298.334 252.368 299.315C252.036 300.297 251.504 301.198 250.805 301.963C250.106 302.728 249.255 303.339 248.308 303.759C247.36 304.178 246.336 304.396 245.3 304.399Z" fill="#00BEF8"/>
<path d="M232.174 470.146H111.919C108.136 470.081 104.508 468.632 101.722 466.071C98.9363 463.511 97.1863 460.018 96.8037 456.253L74.0735 196.519C73.8811 194.75 74.0675 192.96 74.6203 191.268C75.1731 189.577 76.0797 188.022 77.2796 186.708C78.4796 185.394 79.9456 184.351 81.58 183.647C83.2145 182.943 84.9801 182.595 86.7593 182.626H207.031C210.813 182.694 214.439 184.145 217.224 186.705C220.009 189.265 221.76 192.756 222.146 196.519L244.86 456.253C245.055 458.023 244.871 459.814 244.319 461.507C243.767 463.199 242.861 464.755 241.66 466.07C240.46 467.384 238.992 468.428 237.357 469.131C235.721 469.834 233.954 470.18 232.174 470.146Z" fill="#00BEF8"/>
<path opacity="0.3" d="M232.174 470.146H111.919C108.136 470.081 104.508 468.632 101.722 466.071C98.9363 463.511 97.1863 460.018 96.8037 456.253L74.0735 196.519C73.8811 194.75 74.0675 192.96 74.6203 191.268C75.1731 189.577 76.0797 188.022 77.2796 186.708C78.4796 185.394 79.9456 184.351 81.58 183.647C83.2145 182.943 84.9801 182.595 86.7593 182.626H207.031C210.813 182.694 214.439 184.145 217.224 186.705C220.009 189.265 221.76 192.756 222.146 196.519L244.86 456.253C245.055 458.023 244.871 459.814 244.319 461.507C243.767 463.199 242.861 464.755 241.66 466.07C240.46 467.384 238.992 468.428 237.357 469.131C235.721 469.834 233.954 470.18 232.174 470.146Z" fill="black"/>
<path d="M247.241 470.146H126.969C123.186 470.081 119.558 468.632 116.772 466.071C113.987 463.511 112.237 460.018 111.854 456.253L89.1237 196.519C88.9314 194.75 89.1178 192.96 89.6706 191.268C90.2234 189.577 91.1299 188.022 92.3299 186.708C93.5299 185.394 94.9958 184.351 96.6303 183.647C98.2648 182.943 100.03 182.595 101.81 182.626H222.081C225.863 182.694 229.489 184.145 232.274 186.705C235.059 189.265 236.81 192.756 237.196 196.519L259.927 456.253C260.119 458.023 259.932 459.812 259.38 461.504C258.827 463.195 257.92 464.75 256.72 466.064C255.52 467.378 254.054 468.422 252.42 469.126C250.786 469.829 249.02 470.177 247.241 470.146Z" fill="#00BEF8"/>
<path opacity="0.1" d="M247.241 470.146H126.969C123.186 470.081 119.558 468.632 116.772 466.071C113.987 463.511 112.237 460.018 111.854 456.253L89.1237 196.519C88.9314 194.75 89.1178 192.96 89.6706 191.268C90.2234 189.577 91.1299 188.022 92.3299 186.708C93.5299 185.394 94.9958 184.351 96.6303 183.647C98.2648 182.943 100.03 182.595 101.81 182.626H222.081C225.863 182.694 229.489 184.145 232.274 186.705C235.059 189.265 236.81 192.756 237.196 196.519L259.927 456.253C260.119 458.023 259.932 459.812 259.38 461.504C258.827 463.195 257.92 464.75 256.72 466.064C255.52 467.378 254.054 468.422 252.42 469.126C250.786 469.829 249.02 470.177 247.241 470.146Z" fill="white"/>
<path d="M130.475 182.631H107.908L106.783 169.863C106.649 168.618 106.781 167.357 107.171 166.167C107.561 164.976 108.199 163.881 109.044 162.956C109.889 162.031 110.921 161.296 112.072 160.8C113.223 160.304 114.466 160.059 115.718 160.08H118.686C121.35 160.126 123.905 161.147 125.868 162.95C127.83 164.753 129.063 167.212 129.334 169.863L130.475 182.631Z" fill="#00BEF8"/>
<path d="M172.495 182.629H149.879L147.335 153.491C147.201 152.245 147.333 150.985 147.723 149.794C148.113 148.603 148.751 147.509 149.596 146.584C150.441 145.659 151.474 144.924 152.624 144.428C153.775 143.932 155.018 143.686 156.271 143.707H159.238C161.904 143.753 164.461 144.773 166.426 146.576C168.391 148.379 169.628 150.838 169.902 153.491L172.495 182.629Z" fill="#00BEF8"/>
<path d="M186.893 113.101C187.591 111.525 188.734 110.188 190.183 109.255C191.632 108.322 193.323 107.834 195.046 107.851H198.014C199.854 107.877 201.658 108.372 203.256 109.287C204.853 110.203 206.191 111.51 207.145 113.085L209.085 122.363L214.352 182.694H191.866L186.583 122.363L186.893 113.101Z" fill="#00BEF8"/>
<path d="M186.583 122.363H209.15L207.21 113.085L205.579 104.933C201.519 85.4961 200.035 84.3547 198.323 64.7714L195.763 35.6493C195.605 34.0985 194.865 32.6652 193.692 31.6381C193.085 31.081 192.373 30.65 191.597 30.3701C190.822 30.0902 189.999 29.967 189.176 30.0076C188.474 30.0658 187.792 30.2654 187.169 30.5944C186.547 30.9234 185.997 31.3749 185.554 31.9218C185.111 32.4688 184.783 33.0997 184.59 33.7767C184.397 34.4538 184.342 35.1629 184.431 35.8613L186.958 64.7714C188.67 84.3383 187.806 85.4961 187.154 104.933L186.877 113.085L186.583 122.363Z" fill="#00BEF8"/>
<path opacity="0.1" d="M186.583 122.363H209.15L207.21 113.085L205.579 104.933C201.519 85.4961 200.035 84.3547 198.323 64.7714L195.763 35.6493C195.605 34.0985 194.865 32.6652 193.692 31.6381C193.085 31.081 192.373 30.65 191.597 30.3701C190.822 30.0902 189.999 29.967 189.176 30.0076C188.474 30.0658 187.792 30.2654 187.169 30.5944C186.547 30.9234 185.997 31.3749 185.554 31.9218C185.111 32.4688 184.783 33.0997 184.59 33.7767C184.397 34.4538 184.342 35.1629 184.431 35.8613L186.958 64.7714C188.67 84.3383 187.806 85.4961 187.154 104.933L186.877 113.085L186.583 122.363Z" fill="white"/>
<path d="M94.7817 350.301C94.1698 350.289 93.5836 350.053 93.1332 349.639C92.6828 349.224 92.3993 348.66 92.3358 348.051L88.3409 302.395C88.3109 302.109 88.342 301.819 88.4319 301.546C88.5219 301.272 88.6688 301.021 88.8629 300.808C89.057 300.596 89.2939 300.427 89.558 300.312C89.8222 300.198 90.1076 300.141 90.3954 300.145C91.0101 300.153 91.6003 300.387 92.0541 300.802C92.5079 301.217 92.7938 301.783 92.8576 302.395L96.8525 348.051C96.8827 348.339 96.8512 348.63 96.7603 348.904C96.6694 349.179 96.5211 349.431 96.3252 349.644C96.1293 349.857 95.8903 350.025 95.6242 350.139C95.3581 350.252 95.0709 350.307 94.7817 350.301Z" fill="#00BEF8"/>
<path d="M88.9442 283.449C88.327 283.44 87.7347 283.204 87.2806 282.786C86.8264 282.368 86.5421 281.797 86.4821 281.183L81.2968 221.993C81.2669 221.704 81.2984 221.413 81.3891 221.137C81.4799 220.862 81.628 220.609 81.8236 220.395C82.0192 220.181 82.258 220.01 82.5241 219.895C82.7902 219.78 83.0777 219.722 83.3677 219.726C83.9831 219.736 84.5734 219.972 85.0249 220.391C85.4764 220.809 85.7573 221.38 85.8135 221.993L90.9988 281.183C91.0312 281.47 91.002 281.761 90.9132 282.037C90.8244 282.312 90.6779 282.566 90.4835 282.78C90.2892 282.994 90.0514 283.165 89.786 283.28C89.5205 283.396 89.2336 283.453 88.9442 283.449Z" fill="#00BEF8"/>
<path opacity="0.6" d="M222.798 210.416H107.745C106.418 210.393 105.147 209.881 104.175 208.978C103.203 208.076 102.599 206.845 102.478 205.524C102.401 204.903 102.458 204.273 102.646 203.677C102.834 203.08 103.148 202.531 103.568 202.067C103.987 201.602 104.501 201.234 105.076 200.987C105.65 200.739 106.272 200.618 106.897 200.632H221.95C223.277 200.655 224.548 201.167 225.52 202.07C226.492 202.973 227.097 204.203 227.217 205.524C227.295 206.145 227.237 206.775 227.049 207.372C226.861 207.968 226.547 208.518 226.128 208.982C225.708 209.446 225.194 209.814 224.619 210.062C224.045 210.309 223.424 210.43 222.798 210.416Z" fill="black"/>
<path opacity="0.6" d="M227.674 265.982H112.604C111.277 265.96 110.006 265.448 109.034 264.545C108.062 263.642 107.458 262.412 107.337 261.091C107.262 260.47 107.322 259.841 107.511 259.246C107.7 258.65 108.014 258.102 108.433 257.639C108.852 257.175 109.365 256.807 109.938 256.558C110.512 256.31 111.131 256.188 111.756 256.199H226.826C228.151 256.222 229.42 256.735 230.389 257.638C231.359 258.541 231.96 259.771 232.076 261.091C232.153 261.71 232.097 262.339 231.91 262.934C231.723 263.53 231.41 264.078 230.992 264.542C230.574 265.006 230.062 265.375 229.49 265.623C228.917 265.872 228.298 265.994 227.674 265.982Z" fill="black"/>
<path opacity="0.7" d="M222.554 318.797H126.953C122.991 318.708 119.197 317.18 116.28 314.497C113.363 311.814 111.523 308.161 111.104 304.22L110.566 298.007C110.364 296.154 110.559 294.278 111.138 292.506C111.717 290.733 112.667 289.105 113.924 287.727C115.181 286.35 116.716 285.256 118.429 284.518C120.141 283.78 121.991 283.414 123.855 283.446H219.472C223.435 283.518 227.235 285.039 230.152 287.722C233.069 290.405 234.903 294.064 235.305 298.007L235.859 304.22C236.061 306.076 235.865 307.953 235.285 309.727C234.705 311.502 233.755 313.133 232.496 314.511C231.238 315.89 229.7 316.985 227.986 317.724C226.272 318.463 224.42 318.829 222.554 318.797Z" fill="white"/>
<path d="M168.793 387.757C168.868 388.426 168.799 389.103 168.59 389.743C168.382 390.383 168.04 390.971 167.586 391.468C167.132 391.965 166.577 392.36 165.959 392.625C165.34 392.89 164.672 393.021 164 393.007C162.572 392.979 161.203 392.43 160.152 391.463C159.101 390.496 158.439 389.178 158.293 387.757C158.221 387.089 158.292 386.413 158.501 385.774C158.711 385.135 159.053 384.548 159.506 384.051C159.96 383.555 160.513 383.161 161.13 382.894C161.748 382.628 162.414 382.496 163.086 382.506C164.516 382.531 165.886 383.079 166.938 384.047C167.99 385.015 168.65 386.335 168.793 387.757Z" fill="black"/>
<path d="M186.127 387.757C186.198 388.425 186.127 389.101 185.918 389.74C185.709 390.379 185.366 390.966 184.913 391.462C184.459 391.959 183.906 392.353 183.289 392.62C182.672 392.886 182.005 393.018 181.333 393.007C179.904 392.983 178.533 392.435 177.481 391.467C176.429 390.499 175.769 389.179 175.626 387.757C175.551 387.089 175.62 386.414 175.828 385.775C176.035 385.136 176.376 384.549 176.828 384.052C177.28 383.555 177.833 383.161 178.449 382.894C179.066 382.628 179.732 382.495 180.403 382.507C181.834 382.531 183.207 383.078 184.261 384.046C185.316 385.013 185.979 386.333 186.127 387.757Z" fill="black"/>
<path d="M203.476 387.757C203.551 388.426 203.481 389.103 203.273 389.743C203.065 390.383 202.722 390.971 202.269 391.468C201.815 391.965 201.26 392.36 200.642 392.625C200.023 392.891 199.355 393.021 198.682 393.008C197.253 392.983 195.883 392.435 194.831 391.467C193.779 390.499 193.119 389.179 192.975 387.757C192.901 387.088 192.97 386.411 193.178 385.771C193.387 385.131 193.729 384.543 194.183 384.046C194.637 383.549 195.191 383.155 195.81 382.889C196.428 382.624 197.096 382.493 197.769 382.507C199.198 382.532 200.569 383.08 201.621 384.047C202.672 385.015 203.333 386.335 203.476 387.757Z" fill="black"/>
<path d="M162.125 403.457C162.196 404.125 162.125 404.801 161.916 405.44C161.707 406.079 161.364 406.666 160.911 407.162C160.458 407.659 159.904 408.053 159.287 408.32C158.67 408.586 158.003 408.718 157.331 408.707C155.902 408.683 154.531 408.135 153.479 407.167C152.428 406.199 151.767 404.879 151.624 403.457C151.549 402.788 151.619 402.111 151.827 401.471C152.035 400.831 152.378 400.243 152.831 399.746C153.285 399.249 153.84 398.854 154.458 398.589C155.077 398.324 155.745 398.193 156.418 398.207C157.847 398.231 159.217 398.779 160.269 399.747C161.321 400.715 161.981 402.035 162.125 403.457Z" fill="black"/>
<path d="M179.441 403.461C179.513 404.129 179.442 404.805 179.232 405.444C179.023 406.083 178.681 406.67 178.227 407.166C177.774 407.662 177.221 408.057 176.603 408.323C175.986 408.59 175.319 408.722 174.647 408.711C173.22 408.679 171.854 408.129 170.803 407.162C169.753 406.196 169.091 404.88 168.94 403.461C168.869 402.792 168.94 402.116 169.149 401.477C169.358 400.839 169.701 400.251 170.154 399.755C170.607 399.259 171.161 398.864 171.778 398.598C172.395 398.332 173.062 398.199 173.734 398.21C175.163 398.235 176.534 398.783 177.585 399.751C178.637 400.718 179.298 402.038 179.441 403.461Z" fill="black"/>
<path d="M196.774 403.461C196.846 404.129 196.775 404.805 196.565 405.444C196.356 406.083 196.014 406.67 195.56 407.166C195.107 407.662 194.554 408.057 193.936 408.323C193.319 408.59 192.652 408.722 191.98 408.711C190.551 408.686 189.181 408.138 188.129 407.17C187.077 406.203 186.417 404.883 186.273 403.461C186.199 402.793 186.268 402.117 186.475 401.479C186.683 400.84 187.024 400.252 187.476 399.756C187.928 399.259 188.48 398.864 189.097 398.598C189.713 398.331 190.379 398.199 191.051 398.21C192.482 398.234 193.854 398.782 194.909 399.749C195.963 400.717 196.627 402.037 196.774 403.461Z" fill="black"/>
<path d="M214.645 403.457C214.717 404.125 214.646 404.801 214.437 405.44C214.227 406.079 213.885 406.666 213.431 407.162C212.978 407.659 212.425 408.053 211.807 408.32C211.19 408.586 210.524 408.718 209.851 408.707C208.422 408.683 207.052 408.135 206 407.167C204.948 406.199 204.288 404.879 204.144 403.457C204.07 402.788 204.139 402.111 204.347 401.471C204.556 400.831 204.898 400.243 205.352 399.746C205.806 399.249 206.36 398.854 206.979 398.589C207.597 398.324 208.265 398.193 208.938 398.207C210.367 398.231 211.738 398.779 212.79 399.747C213.842 400.715 214.502 402.035 214.645 403.457Z" fill="black"/>
<path d="M171.402 417.449C171.474 418.118 171.403 418.794 171.194 419.433C170.984 420.071 170.642 420.658 170.189 421.155C169.735 421.651 169.182 422.046 168.565 422.312C167.947 422.578 167.281 422.711 166.608 422.7C165.179 422.675 163.809 422.127 162.757 421.159C161.705 420.191 161.045 418.871 160.901 417.449C160.827 416.782 160.896 416.106 161.103 415.467C161.311 414.829 161.652 414.241 162.104 413.744C162.556 413.248 163.108 412.853 163.725 412.586C164.341 412.32 165.008 412.188 165.679 412.199C167.11 412.223 168.482 412.771 169.537 413.738C170.591 414.706 171.255 416.026 171.402 417.449Z" fill="black"/>
<path d="M188.801 417.448C188.89 418.131 188.828 418.826 188.619 419.483C188.411 420.14 188.062 420.744 187.596 421.252C187.13 421.76 186.558 422.16 185.922 422.424C185.285 422.688 184.598 422.809 183.909 422.78C182.48 422.755 181.11 422.207 180.058 421.239C179.006 420.271 178.346 418.951 178.202 417.529C178.128 416.86 178.197 416.183 178.405 415.543C178.614 414.903 178.956 414.315 179.41 413.818C179.864 413.321 180.418 412.927 181.037 412.661C181.655 412.396 182.323 412.265 182.996 412.279C184.43 412.277 185.813 412.803 186.884 413.757C187.954 414.71 188.637 416.024 188.801 417.448Z" fill="black"/>
<path d="M206.036 417.45C206.11 418.119 206.041 418.796 205.833 419.436C205.624 420.076 205.282 420.664 204.828 421.161C204.374 421.658 203.82 422.053 203.201 422.318C202.583 422.584 201.915 422.714 201.242 422.701C199.814 422.673 198.445 422.123 197.394 421.156C196.343 420.189 195.682 418.871 195.535 417.45C195.463 416.782 195.534 416.106 195.744 415.467C195.953 414.828 196.295 414.241 196.749 413.745C197.202 413.248 197.755 412.854 198.373 412.588C198.99 412.321 199.657 412.189 200.329 412.2C201.758 412.225 203.128 412.773 204.18 413.74C205.232 414.708 205.892 416.028 206.036 417.45Z" fill="black"/>
<path d="M164.717 433.151C164.789 433.82 164.718 434.496 164.509 435.134C164.299 435.773 163.957 436.36 163.503 436.857C163.05 437.353 162.497 437.748 161.879 438.014C161.262 438.28 160.595 438.412 159.923 438.402C158.496 438.37 157.13 437.819 156.079 436.853C155.029 435.887 154.367 434.571 154.216 433.151C154.142 432.482 154.211 431.804 154.42 431.163C154.628 430.522 154.97 429.933 155.423 429.435C155.877 428.937 156.431 428.541 157.05 428.273C157.668 428.006 158.337 427.873 159.01 427.884C160.441 427.913 161.811 428.465 162.863 429.435C163.914 430.406 164.574 431.727 164.717 433.151Z" fill="black"/>
<path d="M182.05 433.152C182.122 433.82 182.051 434.496 181.842 435.135C181.632 435.774 181.29 436.361 180.836 436.857C180.383 437.354 179.83 437.748 179.212 438.015C178.595 438.281 177.928 438.413 177.256 438.402C175.827 438.378 174.457 437.829 173.405 436.862C172.353 435.894 171.693 434.574 171.549 433.152C171.475 432.484 171.544 431.807 171.751 431.168C171.959 430.528 172.299 429.94 172.751 429.442C173.203 428.944 173.755 428.547 174.372 428.279C174.988 428.011 175.655 427.876 176.327 427.885C177.759 427.913 179.132 428.465 180.186 429.435C181.24 430.405 181.903 431.727 182.05 433.152Z" fill="black"/>
<path d="M199.367 433.151C199.438 433.82 199.367 434.496 199.158 435.134C198.949 435.773 198.606 436.36 198.153 436.857C197.7 437.353 197.146 437.748 196.529 438.014C195.912 438.28 195.245 438.412 194.573 438.402C193.144 438.377 191.773 437.829 190.721 436.861C189.67 435.893 189.009 434.573 188.866 433.151C188.792 432.482 188.861 431.804 189.069 431.163C189.277 430.522 189.619 429.933 190.073 429.435C190.526 428.937 191.081 428.541 191.699 428.273C192.318 428.006 192.986 427.873 193.66 427.884C195.09 427.913 196.461 428.465 197.512 429.435C198.564 430.406 199.223 431.727 199.367 433.151Z" fill="black"/>
<path d="M217.238 433.151C217.31 433.82 217.239 434.496 217.029 435.134C216.82 435.773 216.477 436.36 216.024 436.857C215.571 437.353 215.017 437.748 214.4 438.014C213.783 438.28 213.116 438.412 212.444 438.402C211.017 438.37 209.651 437.819 208.6 436.853C207.55 435.887 206.887 434.571 206.737 433.151C206.663 432.482 206.732 431.804 206.94 431.163C207.149 430.522 207.491 429.933 207.944 429.435C208.398 428.937 208.952 428.541 209.571 428.273C210.189 428.006 210.857 427.873 211.531 427.884C212.962 427.913 214.332 428.465 215.384 429.435C216.435 430.406 217.095 431.727 217.238 433.151Z" fill="black"/>
<path d="M173.995 447.14C174.07 447.809 174.001 448.486 173.792 449.126C173.584 449.766 173.242 450.354 172.788 450.851C172.334 451.348 171.779 451.743 171.161 452.008C170.542 452.274 169.874 452.404 169.201 452.391C167.772 452.366 166.402 451.818 165.35 450.85C164.298 449.882 163.638 448.562 163.494 447.14C163.42 446.471 163.489 445.794 163.698 445.154C163.906 444.514 164.248 443.926 164.702 443.429C165.156 442.932 165.711 442.537 166.329 442.272C166.947 442.007 167.615 441.876 168.288 441.89C169.717 441.914 171.088 442.462 172.14 443.43C173.192 444.398 173.852 445.718 173.995 447.14Z" fill="black"/>
<path d="M191.312 447.141C191.386 447.81 191.317 448.487 191.109 449.127C190.901 449.767 190.558 450.355 190.104 450.852C189.651 451.349 189.096 451.743 188.477 452.009C187.859 452.274 187.191 452.405 186.518 452.391C185.09 452.363 183.722 451.814 182.671 450.847C181.619 449.879 180.958 448.561 180.811 447.141C180.739 446.472 180.811 445.796 181.02 445.158C181.229 444.519 181.572 443.932 182.025 443.435C182.478 442.939 183.032 442.544 183.649 442.278C184.266 442.012 184.933 441.879 185.605 441.89C187.034 441.915 188.404 442.463 189.456 443.431C190.508 444.399 191.168 445.719 191.312 447.141Z" fill="black"/>
<path d="M208.645 447.141C208.717 447.809 208.646 448.485 208.436 449.124C208.227 449.763 207.884 450.35 207.431 450.846C206.978 451.343 206.424 451.737 205.807 452.003C205.19 452.27 204.523 452.402 203.851 452.391C202.422 452.366 201.052 451.818 200 450.851C198.948 449.883 198.288 448.563 198.144 447.141C198.07 446.473 198.139 445.798 198.346 445.159C198.553 444.52 198.894 443.933 199.346 443.436C199.798 442.939 200.351 442.544 200.968 442.278C201.584 442.011 202.25 441.879 202.922 441.89C204.353 441.915 205.725 442.462 206.78 443.43C207.834 444.397 208.498 445.717 208.645 447.141Z" fill="black"/>
<path opacity="0.6" d="M225.228 238.199H110.174C108.848 238.177 107.576 237.665 106.604 236.762C105.632 235.859 105.028 234.629 104.908 233.308C104.833 232.687 104.892 232.058 105.081 231.463C105.27 230.867 105.585 230.319 106.003 229.856C106.422 229.392 106.936 229.024 107.509 228.775C108.082 228.527 108.702 228.404 109.326 228.416H224.396C225.72 228.442 226.987 228.956 227.956 229.859C228.925 230.761 229.527 231.989 229.647 233.308C229.724 233.928 229.667 234.558 229.479 235.155C229.291 235.752 228.976 236.301 228.557 236.765C228.138 237.229 227.623 237.598 227.049 237.845C226.474 238.093 225.853 238.213 225.228 238.199Z" fill="black"/>
<path opacity="0.4" d="M197.361 348.248L198.193 357.787C198.316 359.07 198.165 360.364 197.749 361.584C197.334 362.804 196.663 363.921 195.783 364.862C194.902 365.803 193.831 366.545 192.642 367.04C191.452 367.535 190.17 367.772 188.882 367.733H169.315C166.574 367.712 163.936 366.689 161.896 364.857C159.857 363.025 158.558 360.51 158.244 357.787L157.412 348.248H197.361Z" fill="black"/>
<path d="M197.214 346.567L198.046 356.089C198.172 357.373 198.022 358.67 197.608 359.891C197.194 361.113 196.524 362.233 195.643 363.175C194.762 364.118 193.69 364.862 192.499 365.358C191.308 365.854 190.025 366.091 188.735 366.052H169.234C166.49 366.03 163.849 365.005 161.81 363.169C159.77 361.334 158.473 358.816 158.162 356.089L157.331 346.567H197.214Z" fill="#00BEF8"/>
<path d="M196.383 337.031L197.214 346.569H157.314L156.483 337.031C156.359 335.748 156.511 334.454 156.926 333.234C157.342 332.014 158.012 330.897 158.893 329.956C159.773 329.015 160.844 328.272 162.034 327.777C163.224 327.282 164.505 327.046 165.793 327.084H185.36C188.094 327.114 190.723 328.141 192.752 329.973C194.782 331.805 196.073 334.314 196.383 337.031Z" fill="#00BEF8"/>
<path opacity="0.2" d="M196.383 337.031L197.214 346.569H157.314L156.483 337.031C156.359 335.748 156.511 334.454 156.926 333.234C157.342 332.014 158.012 330.897 158.893 329.956C159.773 329.015 160.844 328.272 162.034 327.777C163.224 327.282 164.505 327.046 165.793 327.084H185.36C188.094 327.114 190.723 328.141 192.752 329.973C194.782 331.805 196.073 334.314 196.383 337.031Z" fill="black"/>
<path opacity="0.4" d="M143.552 344.725H130.263C128.041 344.682 125.911 343.831 124.272 342.33C122.633 340.829 121.598 338.782 121.36 336.572C121.251 335.533 121.365 334.482 121.692 333.49C122.02 332.498 122.554 331.586 123.26 330.816C123.966 330.045 124.827 329.433 125.787 329.02C126.747 328.607 127.783 328.402 128.828 328.419H142.117C144.34 328.459 146.472 329.309 148.112 330.811C149.752 332.312 150.786 334.361 151.02 336.572C151.129 337.612 151.016 338.662 150.688 339.654C150.361 340.647 149.826 341.558 149.12 342.329C148.415 343.1 147.553 343.712 146.593 344.125C145.634 344.538 144.597 344.742 143.552 344.725Z" fill="black"/>
<path opacity="0.4" d="M145.607 368.155H132.318C130.095 368.116 127.963 367.266 126.323 365.764C124.683 364.263 123.649 362.213 123.415 360.003C123.306 358.963 123.419 357.913 123.747 356.92C124.074 355.928 124.609 355.016 125.314 354.246C126.02 353.475 126.882 352.863 127.841 352.45C128.801 352.037 129.838 351.832 130.883 351.85H144.172C146.394 351.892 148.524 352.744 150.163 354.245C151.802 355.746 152.837 357.793 153.075 360.003C153.183 361.042 153.07 362.092 152.743 363.085C152.415 364.077 151.881 364.989 151.175 365.759C150.469 366.53 149.608 367.142 148.648 367.555C147.688 367.968 146.652 368.173 145.607 368.155Z" fill="black"/>
<path opacity="0.4" d="M226.01 368.156H212.721C210.5 368.116 208.37 367.265 206.733 365.763C205.096 364.261 204.065 362.212 203.835 360.003C203.723 358.963 203.835 357.911 204.161 356.918C204.488 355.924 205.022 355.012 205.728 354.241C206.435 353.469 207.297 352.857 208.258 352.445C209.219 352.033 210.257 351.83 211.303 351.85H224.575C226.799 351.886 228.933 352.735 230.574 354.237C232.214 355.739 233.247 357.791 233.478 360.003C233.587 361.042 233.474 362.093 233.146 363.085C232.819 364.077 232.284 364.989 231.579 365.759C230.873 366.53 230.012 367.142 229.052 367.555C228.092 367.968 227.055 368.173 226.01 368.156Z" fill="black"/>
<path opacity="0.4" d="M223.973 344.725H210.683C208.46 344.686 206.328 343.835 204.689 342.334C203.049 340.832 202.015 338.783 201.78 336.572C201.672 335.533 201.785 334.482 202.113 333.49C202.44 332.498 202.974 331.586 203.68 330.816C204.386 330.045 205.247 329.433 206.207 329.02C207.167 328.607 208.204 328.402 209.248 328.419H222.538C224.759 328.459 226.889 329.31 228.526 330.812C230.163 332.314 231.194 334.363 231.424 336.572C231.535 337.611 231.424 338.661 231.099 339.653C230.773 340.646 230.241 341.557 229.536 342.328C228.831 343.099 227.971 343.712 227.012 344.125C226.053 344.538 225.017 344.743 223.973 344.725Z" fill="black"/>
<path d="M143.438 343.453H130.1C127.879 343.413 125.749 342.562 124.112 341.06C122.475 339.558 121.444 337.509 121.213 335.3C121.102 334.26 121.213 333.208 121.54 332.215C121.866 331.221 122.401 330.309 123.107 329.537C123.813 328.766 124.676 328.154 125.637 327.742C126.598 327.33 127.636 327.127 128.681 327.147H141.954C144.178 327.183 146.312 328.032 147.953 329.534C149.593 331.036 150.626 333.087 150.857 335.3C150.965 336.335 150.853 337.381 150.529 338.37C150.204 339.359 149.674 340.268 148.974 341.038C148.273 341.808 147.418 342.421 146.464 342.837C145.51 343.253 144.479 343.463 143.438 343.453Z" fill="#00BEF8"/>
<path d="M145.493 366.981H132.22C129.996 366.945 127.862 366.096 126.221 364.594C124.581 363.092 123.548 361.04 123.317 358.828C123.208 357.789 123.321 356.738 123.649 355.746C123.976 354.754 124.511 353.842 125.216 353.072C125.922 352.301 126.784 351.689 127.743 351.276C128.703 350.863 129.74 350.658 130.785 350.675H144.074C146.295 350.715 148.425 351.566 150.062 353.068C151.699 354.57 152.73 356.619 152.961 358.828C153.072 359.868 152.96 360.92 152.634 361.913C152.307 362.907 151.773 363.819 151.067 364.59C150.361 365.362 149.498 365.974 148.537 366.386C147.576 366.798 146.538 367.001 145.493 366.981Z" fill="#00BEF8"/>
<path d="M223.858 343.452H210.569C208.346 343.413 206.214 342.562 204.575 341.061C202.935 339.559 201.901 337.51 201.666 335.299C201.558 334.26 201.671 333.21 201.998 332.217C202.326 331.225 202.86 330.313 203.566 329.543C204.272 328.772 205.133 328.16 206.093 327.747C207.053 327.334 208.09 327.129 209.134 327.147H222.424C224.645 327.189 226.776 328.041 228.414 329.542C230.053 331.043 231.089 333.09 231.327 335.299C231.435 336.339 231.322 337.389 230.994 338.382C230.667 339.374 230.133 340.285 229.427 341.056C228.721 341.827 227.86 342.439 226.9 342.852C225.94 343.265 224.903 343.469 223.858 343.452Z" fill="#00BEF8"/>
<path d="M225.913 366.981H212.624C210.402 366.938 208.272 366.087 206.633 364.586C204.994 363.085 203.958 361.038 203.721 358.828C203.612 357.789 203.725 356.738 204.053 355.746C204.38 354.754 204.915 353.842 205.62 353.072C206.326 352.301 207.188 351.689 208.147 351.276C209.107 350.863 210.144 350.658 211.189 350.675H224.478C226.701 350.715 228.833 351.565 230.473 353.067C232.112 354.568 233.147 356.617 233.381 358.828C233.489 359.868 233.376 360.918 233.049 361.91C232.721 362.903 232.187 363.814 231.481 364.585C230.775 365.355 229.914 365.967 228.954 366.381C227.994 366.794 226.958 366.998 225.913 366.981Z" fill="#00BEF8"/>
<path d="M88.0637 216.952C88.7649 221.094 86.6288 224.91 83.2861 225.48C79.9435 226.051 76.6497 223.181 75.9322 219.056C75.2148 214.93 77.3508 211.099 80.6935 210.528C84.0362 209.957 87.3463 212.827 88.0637 216.952Z" fill="#00BEF8"/>
<path opacity="0.1" d="M88.0637 216.952C88.7649 221.094 86.6288 224.91 83.2861 225.48C79.9435 226.051 76.6497 223.181 75.9322 219.056C75.2148 214.93 77.3508 211.099 80.6935 210.528C84.0362 209.957 87.3463 212.827 88.0637 216.952Z" fill="white"/>
<path d="M95.972 298.482C96.6894 302.607 94.5534 306.439 91.1944 307.01C87.8354 307.58 84.558 304.71 83.8405 300.585C83.123 296.46 85.2591 292.628 88.6181 292.057C91.9771 291.486 95.2545 294.356 95.972 298.482Z" fill="#00BEF8"/>
<path d="M95.972 298.482C96.6894 302.607 94.5534 306.439 91.1944 307.01C87.8354 307.58 84.558 304.71 83.8405 300.585C83.123 296.46 85.2591 292.628 88.6181 292.057C91.9771 291.486 95.2545 294.356 95.972 298.482Z" fill="#00BEF8"/>
<path opacity="0.1" d="M95.972 298.482C96.6894 302.607 94.5534 306.439 91.1944 307.01C87.8354 307.58 84.558 304.71 83.8405 300.585C83.123 296.46 85.2591 292.628 88.6181 292.057C91.9771 291.486 95.2545 294.356 95.972 298.482Z" fill="white"/>
<path d="M235.923 134.173L261.383 113.693L258.373 130.643L291.293 117.253L252.903 143.543L255.533 123.083L235.923 134.173Z" fill="black"/>
<path d="M243.473 220.543L272.523 241.023L266.543 224.073L301.813 237.463L258.813 211.173L265.023 231.633L243.473 220.543Z" fill="black"/>
<path d="M217.013 62.8131C216.863 62.8147 216.717 62.7697 216.594 62.6843C216.471 62.5989 216.378 62.4774 216.328 62.3367C216.277 62.196 216.272 62.043 216.312 61.899C216.352 61.755 216.437 61.6271 216.553 61.5331C219.085 59.4421 221.116 56.8108 222.499 53.8322C223.881 50.8537 224.579 47.6034 224.542 44.3199C224.504 41.0364 223.732 37.8029 222.283 34.8566C220.833 31.9104 218.742 29.326 216.163 27.2931C216.012 27.1751 215.914 27.0019 215.89 26.8115C215.867 26.6212 215.92 26.4293 216.038 26.2781C216.156 26.127 216.329 26.0289 216.519 26.0054C216.71 25.982 216.902 26.0351 217.053 26.1531C219.802 28.3182 222.032 31.0711 223.578 34.2099C225.125 37.3488 225.95 40.794 225.992 44.293C226.034 47.792 225.293 51.2561 223.822 54.4314C222.352 57.6066 220.189 60.4124 217.493 62.6431C217.428 62.7018 217.352 62.7471 217.27 62.7763C217.187 62.8055 217.1 62.818 217.013 62.8131Z" fill="black"/>
<path d="M214.873 57.703C214.731 57.7034 214.593 57.6621 214.475 57.5842C214.357 57.5064 214.264 57.3955 214.209 57.2653C214.153 57.1352 214.137 56.9916 214.163 56.8524C214.189 56.7133 214.255 56.5848 214.353 56.483C217.498 53.1864 219.236 48.7955 219.201 44.2395C219.165 39.6836 217.359 35.3203 214.163 32.073C214.033 31.9388 213.961 31.7595 213.961 31.573C213.961 31.3865 214.033 31.2072 214.163 31.073C214.297 30.9435 214.476 30.8711 214.663 30.8711C214.849 30.8711 215.029 30.9435 215.163 31.073C218.619 34.589 220.573 39.3107 220.612 44.2405C220.651 49.1704 218.772 53.9225 215.373 57.493C215.308 57.5595 215.23 57.6123 215.144 57.6484C215.058 57.6845 214.966 57.703 214.873 57.703Z" fill="black"/>
<path d="M212.733 52.5932C212.618 52.5953 212.504 52.5677 212.403 52.5132C212.315 52.47 212.237 52.4093 212.173 52.3348C212.109 52.2603 212.061 52.1736 212.032 52.08C212.003 51.9864 211.994 51.8878 212.004 51.7903C212.014 51.6929 212.045 51.5985 212.093 51.5132C213.257 49.22 213.863 46.6847 213.863 44.1132C213.863 41.5416 213.257 39.0063 212.093 36.7132C212.005 36.5434 211.989 36.3459 212.047 36.164C212.105 35.982 212.233 35.8307 212.403 35.7432C212.573 35.6556 212.77 35.6391 212.952 35.6973C213.134 35.7554 213.285 35.8834 213.373 36.0532C214.642 38.5504 215.303 41.312 215.303 44.1132C215.303 46.9144 214.642 49.676 213.373 52.1732C213.317 52.297 213.228 52.4024 213.114 52.4768C213.001 52.5512 212.868 52.5916 212.733 52.5932Z" fill="black"/>
</g>
<defs>
<clipPath id="clip0_107_6158">
<rect width="500" height="500" fill="white"/>
</clipPath>
</defs>
</svg>
