<svg width="500" height="500" viewBox="0 0 500 500" fill="none" xmlns="http://www.w3.org/2000/svg">
<g clip-path="url(#clip0_107_5959)">
<path d="M83.96 447.21L83.11 451.34C89.01 459.92 101.02 461.37 111.42 460.78C121.82 460.19 132.95 458.52 142.09 463.52C142.87 463.94 143.69 464.51 143.86 465.38C144.02 466.2 143.54 466.99 143.27 467.78C142.41 470.32 143.83 473.19 145.98 474.78C148.13 476.37 150.85 476.96 153.5 477.4C166.46 479.55 179.83 479.16 192.64 476.26C194.59 475.82 196.94 474.91 196.71 472.6C196.59 471.47 195.85 470.5 194.86 469.94L189.94 467.1C187.42 465.65 188.38 461.81 191.28 461.69C200.67 461.31 210.41 464.46 219.99 465.18C228.44 465.81 237.03 464.5 244.91 461.36C252.54 458.32 259.75 453.55 267.95 453.07C275.38 452.63 282.48 455.8 289.75 457.38C300.97 459.81 313 458.36 323.31 453.32C329.1 450.49 334.01 451.54 340.34 452.76C354.61 455.51 387.79 460.15 396.92 457.89C401.14 456.85 419.64 450.09 422.26 447.23H83.96V447.21ZM179.75 473.7C174.95 473.7 171.06 472.66 171.06 471.38C171.06 470.1 174.95 469.06 179.75 469.06C184.55 469.06 188.44 470.1 188.44 471.38C188.44 472.66 184.55 473.7 179.75 473.7ZM229.19 460.76C224.71 460.76 221.08 459.94 221.08 458.93C221.08 457.92 224.71 457.1 229.19 457.1C233.67 457.1 237.3 457.92 237.3 458.93C237.3 459.94 233.67 460.76 229.19 460.76Z" fill="#E0E0E0"/>
<path d="M9.06 226.91C16.44 211.37 35.13 202.81 52.16 205.34C69.18 207.86 83.88 220.22 91.41 235.69C99.76 230.74 110.53 230.12 119.4 234.06C128.27 238.01 135.02 246.42 136.94 255.94C141.55 253.26 147.55 253.13 152.27 255.61C156.99 258.09 160.29 263.1 160.7 268.42H11.55L9.06 226.91Z" fill="#F5F5F5"/>
<path d="M213.57 267.02C218.46 256.85 231.27 251.58 241.63 255.47C238.62 231.25 254.04 205.93 276.54 198.16C299.04 190.39 326.18 200.99 338 222.17C340.47 187.48 359.99 160.73 378.89 145.05C402.35 125.6 424.98 126.5 424.98 126.5C424.98 126.5 426.92 107.4 446.82 97C458.94 90.66 480.14 89.96 488.14 101.27V268.63L213.57 267.01V267.02Z" fill="#F5F5F5"/>
<path d="M104.23 105.45C103.45 103.37 102.66 101.27 101.35 99.4798C100.04 97.6898 98.13 96.2198 95.93 95.9498C93.73 95.6798 91.29 96.8698 90.57 98.9698C90.25 94.2398 89.58 89.3898 87.22 85.2798C84.85 81.1698 80.44 77.9498 75.71 78.2398C71.25 78.5098 67.43 81.8298 65.31 85.7598C63.19 89.6898 62.46 94.1998 61.76 98.6198C60.07 96.5498 56.5 97.1998 54.74 99.2098C52.98 101.22 52.53 104.03 52.15 106.68H105.37L104.24 105.45H104.23Z" fill="#EBEBEB"/>
<path d="M323.73 148.44C321.56 142.64 319.34 136.77 315.69 131.77C312.04 126.77 306.7 122.68 300.56 121.93C294.42 121.18 287.61 124.49 285.61 130.35C284.73 117.15 282.86 103.61 276.25 92.1499C269.64 80.6899 257.32 71.6899 244.12 72.4999C231.67 73.2599 221.01 82.5099 215.09 93.4799C209.17 104.46 207.14 117.04 205.19 129.36C200.47 123.57 190.51 125.39 185.58 131.01C180.66 136.63 179.41 144.48 178.36 151.87L325.43 153.4L323.72 148.43L323.73 148.44Z" fill="#F5F5F5"/>
<path d="M421.24 189.65C420.68 188.16 420.11 186.66 419.18 185.37C418.24 184.09 416.87 183.04 415.3 182.84C413.72 182.65 411.98 183.5 411.46 185C411.23 181.61 410.75 178.14 409.06 175.2C407.37 172.26 404.2 169.95 400.82 170.16C397.63 170.36 394.89 172.73 393.37 175.54C391.85 178.36 391.33 181.59 390.83 184.75C389.62 183.26 387.06 183.73 385.8 185.17C384.54 186.61 384.22 188.62 383.95 190.52L421.68 190.91L421.24 189.64V189.65Z" fill="#EBEBEB"/>
<path d="M168.88 66.2599C168.41 65.0199 167.94 63.7599 167.16 62.6899C166.38 61.6199 165.23 60.7399 163.92 60.5799C162.6 60.4199 161.15 61.1299 160.72 62.3799C160.53 59.5499 160.13 56.6499 158.72 54.1999C157.3 51.7499 154.66 49.8199 151.84 49.9899C149.17 50.1499 146.89 52.1299 145.62 54.4799C144.35 56.8299 143.92 59.5299 143.5 62.1699C142.49 60.9299 140.35 61.3199 139.3 62.5199C138.25 63.7199 137.98 65.3999 137.75 66.9899L169.26 67.3199L168.89 66.2599H168.88Z" fill="#F5F5F5"/>
<path d="M158.34 184.91C157.44 182.5 156.52 180.06 155 177.98C153.48 175.9 151.27 174.2 148.71 173.89C146.16 173.58 143.33 174.96 142.5 177.39C142.13 171.91 141.36 166.28 138.61 161.52C135.87 156.76 130.74 153.02 125.26 153.36C120.09 153.68 115.66 157.52 113.2 162.08C110.74 166.64 109.9 171.87 109.09 176.99C107.13 174.58 102.99 175.34 100.94 177.67C98.89 180 98.38 183.26 97.94 186.34L159.04 186.98L158.33 184.92L158.34 184.91Z" fill="#F5F5F5"/>
<path d="M467.46 268.43C467.46 268.57 370.09 268.69 250.01 268.69C129.93 268.69 32.54 268.57 32.54 268.43C32.54 268.29 129.89 268.17 250.01 268.17C370.13 268.17 467.46 268.29 467.46 268.43Z" fill="#263238"/>
<path d="M410.89 292.15C410.89 292.29 343.31 292.41 259.96 292.41C176.61 292.41 109.01 292.29 109.01 292.15C109.01 292.01 176.58 291.89 259.96 291.89C343.34 291.89 410.89 292.01 410.89 292.15Z" fill="#263238"/>
<path d="M261.98 298.83C261.98 298.97 222.36 299.09 173.5 299.09C124.64 299.09 85.01 298.97 85.01 298.83C85.01 298.69 124.62 298.57 173.5 298.57C222.38 298.57 261.98 298.69 261.98 298.83Z" fill="#263238"/>
<path d="M348.79 309.41C348.79 309.55 321.29 309.67 287.37 309.67C253.45 309.67 225.94 309.55 225.94 309.41C225.94 309.27 253.44 309.15 287.37 309.15C321.3 309.15 348.79 309.27 348.79 309.41Z" fill="#263238"/>
<path d="M324.76 465.72C324.76 465.86 307.56 465.98 286.35 465.98C265.14 465.98 247.93 465.86 247.93 465.72C247.93 465.58 265.13 465.46 286.35 465.46C307.57 465.46 324.76 465.58 324.76 465.72Z" fill="#263238"/>
<path d="M149.09 454.27C149.09 454.41 131.89 454.53 110.68 454.53C89.47 454.53 72.26 454.41 72.26 454.27C72.26 454.13 89.46 454.01 110.68 454.01C131.9 454.01 149.09 454.13 149.09 454.27Z" fill="#FF725E"/>
<path d="M402.82 451.3C402.82 451.44 395.08 451.56 385.53 451.56C375.98 451.56 368.24 451.44 368.24 451.3C368.24 451.16 375.98 451.04 385.53 451.04C395.08 451.04 402.82 451.16 402.82 451.3Z" fill="#FF725E"/>
<path d="M266.69 472.16C266.69 472.3 260.92 472.42 253.81 472.42C246.7 472.42 240.93 472.3 240.93 472.16C240.93 472.02 246.7 471.9 253.81 471.9C260.92 471.9 266.69 472.02 266.69 472.16Z" fill="#263238"/>
<path d="M387.908 102.14C399.628 90.4206 399.628 71.4193 387.908 59.6996C376.189 47.98 357.187 47.98 345.468 59.6996C333.748 71.4193 333.748 90.4206 345.468 102.14C357.187 113.86 376.189 113.86 387.908 102.14Z" fill="#FFD808"/>
<path opacity="0.9" d="M387.908 102.14C399.628 90.4206 399.628 71.4193 387.908 59.6996C376.189 47.98 357.187 47.98 345.468 59.6996C333.748 71.4193 333.748 90.4206 345.468 102.14C357.187 113.86 376.189 113.86 387.908 102.14Z" fill="white"/>
<path d="M369.937 107.496C384.607 105.703 395.045 92.3567 393.252 77.6867C391.458 63.0168 378.112 52.5784 363.442 54.3718C348.772 56.1653 338.334 69.5115 340.127 84.1814C341.921 98.8513 355.267 109.29 369.937 107.496Z" fill="#FFD808"/>
<path opacity="0.6" d="M369.937 107.496C384.607 105.703 395.045 92.3567 393.252 77.6867C391.458 63.0168 378.112 52.5784 363.442 54.3718C348.772 56.1653 338.334 69.5115 340.127 84.1814C341.921 98.8513 355.267 109.29 369.937 107.496Z" fill="white"/>
<path d="M370.233 102.926C382.376 100.97 390.634 89.5404 388.679 77.3975C386.723 65.2547 375.293 56.9964 363.151 58.9523C351.008 60.9081 342.749 72.3374 344.705 84.4803C346.661 96.6231 358.09 104.881 370.233 102.926Z" fill="#FFD808"/>
<path opacity="0.3" d="M370.233 102.926C382.376 100.97 390.634 89.5404 388.679 77.3975C386.723 65.2547 375.293 56.9964 363.151 58.9523C351.008 60.9081 342.749 72.3374 344.705 84.4803C346.661 96.6231 358.09 104.881 370.233 102.926Z" fill="white"/>
<path fill-rule="evenodd" clip-rule="evenodd" d="M384.52 80.9198C384.52 90.7698 376.54 98.7498 366.69 98.7498C356.84 98.7498 348.86 90.7698 348.86 80.9198C348.86 71.0698 356.84 63.0898 366.69 63.0898C376.54 63.0898 384.52 71.0698 384.52 80.9198Z" fill="#FFD808"/>
<path d="M116.94 135C116.94 135 116.31 134.78 115.14 134.52C113.98 134.26 112.23 134.04 110.12 134.33C108.02 134.61 105.53 135.45 103.36 137.25C101.19 139.01 99.33 141.67 98.59 144.83L98.57 144.91L98.43 145.45L98.22 144.94C97 141.94 94.85 139.55 92.5 138.04C90.15 136.5 87.63 135.86 85.52 135.71C83.4 135.56 81.68 135.87 80.53 136.17C79.38 136.47 78.77 136.74 78.76 136.71C78.76 136.7 78.9 136.63 79.19 136.5C79.48 136.37 79.92 136.21 80.49 136.04C81.64 135.7 83.37 135.35 85.53 135.46C87.67 135.57 90.26 136.2 92.68 137.76C95.09 139.3 97.31 141.73 98.55 144.81L98.2 144.84L98.22 144.75C98.98 141.5 100.9 138.78 103.14 136.99C105.38 135.17 107.94 134.33 110.08 134.08C112.24 133.82 114 134.09 115.17 134.39C115.76 134.54 116.2 134.69 116.49 134.81C116.78 134.93 116.94 134.99 116.93 135.01L116.94 135Z" fill="#263238"/>
<path d="M167.13 110.23C167.13 110.23 166.78 110.13 166.13 110C165.49 109.87 164.54 109.76 163.38 109.92C162.23 110.08 160.88 110.55 159.7 111.53C158.52 112.49 157.51 113.94 157.11 115.66V115.71L156.96 116.25L156.75 115.74C156.09 114.11 154.91 112.81 153.64 111.98C152.36 111.14 150.99 110.78 149.84 110.69C148.68 110.6 147.74 110.76 147.11 110.91C146.48 111.07 146.14 111.2 146.13 111.17C146.13 111.16 146.2 111.11 146.36 111.04C146.52 110.96 146.76 110.87 147.07 110.77C147.7 110.57 148.66 110.37 149.86 110.43C151.05 110.49 152.49 110.83 153.83 111.69C155.17 112.54 156.4 113.89 157.1 115.6L156.75 115.63V115.58C157.19 113.77 158.25 112.26 159.5 111.27C160.75 110.26 162.17 109.8 163.36 109.67C164.56 109.53 165.53 109.69 166.17 109.87C166.49 109.96 166.74 110.04 166.9 110.12C167.06 110.19 167.14 110.23 167.14 110.24L167.13 110.23Z" fill="#263238"/>
<path d="M134.32 98.9598C134.32 98.9598 133.98 99.3498 133.36 100.05C132.74 100.75 131.89 101.81 131 103.23C129.22 106.03 127.44 110.49 127.5 115.61V115.77L127.14 115.8C126.76 113.3 125.93 111.01 124.88 109.1C123.83 107.18 122.6 105.62 121.43 104.45C120.27 103.27 119.21 102.44 118.44 101.92C117.68 101.39 117.24 101.13 117.25 101.1C117.25 101.09 117.37 101.15 117.59 101.26C117.8 101.38 118.13 101.54 118.52 101.8C119.31 102.29 120.41 103.1 121.61 104.27C122.81 105.44 124.08 107 125.17 108.94C126.26 110.88 127.11 113.21 127.5 115.75L127.14 115.78V115.62C127.08 110.41 128.93 105.89 130.79 103.1C131.71 101.68 132.6 100.64 133.26 99.9598C133.58 99.6098 133.86 99.3798 134.04 99.1998C134.22 99.0298 134.32 98.9498 134.33 98.9598H134.32Z" fill="#263238"/>
<path d="M370.615 353.068C370.745 353.118 370.175 354.988 369.175 357.178C368.175 359.368 367.145 361.028 367.025 360.958C366.895 360.888 367.715 359.128 368.705 356.958C369.695 354.788 370.485 353.018 370.615 353.068Z" fill="#263238"/>
<path d="M378.105 389.028V388.528L377.625 388.418C377.665 388.168 377.655 386.138 377.625 383.258C377.625 383.008 377.725 382.768 377.915 382.578C378.215 382.268 378.735 382.088 379.305 382.088H438.285V383.088H379.305C378.885 383.088 378.645 383.238 378.615 383.298C378.695 388.658 378.665 388.688 378.475 388.878L378.325 389.028H378.115H378.105Z" fill="#455A64"/>
<path d="M384.565 382.588H383.565V388.568H384.565V382.588Z" fill="#455A64"/>
<path d="M390.975 382.588H389.975V388.568H390.975V382.588Z" fill="#455A64"/>
<path d="M397.375 382.588H396.375V388.568H397.375V382.588Z" fill="#455A64"/>
<path d="M403.785 382.588H402.785V388.568H403.785V382.588Z" fill="#455A64"/>
<path d="M410.195 382.588H409.195V388.568H410.195V382.588Z" fill="#455A64"/>
<path d="M416.595 382.588H415.595V388.568H416.595V382.588Z" fill="#455A64"/>
<path d="M423.005 382.588H422.005V388.568H423.005V382.588Z" fill="#455A64"/>
<path d="M429.405 382.588H428.405V388.568H429.405V382.588Z" fill="#455A64"/>
<path d="M351.915 395.038C351.785 394.978 354.785 387.758 358.625 378.908C362.465 370.058 365.685 362.928 365.815 362.978C365.945 363.038 362.945 370.258 359.105 379.108C355.265 387.958 352.045 395.088 351.915 395.038Z" fill="#263238"/>
<path d="M372.395 393.128L375.775 388.508H430.055L440.285 374.518C441.285 373.148 442.875 372.338 444.575 372.338H496.545L511.865 395.978L372.405 393.138L372.395 393.128Z" fill="#E0E0E0"/>
<path d="M499.025 376.178L463.375 376.438L461.675 390.758H508.525L499.025 376.178Z" fill="#455A64"/>
<g opacity="0.3">
<path d="M490.795 376.238L464.535 390.758H472.295L497.395 376.198L490.795 376.238Z" fill="white"/>
</g>
<g opacity="0.3">
<path d="M499.425 376.798L477.115 390.758H479.945L500.215 378.008L499.425 376.798Z" fill="white"/>
</g>
<g opacity="0.3">
<path d="M497.235 373.418V394.658H500.755L500.505 378.498L497.235 373.418Z" fill="black"/>
</g>
<path d="M499.495 360.918H491.585L490.135 362.868L499.495 373.418V360.918Z" fill="#E0E0E0"/>
<path d="M499.495 360.918C499.495 360.918 499.535 361.208 499.555 361.788C499.575 362.468 499.595 363.328 499.625 364.348C499.675 366.558 499.725 369.718 499.745 373.408V374.058L499.315 373.568C498.085 372.188 496.745 370.678 495.345 369.118C493.415 366.928 491.595 364.868 489.965 363.018L489.835 362.878L489.945 362.728C490.455 362.048 490.945 361.408 491.415 360.788L491.485 360.698H491.595C494.035 360.718 496.035 360.768 497.405 360.808C498.775 360.848 499.525 360.878 499.495 360.908C499.475 360.928 499.265 360.938 498.895 360.958C498.445 360.978 497.915 360.988 497.275 361.008C495.885 361.048 493.945 361.098 491.595 361.118L491.765 361.028C491.305 361.648 490.835 362.308 490.335 362.988V362.698C491.965 364.538 493.795 366.588 495.735 368.768C497.125 370.338 498.455 371.848 499.685 373.238L499.255 373.398C499.275 369.808 499.325 366.718 499.375 364.498C499.405 363.448 499.425 362.578 499.445 361.878C499.465 361.258 499.485 360.918 499.505 360.898L499.495 360.918Z" fill="#263238"/>
<path d="M361.855 379.978C382.715 383.658 404.085 384.338 425.135 381.928C431.075 381.248 436.985 380.318 442.845 379.168C443.635 379.008 443.295 377.808 442.515 377.958C421.995 382.008 400.925 383.098 380.095 381.178C374.095 380.628 368.125 379.818 362.185 378.768C361.395 378.628 361.065 379.838 361.855 379.978Z" fill="#AE7461"/>
<path d="M367.025 388.868C386.435 392.578 406.385 393.288 426.005 390.878C431.465 390.208 436.905 389.298 442.285 388.158C443.075 387.988 442.735 386.788 441.955 386.948C422.885 390.968 403.235 392.028 383.835 390.068C378.305 389.508 372.805 388.698 367.355 387.648C366.565 387.498 366.235 388.698 367.025 388.858V388.868Z" fill="#AE7461"/>
<path d="M442.985 379.408C463.185 383.018 483.795 383.418 504.145 380.828C509.865 380.098 515.545 379.158 521.205 378.028C521.995 377.868 521.655 376.668 520.875 376.818C501.115 380.758 480.915 382.298 460.825 380.538C454.955 380.028 449.125 379.238 443.325 378.198C442.535 378.058 442.205 379.258 442.995 379.408H442.985Z" fill="#AE7461"/>
<path d="M443.175 388.888C463.425 392.758 484.395 393.298 504.855 390.878C510.465 390.218 516.035 389.318 521.555 388.158C522.345 387.988 522.005 386.788 521.225 386.948C501.315 391.148 480.615 392.048 460.375 390.088C454.715 389.538 449.085 388.738 443.505 387.678C442.715 387.528 442.385 388.728 443.175 388.888Z" fill="#AE7461"/>
<g opacity="0.3">
<path d="M440.365 394.658C439.955 394.658 439.625 394.328 439.625 393.918V378.168C439.625 377.758 439.955 377.428 440.365 377.428C440.775 377.428 441.105 377.758 441.105 378.168V393.918C441.105 394.328 440.775 394.658 440.365 394.658Z" fill="black"/>
</g>
<path d="M441.105 376.878V396.168C441.105 397.488 443.145 397.488 443.145 396.168V376.878C443.145 375.558 441.105 375.558 441.105 376.878Z" fill="#E0E0E0"/>
<path d="M441.105 376.878C441.105 376.878 441.045 376.718 441.155 376.408C441.255 376.118 441.685 375.718 442.315 375.798C442.615 375.828 442.965 376.008 443.155 376.358C443.345 376.738 443.265 377.128 443.295 377.528C443.305 378.348 443.315 379.268 443.335 380.268C443.385 384.338 443.415 389.958 443.415 396.158C443.435 396.628 443.115 397.148 442.655 397.308C442.215 397.478 441.705 397.428 441.315 397.138C440.895 396.868 440.825 396.248 440.855 395.918C440.855 395.548 440.855 395.178 440.855 394.808C440.855 393.348 440.865 391.938 440.875 390.588C440.895 387.918 440.915 385.508 440.935 383.448C440.965 381.478 440.995 379.858 441.015 378.628C441.045 377.488 441.085 376.858 441.115 376.858C441.145 376.858 441.185 377.488 441.215 378.628C441.235 379.848 441.265 381.478 441.295 383.448C441.315 385.508 441.325 387.928 441.355 390.588C441.355 391.938 441.355 393.348 441.375 394.808C441.375 395.178 441.375 395.538 441.375 395.918C441.365 396.318 441.405 396.538 441.635 396.728C441.855 396.898 442.195 396.938 442.465 396.828C442.745 396.718 442.895 396.468 442.895 396.168C442.895 389.958 442.925 384.348 442.975 380.278C442.985 379.278 443.005 378.358 443.015 377.538C443.015 377.128 443.075 376.738 442.945 376.478C442.815 376.208 442.555 376.048 442.295 376.008C441.765 375.918 441.375 376.218 441.255 376.458C441.125 376.718 441.145 376.878 441.115 376.878H441.105Z" fill="#263238"/>
<path d="M344.335 395.888C344.335 395.888 353.675 417.028 370.025 432.188C378.455 439.998 389.585 444.218 401.075 444.218L588.245 444.198C597.965 444.498 607.615 441.888 615.635 436.388C619.105 434.008 622.425 430.998 624.955 427.248C633.945 413.888 653.735 388.188 654.765 387.928C655.795 387.668 540.405 398.978 455.345 397.178C389.315 395.778 344.325 395.888 344.325 395.888H344.335Z" fill="#E0E0E0"/>
<path d="M365.535 384.848H346.985V386.618H365.535V384.848Z" fill="#E0E0E0"/>
<path d="M365.535 386.618C365.535 386.618 365.505 386.438 365.485 386.138C365.465 385.778 365.445 385.358 365.425 384.858L365.535 384.968C362.405 385.058 355.275 385.118 346.985 385.118C347.505 384.598 347.125 384.978 347.245 384.858V385.758C347.245 386.058 347.245 386.348 347.245 386.628L346.985 386.368C352.135 386.368 356.725 386.428 360.075 386.478L364.045 386.558C364.985 386.578 365.515 386.608 365.545 386.628C365.565 386.648 365.085 386.678 364.175 386.698C363.165 386.718 361.855 386.748 360.265 386.778C356.935 386.828 352.245 386.888 346.985 386.888H346.725V386.628C346.725 386.348 346.725 386.058 346.725 385.758V384.888V384.868C346.845 384.748 346.465 385.118 346.985 384.598C355.275 384.598 362.405 384.658 365.535 384.748H365.645V384.858C365.625 385.458 365.605 385.908 365.585 386.208C365.565 386.498 365.555 386.648 365.535 386.628V386.618Z" fill="#263238"/>
<path d="M370.235 396.148L359.535 375.928C359.255 375.398 358.705 375.068 358.105 375.068H349.495C348.605 375.068 347.875 375.798 347.875 376.688V395.638H346.105V376.688C346.105 374.818 347.625 373.298 349.495 373.298H358.105C359.365 373.298 360.515 373.988 361.105 375.108L371.805 395.328L370.245 396.158L370.235 396.148Z" fill="#E0E0E0"/>
<path d="M370.235 396.148C370.235 396.148 370.365 396.058 370.615 395.918C370.895 395.758 371.265 395.548 371.765 395.268L371.735 395.348C370.265 392.698 366.795 386.248 362.065 377.378C361.765 376.828 361.465 376.258 361.165 375.688C360.865 375.098 360.565 374.568 360.055 374.188C359.565 373.798 358.945 373.558 358.305 373.518C357.625 373.518 356.925 373.518 356.225 373.518C354.815 373.518 353.365 373.518 351.885 373.518C351.145 373.518 350.395 373.518 349.635 373.518C348.905 373.498 348.205 373.698 347.625 374.138C347.045 374.558 346.615 375.188 346.435 375.898C346.265 376.588 346.365 377.418 346.335 378.208C346.335 379.808 346.335 381.438 346.335 383.088C346.335 386.398 346.335 389.788 346.335 393.258C346.335 394.058 346.335 394.868 346.335 395.608L346.075 395.348C346.705 395.348 347.285 395.348 347.845 395.348L347.585 395.608C347.585 391.778 347.585 388.048 347.585 384.458C347.585 382.658 347.585 380.898 347.585 379.178C347.585 378.318 347.585 377.458 347.585 376.618C347.585 375.628 348.465 374.778 349.425 374.798C351.065 374.798 352.665 374.798 354.225 374.808C355.005 374.808 355.765 374.808 356.515 374.808C356.895 374.808 357.265 374.808 357.635 374.808C357.985 374.808 358.425 374.788 358.805 374.968C359.185 375.138 359.495 375.428 359.675 375.788C359.835 376.098 360.005 376.418 360.165 376.718C360.485 377.338 360.805 377.938 361.115 378.538C361.735 379.728 362.325 380.868 362.895 381.948C365.145 386.288 366.965 389.808 368.245 392.268C368.865 393.468 369.345 394.418 369.695 395.098C369.845 395.408 369.975 395.648 370.065 395.848C370.145 396.018 370.185 396.108 370.185 396.118C370.185 396.118 370.135 396.048 370.045 395.898C369.945 395.718 369.815 395.488 369.655 395.198C369.295 394.538 368.795 393.618 368.155 392.458C366.835 390.008 364.955 386.518 362.625 382.198C362.035 381.108 361.425 379.958 360.785 378.768C360.465 378.168 360.135 377.558 359.805 376.938L359.305 375.998C359.155 375.718 358.915 375.498 358.625 375.368C358.335 375.228 358.015 375.248 357.625 375.248C357.255 375.248 356.885 375.248 356.505 375.248C355.755 375.248 354.985 375.248 354.215 375.248C352.665 375.248 351.065 375.248 349.425 375.258C348.715 375.248 348.055 375.888 348.065 376.618C348.065 377.458 348.065 378.308 348.065 379.168C348.065 380.888 348.065 382.648 348.065 384.448C348.065 388.038 348.065 391.768 348.065 395.598V395.858H347.805C347.245 395.858 346.665 395.858 346.035 395.858H345.775V395.598C345.775 394.858 345.775 394.048 345.775 393.248C345.775 389.778 345.775 386.378 345.775 383.078C345.775 381.428 345.775 379.798 345.775 378.198C345.775 377.798 345.775 377.398 345.775 376.998C345.775 376.618 345.775 376.168 345.895 375.758C346.095 374.938 346.605 374.208 347.275 373.718C347.935 373.218 348.785 372.988 349.575 373.018C350.335 373.018 351.085 373.018 351.825 373.018C353.305 373.018 354.755 373.018 356.165 373.018C356.875 373.018 357.575 373.018 358.275 373.028C359.005 373.078 359.705 373.358 360.265 373.798C360.835 374.228 361.205 374.888 361.475 375.448C361.775 376.018 362.075 376.588 362.365 377.148C367.035 386.048 370.415 392.548 371.775 395.248L371.805 395.308L371.755 395.338C371.235 395.598 370.835 395.798 370.545 395.938C370.285 396.068 370.165 396.118 370.165 396.108L370.235 396.148Z" fill="#263238"/>
<path d="M365.705 363.548C365.115 363.718 365.325 363.588 365.605 363.588C365.845 363.588 366.075 363.578 366.315 363.578C367.185 363.568 368.045 363.558 368.915 363.548C372.005 363.528 375.085 363.518 378.175 363.518C388.185 363.498 398.205 363.498 408.215 363.508C420.215 363.508 432.225 363.528 444.225 363.538C454.575 363.548 464.925 363.568 475.275 363.588C480.295 363.588 485.335 363.768 490.345 363.618C490.415 363.618 490.485 363.618 490.555 363.618C492.525 363.618 492.535 360.558 490.555 360.548C486.405 360.548 482.245 360.528 478.095 360.528C468.155 360.508 458.205 360.498 448.265 360.478C436.235 360.458 424.195 360.448 412.165 360.438C401.745 360.438 391.315 360.438 380.895 360.438C377.435 360.438 373.975 360.448 370.515 360.468C368.865 360.468 367.195 360.428 365.545 360.518C365.325 360.528 365.105 360.528 364.895 360.588C362.995 361.118 363.805 364.078 365.715 363.548H365.705Z" fill="#E0E0E0"/>
<path d="M365.705 363.548C365.705 363.548 365.485 363.658 365.035 363.618C364.595 363.578 363.895 363.128 363.775 362.208C363.715 361.768 363.835 361.218 364.265 360.838C364.705 360.458 365.355 360.438 365.975 360.428C367.245 360.408 368.715 360.388 370.365 360.358C376.985 360.328 386.525 360.288 398.315 360.238C421.935 360.238 454.525 360.248 490.535 360.258C491.165 360.228 491.885 360.618 492.125 361.238C492.395 361.828 492.355 362.538 492.005 363.098C491.835 363.388 491.545 363.598 491.245 363.718C490.945 363.848 490.575 363.848 490.335 363.848L488.665 363.888C486.435 363.928 484.225 363.908 482.035 363.888C477.645 363.818 473.335 363.818 469.085 363.808C460.595 363.788 452.405 363.778 444.605 363.758C429.005 363.728 414.955 363.698 403.145 363.668C391.355 363.638 381.815 363.618 375.195 363.608C371.905 363.608 369.355 363.598 367.595 363.598C366.735 363.598 366.085 363.598 365.615 363.598C365.515 363.578 365.395 363.648 365.345 363.598C365.415 363.598 365.495 363.578 365.545 363.568C365.655 363.548 365.715 363.538 365.715 363.538C365.715 363.538 365.665 363.558 365.555 363.598C365.495 363.608 365.435 363.638 365.345 363.648C365.395 363.538 365.515 363.578 365.625 363.558C366.085 363.548 366.745 363.528 367.605 363.508C369.365 363.488 371.915 363.458 375.205 363.428C381.825 363.408 391.365 363.368 403.155 363.328C414.965 363.328 429.015 363.308 444.615 363.308C452.415 363.308 460.605 363.318 469.095 363.328C473.335 363.328 477.665 363.328 482.045 363.398C484.235 363.418 486.445 363.438 488.665 363.398L490.335 363.358C490.895 363.378 491.325 363.248 491.585 362.838C491.835 362.458 491.875 361.898 491.665 361.478C491.485 361.038 491.035 360.798 490.545 360.798C454.545 360.728 421.945 360.668 398.335 360.618C386.545 360.598 377.005 360.578 370.385 360.568C368.735 360.568 367.275 360.588 366.005 360.588C365.375 360.588 364.775 360.608 364.365 360.938C363.975 361.278 363.845 361.778 363.895 362.198C363.995 363.068 364.645 363.508 365.065 363.568C365.505 363.628 365.725 363.518 365.725 363.548H365.705Z" fill="#263238"/>
<path d="M499.225 360.918C499.115 361.048 496.935 359.268 494.495 356.818C493.365 355.688 492.335 354.668 491.375 353.698C490.585 352.898 490.085 352.408 490.135 352.348C490.245 352.218 492.425 353.998 494.865 356.448C495.995 357.578 497.015 358.598 497.985 359.568C498.775 360.368 499.275 360.858 499.225 360.918Z" fill="#263238"/>
<path d="M499.225 29.7884C499.365 29.8284 498.375 33.9284 497.015 38.9484C495.655 43.9684 494.435 48.0084 494.305 47.9684C494.175 47.9284 495.155 43.8284 496.515 38.8084C497.875 33.7884 499.095 29.7484 499.225 29.7884Z" fill="#263238"/>
<path d="M499.225 25.4983V397.088C499.225 399.058 502.295 399.068 502.295 397.088V25.4983C502.295 23.5283 499.225 23.5183 499.225 25.4983Z" fill="#E0E0E0"/>
<path d="M499.225 25.4982C499.225 25.4982 499.225 25.4582 499.225 25.3782C499.235 25.2982 499.225 25.1682 499.285 25.0182C499.365 24.7182 499.655 24.2182 500.305 24.0582C500.615 23.9782 501.005 23.9682 501.385 24.1082C501.765 24.2482 502.135 24.5782 502.265 25.0582C502.375 25.5382 502.315 26.0482 502.335 26.6082C502.335 27.1582 502.335 27.7482 502.335 28.3782C502.345 33.3982 502.365 40.7882 502.385 50.3082C502.405 69.3582 502.435 96.9182 502.465 130.968C502.485 199.078 502.515 293.158 502.545 397.078C502.545 397.528 502.375 398.038 502.015 398.368C501.655 398.698 501.175 398.848 500.715 398.838C500.255 398.838 499.775 398.658 499.435 398.318C499.085 397.978 498.945 397.468 498.955 397.028C498.955 395.408 498.955 393.788 498.955 392.178C498.955 388.948 498.955 385.728 498.955 382.518C498.955 376.098 498.955 369.728 498.955 363.398C498.955 350.748 498.955 338.278 498.955 326.028C498.955 301.528 498.965 277.888 498.975 255.378C498.995 210.348 499.015 169.798 499.035 135.748C499.065 101.698 499.095 74.1482 499.115 55.0982C499.135 45.5782 499.155 38.1882 499.165 33.1682C499.175 30.6682 499.185 28.7582 499.195 27.4682C499.195 26.1882 499.225 25.5282 499.225 25.5282C499.225 25.5282 499.245 26.1882 499.255 27.4682C499.255 28.7582 499.265 30.6682 499.285 33.1682C499.295 38.1882 499.315 45.5782 499.335 55.0982C499.355 74.1482 499.385 101.698 499.415 135.748C499.435 169.808 499.445 210.358 499.475 255.378C499.475 277.898 499.475 301.528 499.495 326.028C499.495 338.278 499.495 350.748 499.495 363.398C499.495 369.728 499.495 376.098 499.495 382.518V397.028C499.445 397.768 500.025 398.318 500.745 398.318C501.465 398.358 502.075 397.798 502.045 397.078C502.075 293.168 502.105 199.088 502.125 130.968C502.155 96.9182 502.185 69.3582 502.205 50.3082C502.225 40.7882 502.245 33.3982 502.255 28.3782C502.255 27.7482 502.255 27.1582 502.255 26.6082C502.235 26.0582 502.305 25.5282 502.205 25.0782C502.085 24.6282 501.745 24.3082 501.385 24.1682C501.025 24.0282 500.645 24.0282 500.345 24.1082C499.715 24.2582 499.415 24.7282 499.335 25.0282C499.245 25.3382 499.265 25.5082 499.245 25.5082L499.225 25.4982Z" fill="#263238"/>
<path d="M649.735 388.138C649.735 388.138 649.585 387.828 649.325 387.218C649.055 386.598 648.665 385.688 648.165 384.508C647.145 382.108 645.655 378.598 643.735 374.068C639.905 364.988 634.385 351.858 627.555 335.648C613.945 303.178 595.145 258.328 574.375 208.808C553.705 159.218 534.985 114.338 521.445 81.8381C514.735 65.5781 509.305 52.4181 505.545 43.3081C503.705 38.7581 502.265 35.2181 501.295 32.7981C500.825 31.5881 500.455 30.6781 500.225 30.0481C500.005 29.4181 499.905 29.0981 499.905 29.0981C499.905 29.0981 500.045 29.4181 500.275 30.0281C500.535 30.6581 500.905 31.5681 501.395 32.7581C502.395 35.1581 503.855 38.6881 505.735 43.2281C509.535 52.3181 515.015 65.4581 521.795 81.6981C535.385 114.188 554.145 159.048 574.875 208.608C595.585 258.158 614.335 303.018 627.905 335.508C634.675 351.748 640.145 364.898 643.935 373.988C645.815 378.528 647.275 382.058 648.275 384.458C648.765 385.648 649.135 386.558 649.395 387.188C649.645 387.808 649.755 388.128 649.755 388.128L649.735 388.138Z" fill="#263238"/>
<path d="M411.485 411.958H393.995C391.975 411.958 390.335 410.318 390.335 408.298C390.335 406.278 391.975 404.638 393.995 404.638H411.485C413.505 404.638 415.145 406.278 415.145 408.298C415.145 410.318 413.505 411.958 411.485 411.958Z" fill="#455A64"/>
<g opacity="0.3">
<path d="M394.505 411.958L406.185 404.638H411.805C412.145 404.658 412.465 404.728 412.755 404.828L401.685 411.968H394.505V411.958Z" fill="white"/>
</g>
<g opacity="0.3">
<path d="M404.485 411.958L413.925 405.478C414.155 405.678 414.365 405.908 414.545 406.168L405.825 411.958H404.485Z" fill="white"/>
</g>
<path d="M655.525 389.978C655.525 389.978 656.105 389.738 656.125 389.728C656.875 389.368 657.395 388.388 657.365 387.568C657.315 386.468 656.625 385.448 655.525 385.158C654.715 384.938 653.745 385.158 652.925 385.218C651.055 385.378 649.175 385.548 647.305 385.708C640.405 386.308 633.495 386.878 626.585 387.428C604.005 389.228 581.405 390.768 558.795 391.978C531.205 393.458 503.565 394.478 475.935 394.518C460.815 394.538 445.695 394.108 430.575 393.848C416.465 393.608 402.365 393.408 388.255 393.268C373.845 393.128 359.405 392.808 344.985 393.038C344.795 393.038 344.605 393.038 344.415 393.038C341.195 393.038 341.195 398.048 344.415 398.038C356.105 398.008 367.805 398.098 379.495 398.188C408.345 398.428 437.195 399.228 466.035 399.478C493.525 399.718 521.025 398.848 548.485 397.508C572.195 396.348 595.885 394.808 619.555 392.988C627.345 392.388 635.135 391.758 642.925 391.088C646.715 390.768 650.535 390.558 654.305 390.108C654.825 390.048 655.175 390.248 654.195 389.988C653.585 389.188 652.975 388.378 652.355 387.578C652.765 386.858 653.185 386.138 653.595 385.418C653.795 385.338 653.985 385.248 654.185 385.168C651.095 386.058 652.415 390.888 655.515 389.988L655.525 389.978Z" fill="#00BEF8"/>
<path d="M355.785 415.698C359.645 421.188 364.405 427.068 369.995 432.248C370.245 432.478 370.505 432.698 370.765 432.928C454.615 435.138 537.735 435.148 620.095 432.878C621.875 431.238 623.535 429.388 624.935 427.298C628.065 422.638 632.515 416.488 637.015 410.438C590.775 417.998 394.135 418.038 355.775 415.698H355.785Z" fill="#455A64"/>
<path d="M373.825 435.398C381.665 441.178 391.225 444.278 401.055 444.278L588.225 444.258C597.945 444.558 607.595 441.948 615.615 436.448C616.195 436.048 616.765 435.638 617.325 435.208C537.925 437.878 454.135 437.988 373.825 435.408V435.398Z" fill="#00BEF8"/>
<path d="M370.765 432.928C371.755 433.798 372.765 434.628 373.825 435.398C454.135 437.978 537.925 437.868 617.325 435.198C618.275 434.478 619.195 433.698 620.095 432.878C537.735 435.148 454.625 435.138 370.765 432.928Z" fill="white"/>
<path d="M369.915 353.608H491.285C470.265 268.478 483.225 162.528 495.465 44.0283C426.605 150.718 379.325 254.618 369.915 353.608Z" fill="#00BEF8"/>
<path d="M445.225 260.758C445.225 260.758 445.115 261.018 444.845 261.478L443.675 263.498C442.665 265.248 441.125 267.738 439.155 270.768C437.195 273.808 434.755 277.358 431.935 281.228C429.095 285.078 425.875 289.238 422.335 293.478C418.775 297.708 415.245 301.608 411.945 305.068C408.625 308.518 405.555 311.538 402.905 314.008C400.265 316.478 398.075 318.428 396.535 319.728C395.795 320.358 395.195 320.858 394.755 321.228C394.345 321.568 394.125 321.738 394.115 321.728C394.105 321.718 394.305 321.518 394.685 321.148C395.115 320.758 395.685 320.228 396.395 319.578C397.895 318.228 400.045 316.238 402.645 313.738C405.255 311.248 408.295 308.198 411.585 304.738C414.855 301.258 418.375 297.358 421.925 293.138C425.455 288.908 428.685 284.768 431.535 280.938C434.365 277.088 436.835 273.568 438.835 270.558C440.845 267.558 442.425 265.098 443.495 263.378C444.015 262.558 444.435 261.908 444.745 261.418C445.035 260.968 445.195 260.738 445.215 260.748L445.225 260.758Z" fill="#263238"/>
<path d="M443.205 300.468C443.205 300.468 442.875 300.858 442.215 301.498C441.555 302.138 440.585 303.028 439.355 304.118C436.905 306.288 433.415 309.168 429.375 312.108C425.335 315.048 421.535 317.498 418.725 319.178C417.325 320.018 416.175 320.668 415.365 321.108C414.555 321.538 414.105 321.768 414.085 321.738C414.065 321.708 414.485 321.418 415.255 320.938C416.115 320.398 417.205 319.708 418.525 318.878C421.285 317.128 425.045 314.638 429.065 311.708C433.085 308.768 436.605 305.948 439.105 303.858C440.295 302.858 441.295 302.018 442.065 301.368C442.765 300.778 443.165 300.468 443.185 300.498L443.205 300.468Z" fill="#263238"/>
<g opacity="0.3">
<path d="M370.115 353.608C370.115 353.608 413.065 351.698 437.535 337.368C462.005 323.048 480.145 248.578 480.145 248.578C481.635 284.148 483.845 321.718 491.285 353.598H370.115V353.608Z" fill="black"/>
</g>
<path d="M613.085 393.278C613.085 393.278 598.585 394.978 575.025 396.358C551.465 397.758 518.875 398.748 482.875 399.048C446.865 399.288 414.265 398.938 390.675 398.488C378.875 398.268 369.335 398.038 362.745 397.848C359.465 397.748 356.905 397.668 355.155 397.618C354.295 397.588 353.645 397.558 353.185 397.548C352.745 397.528 352.515 397.508 352.515 397.508C352.515 397.508 352.745 397.498 353.185 397.498C353.645 397.498 354.305 397.508 355.165 397.518C356.915 397.548 359.475 397.588 362.755 397.648C369.365 397.758 378.905 397.918 390.685 398.118C414.275 398.478 446.865 398.778 482.875 398.528C518.865 398.228 551.445 397.298 575.005 395.988C577.955 395.848 580.755 395.698 583.405 395.508C586.055 395.328 588.555 395.168 590.895 395.008C593.235 394.848 595.405 394.708 597.405 394.568C599.405 394.398 601.225 394.238 602.875 394.098C606.145 393.828 608.695 393.608 610.445 393.468C611.295 393.398 611.955 393.348 612.415 393.318C612.855 393.288 613.085 393.288 613.085 393.288V393.278Z" fill="#263238"/>
<path d="M430.595 409.618C430.095 411.628 428.065 412.858 426.045 412.368C424.025 411.878 422.805 409.838 423.295 407.818C423.785 405.798 425.825 404.578 427.845 405.068C429.855 405.568 431.085 407.598 430.595 409.618Z" fill="#455A64"/>
<g opacity="0.3">
<path d="M428.325 405.228L423.185 408.608C423.145 408.778 423.165 410.168 424.095 411.168L430.215 406.878C430.215 406.878 429.535 405.638 428.325 405.218V405.228Z" fill="white"/>
</g>
<path d="M439.685 412.478C441.762 412.478 443.445 410.795 443.445 408.718C443.445 406.641 441.762 404.958 439.685 404.958C437.608 404.958 435.925 406.641 435.925 408.718C435.925 410.795 437.608 412.478 439.685 412.478Z" fill="#455A64"/>
<g opacity="0.3">
<path d="M442.185 405.918L436.225 410.188C436.225 410.188 436.595 410.998 436.845 411.168L442.965 406.878C442.965 406.878 442.645 406.248 442.185 405.918Z" fill="white"/>
</g>
<path d="M453.195 372.938C453.275 372.558 457.755 367.368 458.895 367.168C460.025 366.968 479.465 368.778 480.895 369.388C482.335 369.988 484.375 372.938 484.375 372.938H453.195Z" fill="#E0E0E0"/>
<path d="M493.205 372.328C493.205 372.468 482.155 372.588 468.535 372.588C454.915 372.588 443.865 372.468 443.865 372.328C443.865 372.188 454.905 372.068 468.535 372.068C482.165 372.068 493.205 372.188 493.205 372.328Z" fill="#263238"/>
<g opacity="0.3">
<path d="M367.195 397.848C367.195 397.848 450.035 401.908 503.545 401.208C570.095 400.348 626.505 392.288 626.505 392.288C626.505 392.288 541.785 399.398 487.085 398.568C432.385 397.738 367.185 397.848 367.185 397.848H367.195Z" fill="black"/>
</g>
<path d="M639.295 444.278C639.295 444.418 573.265 444.538 491.825 444.538C410.385 444.538 344.345 444.418 344.345 444.278C344.345 444.138 410.365 444.018 491.825 444.018C573.285 444.018 639.295 444.138 639.295 444.278Z" fill="#263238"/>
<path d="M21.0309 466.675V135.9L131.734 122.561L180.385 131.83L196.283 134.851L230.418 141.354L253.169 136.87L269.068 133.738L343.951 119V449.774L269.068 464.528L253.169 467.661L230.418 472.144L131.734 453.352L125.311 454.131L106.153 456.436L21.0309 466.675Z" fill="#00BEF8"/>
<path opacity="0.2" d="M21.0309 466.675V135.9L131.734 122.561L180.385 131.83L196.283 134.851L230.418 141.354L253.169 136.87L269.068 133.738L343.951 119V449.774L269.068 464.528L253.169 467.661L230.418 472.144L131.734 453.352L125.311 454.131L106.153 456.436L21.0309 466.675Z" fill="black"/>
<path d="M253.17 304.267V279.688C253.171 279.11 253.045 278.54 252.799 278.017C252.553 277.494 252.195 277.032 251.75 276.664C251.304 276.296 250.783 276.031 250.223 275.889C249.663 275.747 249.079 275.73 248.512 275.84L21.0318 319.578V303.377L111.289 286.047C111.82 285.944 112.324 285.732 112.77 285.425C113.215 285.118 113.592 284.722 113.877 284.262C114.162 283.803 114.349 283.289 114.427 282.753C114.504 282.218 114.47 281.672 114.326 281.151L96.9804 218.048C96.7215 217.097 96.1117 216.279 95.2737 215.76C94.4358 215.241 93.4321 215.059 92.4651 215.25L21.0318 229.018V212.802L103.896 196.823C104.865 196.64 105.867 196.828 106.703 197.349C107.54 197.871 108.149 198.687 108.412 199.637L130.113 278.718C130.376 279.668 130.985 280.485 131.822 281.006C132.658 281.528 133.66 281.715 134.629 281.532L177.206 273.328C178.101 273.158 178.909 272.68 179.489 271.978C180.07 271.275 180.387 270.392 180.385 269.481V176.6C180.387 175.689 180.07 174.806 179.489 174.103C178.909 173.401 178.101 172.923 177.206 172.753L125.98 163.309C125.543 163.237 125.097 163.237 124.66 163.309L21.0318 179.526V163.5L124.835 147.171C125.271 147.092 125.718 147.092 126.155 147.171L175.759 156.297C176.324 156.402 176.905 156.382 177.46 156.237C178.016 156.092 178.534 155.827 178.975 155.459C179.417 155.092 179.772 154.632 180.016 154.112C180.26 153.592 180.386 153.024 180.385 152.45V131.829L196.284 134.85V264.918C196.286 265.497 196.415 266.068 196.662 266.592C196.91 267.115 197.269 267.577 197.715 267.946C198.161 268.315 198.683 268.581 199.244 268.725C199.804 268.87 200.39 268.889 200.959 268.781L249.99 259.337C250.887 259.17 251.696 258.693 252.278 257.99C252.859 257.287 253.175 256.402 253.17 255.49V136.869L269.069 133.689V250.879C269.07 251.458 269.199 252.029 269.446 252.552C269.694 253.074 270.054 253.536 270.5 253.904C270.947 254.271 271.469 254.536 272.03 254.678C272.59 254.82 273.175 254.837 273.743 254.727L306.797 248.367C307.692 248.197 308.5 247.719 309.08 247.017C309.661 246.314 309.978 245.431 309.977 244.52V163.436C309.976 162.527 310.294 161.646 310.874 160.946C311.455 160.246 312.262 159.771 313.156 159.604L344 153.245V169.477L329.055 172.562C328.161 172.735 327.355 173.214 326.775 173.915C326.195 174.617 325.877 175.499 325.875 176.409V240.005C325.874 240.582 326.001 241.153 326.246 241.676C326.492 242.199 326.85 242.661 327.296 243.029C327.741 243.396 328.263 243.661 328.822 243.803C329.382 243.946 329.967 243.962 330.534 243.852L343.952 241.276V257.43L272.249 271.214C271.354 271.39 270.547 271.872 269.967 272.577C269.388 273.281 269.07 274.165 269.069 275.077V385.987C269.07 386.557 269.196 387.12 269.437 387.637C269.677 388.154 270.028 388.612 270.464 388.98C270.899 389.347 271.41 389.616 271.96 389.766C272.51 389.917 273.086 389.945 273.648 389.851L343.952 378.261V394.318L272.408 406.211C271.486 406.353 270.645 406.818 270.034 407.523C269.422 408.227 269.081 409.126 269.069 410.058V464.496L253.17 467.675V328.354C253.172 327.783 253.048 327.219 252.808 326.701C252.568 326.183 252.218 325.723 251.781 325.355C251.345 324.987 250.833 324.719 250.282 324.57C249.731 324.42 249.154 324.393 248.591 324.491L189.623 334.65C189.028 334.754 188.465 334.993 187.977 335.348C187.489 335.704 187.089 336.167 186.809 336.701L125.344 454.13L106.186 456.435L129.684 411.553C130.018 410.91 130.167 410.187 130.116 409.465C130.064 408.743 129.814 408.049 129.393 407.46C128.972 406.871 128.396 406.41 127.729 406.128C127.062 405.845 126.33 405.753 125.614 405.861L21.0636 421.76V405.702L140.464 387.53C141.074 387.436 141.654 387.2 142.157 386.841C142.659 386.482 143.07 386.01 143.357 385.463L176.411 322.36C176.689 321.828 177.086 321.368 177.571 321.015C178.057 320.662 178.617 320.426 179.209 320.325L249.959 308.131C250.861 307.964 251.676 307.486 252.263 306.78C252.85 306.074 253.171 305.185 253.17 304.267Z" fill="#00BEF8"/>
<path d="M230.387 464.117L133.293 445.547L132.085 445.309L130.845 445.468L124.485 446.247L105.407 448.552L28.9812 457.758V142.961L131.449 130.624L178.891 139.655L194.79 142.675L228.924 149.178L230.514 149.464L232.025 149.178L254.776 144.694L270.675 141.515L336.003 128.653V443.242L267.527 456.74L251.628 459.92L230.387 464.117ZM230.387 472.21L253.138 467.726L269.037 464.546L343.952 449.808V119.113L269.069 133.851L253.17 137.031L230.419 141.372L196.284 134.869L180.385 131.848L131.703 122.563L21 135.902V466.677L106.122 456.438L125.344 454.133L131.703 453.354L230.387 472.146V472.21Z" fill="white"/>
<path opacity="0.1" d="M230.387 464.117L133.293 445.547L132.085 445.309L130.845 445.468L124.485 446.247L105.407 448.552L28.9812 457.758V142.961L131.449 130.624L178.891 139.655L194.79 142.675L228.924 149.178L230.514 149.464L232.025 149.178L254.776 144.694L270.675 141.515L336.003 128.653V443.242L267.527 456.74L251.628 459.92L230.387 464.117ZM230.387 472.21L253.138 467.726L269.037 464.546L343.952 449.808V119.113L269.069 133.851L253.17 137.031L230.419 141.372L196.284 134.869L180.385 131.848L131.703 122.563L21 135.902V466.677L106.122 456.438L125.344 454.133L131.703 453.354L230.387 472.146V472.21Z" fill="black"/>
<path opacity="0.1" d="M230.419 472.145V141.355L131.735 122.562V453.353L230.419 472.145Z" fill="black"/>
<g opacity="0.5">
<path d="M304.078 256.079C304.5 256.041 304.919 256.172 305.244 256.443C305.569 256.715 305.773 257.104 305.811 257.525C305.849 257.947 305.718 258.367 305.447 258.692C305.175 259.017 304.786 259.221 304.364 259.258L262.709 266.731V314.268C262.715 314.647 262.585 315.015 262.343 315.307C262.101 315.598 261.763 315.794 261.39 315.858L183.486 329.293L145.09 402.109C144.996 402.299 144.865 402.468 144.704 402.607C144.544 402.745 144.357 402.85 144.156 402.915C143.954 402.981 143.742 403.005 143.53 402.987C143.319 402.969 143.114 402.909 142.926 402.81C142.739 402.712 142.573 402.577 142.438 402.413C142.303 402.249 142.203 402.06 142.142 401.857C142.082 401.654 142.062 401.441 142.085 401.23C142.108 401.02 142.173 400.816 142.276 400.631L181.085 327.035C181.198 326.82 181.358 326.634 181.554 326.491C181.749 326.347 181.975 326.251 182.214 326.208L259.53 312.853V265.379C259.524 265.003 259.651 264.637 259.89 264.345C260.129 264.054 260.463 263.857 260.833 263.79L303.76 256.079H304.078Z" fill="black"/>
<path d="M140.686 401.426C140.683 400.831 140.857 400.248 141.186 399.751C141.515 399.255 141.984 398.867 142.534 398.638C143.083 398.408 143.689 398.347 144.273 398.463C144.858 398.578 145.395 398.865 145.816 399.286C146.237 399.707 146.523 400.244 146.639 400.828C146.754 401.413 146.693 402.018 146.464 402.568C146.235 403.118 145.847 403.587 145.35 403.916C144.854 404.245 144.271 404.419 143.675 404.415C142.884 404.411 142.126 404.095 141.566 403.535C141.007 402.976 140.69 402.218 140.686 401.426Z" fill="black"/>
<path d="M301.089 257.668C301.086 257.072 301.26 256.489 301.589 255.992C301.918 255.496 302.387 255.108 302.937 254.879C303.486 254.649 304.092 254.589 304.676 254.704C305.261 254.819 305.798 255.106 306.219 255.527C306.64 255.948 306.926 256.485 307.042 257.07C307.157 257.654 307.096 258.259 306.867 258.809C306.638 259.359 306.25 259.828 305.753 260.157C305.257 260.486 304.674 260.66 304.078 260.657C303.285 260.657 302.525 260.342 301.965 259.781C301.404 259.221 301.089 258.46 301.089 257.668Z" fill="black"/>
</g>
<path d="M145.233 354.54C143.569 352.873 141.593 351.551 139.417 350.649C137.241 349.747 134.909 349.282 132.554 349.282C130.199 349.282 127.867 349.747 125.691 350.649C123.515 351.551 121.539 352.873 119.875 354.54C118.21 356.204 116.89 358.179 115.989 360.353C115.089 362.527 114.625 364.858 114.625 367.211C114.625 369.564 115.089 371.895 115.989 374.069C116.89 376.243 118.21 378.218 119.875 379.882L132.594 392.601L145.313 379.882C146.972 378.213 148.286 376.234 149.18 374.057C150.074 371.88 150.53 369.548 150.522 367.195C150.515 364.841 150.044 362.512 149.137 360.341C148.229 358.17 146.903 356.198 145.233 354.54ZM127.395 372.362C126.374 371.342 125.679 370.041 125.397 368.626C125.115 367.21 125.259 365.743 125.812 364.409C126.364 363.075 127.299 361.936 128.499 361.134C129.699 360.332 131.11 359.904 132.554 359.904C133.997 359.904 135.408 360.332 136.608 361.134C137.809 361.936 138.744 363.075 139.296 364.409C139.849 365.743 139.993 367.21 139.711 368.626C139.429 370.041 138.734 371.342 137.713 372.362C137.037 373.041 136.233 373.58 135.347 373.948C134.462 374.316 133.513 374.505 132.554 374.505C131.595 374.505 130.646 374.316 129.761 373.948C128.875 373.58 128.071 373.041 127.395 372.362Z" fill="black"/>
<path opacity="0.2" d="M145.233 354.54C143.556 352.859 141.56 351.529 139.362 350.628C137.165 349.728 134.81 349.274 132.435 349.294V359.93C133.418 359.884 134.401 360.038 135.324 360.383C136.246 360.728 137.09 361.256 137.802 361.936C138.515 362.616 139.082 363.433 139.469 364.339C139.857 365.244 140.056 366.219 140.056 367.204C140.056 368.188 139.857 369.163 139.469 370.069C139.082 370.974 138.515 371.791 137.802 372.471C137.09 373.151 136.246 373.68 135.324 374.024C134.401 374.369 133.418 374.523 132.435 374.477V392.443L132.546 392.554L145.265 379.835C148.607 376.473 150.481 371.922 150.475 367.181C150.469 362.44 148.584 357.894 145.233 354.54Z" fill="black"/>
<path d="M316.749 207.797C315.086 206.133 313.11 204.813 310.936 203.912C308.762 203.011 306.431 202.548 304.078 202.548C301.725 202.548 299.394 203.011 297.22 203.912C295.046 204.813 293.071 206.133 291.407 207.797C288.049 211.163 286.162 215.722 286.162 220.477C286.162 225.231 288.049 229.791 291.407 233.156L304.126 245.875L316.845 233.156C318.505 231.485 319.82 229.504 320.714 227.325C321.608 225.146 322.063 222.812 322.055 220.457C322.046 218.102 321.573 215.771 320.662 213.599C319.752 211.427 318.422 209.455 316.749 207.797ZM298.927 225.636C297.904 224.616 297.206 223.316 296.923 221.9C296.639 220.483 296.782 219.015 297.334 217.68C297.885 216.345 298.821 215.204 300.021 214.401C301.222 213.598 302.634 213.169 304.078 213.169C305.523 213.169 306.934 213.598 308.135 214.401C309.336 215.204 310.271 216.345 310.823 217.68C311.374 219.015 311.517 220.483 311.234 221.9C310.95 223.316 310.252 224.616 309.229 225.636C307.861 226.999 306.009 227.764 304.078 227.764C302.147 227.764 300.295 226.999 298.927 225.636Z" fill="black"/>
<path opacity="0.2" d="M316.749 207.795C315.079 206.127 313.095 204.806 310.912 203.909C308.729 203.011 306.39 202.554 304.03 202.565V213.201C305.014 213.155 305.997 213.309 306.919 213.654C307.842 213.999 308.685 214.527 309.397 215.207C310.11 215.887 310.677 216.704 311.064 217.61C311.452 218.515 311.652 219.49 311.652 220.475C311.652 221.459 311.452 222.434 311.064 223.34C310.677 224.245 310.11 225.062 309.397 225.742C308.685 226.422 307.842 226.951 306.919 227.295C305.997 227.64 305.014 227.794 304.03 227.748V245.714L304.141 245.825L316.86 233.106C320.197 229.732 322.059 225.173 322.038 220.428C322.017 215.683 320.115 211.14 316.749 207.795Z" fill="black"/>
</g>
<defs>
<clipPath id="clip0_107_5959">
<rect width="500" height="500" fill="white"/>
</clipPath>
</defs>
</svg>
