<svg width="500" height="500" viewBox="0 0 500 500" fill="none" xmlns="http://www.w3.org/2000/svg">
<g clip-path="url(#clip0_107_788)">
<path d="M83.96 447.21L83.11 451.34C89.01 459.92 101.02 461.37 111.42 460.78C121.82 460.19 132.95 458.52 142.09 463.52C142.87 463.94 143.69 464.51 143.86 465.38C144.02 466.2 143.54 466.99 143.27 467.78C142.41 470.32 143.83 473.19 145.98 474.78C148.13 476.37 150.85 476.96 153.5 477.4C166.46 479.55 179.83 479.16 192.64 476.26C194.59 475.82 196.94 474.91 196.71 472.6C196.59 471.47 195.85 470.5 194.86 469.94L189.94 467.1C187.42 465.65 188.38 461.81 191.28 461.69C200.67 461.31 210.41 464.46 219.99 465.18C228.44 465.81 237.03 464.5 244.91 461.36C252.54 458.32 259.75 453.55 267.95 453.07C275.38 452.63 282.48 455.8 289.75 457.38C300.97 459.81 313 458.36 323.31 453.32C329.1 450.49 334.01 451.54 340.34 452.76C354.61 455.51 387.79 460.15 396.92 457.89C401.14 456.85 419.64 450.09 422.26 447.23H83.96V447.21ZM179.75 473.7C174.95 473.7 171.06 472.66 171.06 471.38C171.06 470.1 174.95 469.06 179.75 469.06C184.55 469.06 188.44 470.1 188.44 471.38C188.44 472.66 184.55 473.7 179.75 473.7ZM229.19 460.76C224.71 460.76 221.08 459.94 221.08 458.93C221.08 457.92 224.71 457.1 229.19 457.1C233.67 457.1 237.3 457.92 237.3 458.93C237.3 459.94 233.67 460.76 229.19 460.76Z" fill="#E0E0E0"/>
<path d="M9.06 226.91C16.44 211.37 35.13 202.81 52.16 205.34C69.18 207.86 83.88 220.22 91.41 235.69C99.76 230.74 110.53 230.12 119.4 234.06C128.27 238.01 135.02 246.42 136.94 255.94C141.55 253.26 147.55 253.13 152.27 255.61C156.99 258.09 160.29 263.1 160.7 268.42H11.55L9.06 226.91Z" fill="#F5F5F5"/>
<path d="M213.57 267.02C218.46 256.85 231.27 251.58 241.63 255.47C238.62 231.25 254.04 205.93 276.54 198.16C299.04 190.39 326.18 200.99 338 222.17C340.47 187.48 359.99 160.73 378.89 145.05C402.35 125.6 424.98 126.5 424.98 126.5C424.98 126.5 426.92 107.4 446.82 97C458.94 90.66 480.14 89.96 488.14 101.27V268.63L213.57 267.01V267.02Z" fill="#F5F5F5"/>
<path d="M104.23 105.45C103.45 103.37 102.66 101.27 101.35 99.48C100.04 97.69 98.13 96.22 95.93 95.95C93.73 95.68 91.29 96.87 90.57 98.97C90.25 94.24 89.58 89.39 87.22 85.28C84.85 81.17 80.44 77.95 75.71 78.24C71.25 78.51 67.43 81.83 65.31 85.76C63.19 89.69 62.46 94.2 61.76 98.62C60.07 96.55 56.5 97.2 54.74 99.21C52.98 101.22 52.53 104.03 52.15 106.68H105.37L104.24 105.45H104.23Z" fill="#EBEBEB"/>
<path d="M323.73 148.44C321.56 142.64 319.34 136.77 315.69 131.77C312.04 126.77 306.7 122.68 300.56 121.93C294.42 121.18 287.61 124.49 285.61 130.35C284.73 117.15 282.86 103.61 276.25 92.15C269.64 80.69 257.32 71.69 244.12 72.5C231.67 73.26 221.01 82.51 215.09 93.48C209.17 104.46 207.14 117.04 205.19 129.36C200.47 123.57 190.51 125.39 185.58 131.01C180.66 136.63 179.41 144.48 178.36 151.87L325.43 153.4L323.72 148.43L323.73 148.44Z" fill="#F5F5F5"/>
<path d="M421.24 189.65C420.68 188.16 420.11 186.66 419.18 185.37C418.24 184.09 416.87 183.04 415.3 182.84C413.72 182.65 411.98 183.5 411.46 185C411.23 181.61 410.75 178.14 409.06 175.2C407.37 172.26 404.2 169.95 400.82 170.16C397.63 170.36 394.89 172.73 393.37 175.54C391.85 178.36 391.33 181.59 390.83 184.75C389.62 183.26 387.06 183.73 385.8 185.17C384.54 186.61 384.22 188.62 383.95 190.52L421.68 190.91L421.24 189.64V189.65Z" fill="#EBEBEB"/>
<path d="M168.88 66.26C168.41 65.02 167.94 63.76 167.16 62.69C166.38 61.62 165.23 60.74 163.92 60.58C162.6 60.42 161.15 61.13 160.72 62.38C160.53 59.55 160.13 56.65 158.72 54.2C157.3 51.75 154.66 49.82 151.84 49.99C149.17 50.15 146.89 52.13 145.62 54.48C144.35 56.83 143.92 59.53 143.5 62.17C142.49 60.93 140.35 61.32 139.3 62.52C138.25 63.72 137.98 65.4 137.75 66.99L169.26 67.32L168.89 66.26H168.88Z" fill="#F5F5F5"/>
<path d="M158.34 184.91C157.44 182.5 156.52 180.06 155 177.98C153.48 175.9 151.27 174.2 148.71 173.89C146.16 173.58 143.33 174.96 142.5 177.39C142.13 171.91 141.36 166.28 138.61 161.52C135.87 156.76 130.74 153.02 125.26 153.36C120.09 153.68 115.66 157.52 113.2 162.08C110.74 166.64 109.9 171.87 109.09 176.99C107.13 174.58 102.99 175.34 100.94 177.67C98.89 180 98.38 183.26 97.94 186.34L159.04 186.98L158.33 184.92L158.34 184.91Z" fill="#F5F5F5"/>
<path d="M467.46 268.43C467.46 268.57 370.09 268.69 250.01 268.69C129.93 268.69 32.54 268.57 32.54 268.43C32.54 268.29 129.89 268.17 250.01 268.17C370.13 268.17 467.46 268.29 467.46 268.43Z" fill="#263238"/>
<path d="M410.89 292.15C410.89 292.29 343.31 292.41 259.96 292.41C176.61 292.41 109.01 292.29 109.01 292.15C109.01 292.01 176.58 291.89 259.96 291.89C343.34 291.89 410.89 292.01 410.89 292.15Z" fill="#263238"/>
<path d="M261.98 298.83C261.98 298.97 222.36 299.09 173.5 299.09C124.64 299.09 85.01 298.97 85.01 298.83C85.01 298.69 124.62 298.57 173.5 298.57C222.38 298.57 261.98 298.69 261.98 298.83Z" fill="#263238"/>
<path d="M348.79 309.41C348.79 309.55 321.29 309.67 287.37 309.67C253.45 309.67 225.94 309.55 225.94 309.41C225.94 309.27 253.44 309.15 287.37 309.15C321.3 309.15 348.79 309.27 348.79 309.41Z" fill="#263238"/>
<path d="M324.76 465.72C324.76 465.86 307.56 465.98 286.35 465.98C265.14 465.98 247.93 465.86 247.93 465.72C247.93 465.58 265.13 465.46 286.35 465.46C307.57 465.46 324.76 465.58 324.76 465.72Z" fill="#263238"/>
<path d="M149.09 454.27C149.09 454.41 131.89 454.53 110.68 454.53C89.47 454.53 72.26 454.41 72.26 454.27C72.26 454.13 89.46 454.01 110.68 454.01C131.9 454.01 149.09 454.13 149.09 454.27Z" fill="#FF725E"/>
<path d="M402.82 451.3C402.82 451.44 395.08 451.56 385.53 451.56C375.98 451.56 368.24 451.44 368.24 451.3C368.24 451.16 375.98 451.04 385.53 451.04C395.08 451.04 402.82 451.16 402.82 451.3Z" fill="#FF725E"/>
<path d="M266.69 472.16C266.69 472.3 260.92 472.42 253.81 472.42C246.7 472.42 240.93 472.3 240.93 472.16C240.93 472.02 246.7 471.9 253.81 471.9C260.92 471.9 266.69 472.02 266.69 472.16Z" fill="#263238"/>
<path d="M387.908 102.14C399.628 90.4207 399.628 71.4195 387.908 59.6998C376.189 47.9802 357.187 47.9802 345.468 59.6998C333.748 71.4195 333.748 90.4207 345.468 102.14C357.187 113.86 376.189 113.86 387.908 102.14Z" fill="#FFD808"/>
<path opacity="0.9" d="M387.908 102.14C399.628 90.4207 399.628 71.4195 387.908 59.6998C376.189 47.9802 357.187 47.9802 345.468 59.6998C333.748 71.4195 333.748 90.4207 345.468 102.14C357.187 113.86 376.189 113.86 387.908 102.14Z" fill="white"/>
<path d="M369.937 107.497C384.607 105.703 395.045 92.3569 393.252 77.687C391.458 63.0171 378.112 52.5786 363.442 54.3721C348.772 56.1655 338.334 69.5117 340.127 84.1816C341.921 98.8515 355.267 109.29 369.937 107.497Z" fill="#FFD808"/>
<path opacity="0.6" d="M369.937 107.497C384.607 105.703 395.045 92.3569 393.252 77.687C391.458 63.0171 378.112 52.5786 363.442 54.3721C348.772 56.1655 338.334 69.5117 340.127 84.1816C341.921 98.8515 355.267 109.29 369.937 107.497Z" fill="white"/>
<path d="M370.233 102.926C382.376 100.97 390.634 89.541 388.679 77.3981C386.723 65.2552 375.293 56.997 363.151 58.9528C351.008 60.9087 342.749 72.3379 344.705 84.4808C346.661 96.6237 358.09 104.882 370.233 102.926Z" fill="#FFD808"/>
<path opacity="0.3" d="M370.233 102.926C382.376 100.97 390.634 89.541 388.679 77.3981C386.723 65.2552 375.293 56.997 363.151 58.9528C351.008 60.9087 342.749 72.3379 344.705 84.4808C346.661 96.6237 358.09 104.882 370.233 102.926Z" fill="white"/>
<path fill-rule="evenodd" clip-rule="evenodd" d="M384.52 80.92C384.52 90.77 376.54 98.75 366.69 98.75C356.84 98.75 348.86 90.77 348.86 80.92C348.86 71.07 356.84 63.09 366.69 63.09C376.54 63.09 384.52 71.07 384.52 80.92Z" fill="#FFD808"/>
<path d="M116.94 135C116.94 135 116.31 134.78 115.14 134.52C113.98 134.26 112.23 134.04 110.12 134.33C108.02 134.61 105.53 135.45 103.36 137.25C101.19 139.01 99.33 141.67 98.59 144.83L98.57 144.91L98.43 145.45L98.22 144.94C97 141.94 94.85 139.55 92.5 138.04C90.15 136.5 87.63 135.86 85.52 135.71C83.4 135.56 81.68 135.87 80.53 136.17C79.38 136.47 78.77 136.74 78.76 136.71C78.76 136.7 78.9 136.63 79.19 136.5C79.48 136.37 79.92 136.21 80.49 136.04C81.64 135.7 83.37 135.35 85.53 135.46C87.67 135.57 90.26 136.2 92.68 137.76C95.09 139.3 97.31 141.73 98.55 144.81L98.2 144.84L98.22 144.75C98.98 141.5 100.9 138.78 103.14 136.99C105.38 135.17 107.94 134.33 110.08 134.08C112.24 133.82 114 134.09 115.17 134.39C115.76 134.54 116.2 134.69 116.49 134.81C116.78 134.93 116.94 134.99 116.93 135.01L116.94 135Z" fill="#263238"/>
<path d="M167.13 110.23C167.13 110.23 166.78 110.13 166.13 110C165.49 109.87 164.54 109.76 163.38 109.92C162.23 110.08 160.88 110.55 159.7 111.53C158.52 112.49 157.51 113.94 157.11 115.66V115.71L156.96 116.25L156.75 115.74C156.09 114.11 154.91 112.81 153.64 111.98C152.36 111.14 150.99 110.78 149.84 110.69C148.68 110.6 147.74 110.76 147.11 110.91C146.48 111.07 146.14 111.2 146.13 111.17C146.13 111.16 146.2 111.11 146.36 111.04C146.52 110.96 146.76 110.87 147.07 110.77C147.7 110.57 148.66 110.37 149.86 110.43C151.05 110.49 152.49 110.83 153.83 111.69C155.17 112.54 156.4 113.89 157.1 115.6L156.75 115.63V115.58C157.19 113.77 158.25 112.26 159.5 111.27C160.75 110.26 162.17 109.8 163.36 109.67C164.56 109.53 165.53 109.69 166.17 109.87C166.49 109.96 166.74 110.04 166.9 110.12C167.06 110.19 167.14 110.23 167.14 110.24L167.13 110.23Z" fill="#263238"/>
<path d="M134.32 98.96C134.32 98.96 133.98 99.35 133.36 100.05C132.74 100.75 131.89 101.81 131 103.23C129.22 106.03 127.44 110.49 127.5 115.61V115.77L127.14 115.8C126.76 113.3 125.93 111.01 124.88 109.1C123.83 107.18 122.6 105.62 121.43 104.45C120.27 103.27 119.21 102.44 118.44 101.92C117.68 101.39 117.24 101.13 117.25 101.1C117.25 101.09 117.37 101.15 117.59 101.26C117.8 101.38 118.13 101.54 118.52 101.8C119.31 102.29 120.41 103.1 121.61 104.27C122.81 105.44 124.08 107 125.17 108.94C126.26 110.88 127.11 113.21 127.5 115.75L127.14 115.78V115.62C127.08 110.41 128.93 105.89 130.79 103.1C131.71 101.68 132.6 100.64 133.26 99.96C133.58 99.61 133.86 99.38 134.04 99.2C134.22 99.03 134.32 98.95 134.33 98.96H134.32Z" fill="#263238"/>
<path d="M370.615 353.068C370.745 353.118 370.175 354.988 369.175 357.178C368.175 359.368 367.145 361.028 367.025 360.958C366.895 360.888 367.715 359.128 368.705 356.958C369.695 354.788 370.485 353.018 370.615 353.068Z" fill="#263238"/>
<path d="M378.105 389.028V388.528L377.625 388.418C377.665 388.168 377.655 386.138 377.625 383.258C377.625 383.008 377.725 382.768 377.915 382.578C378.215 382.268 378.735 382.088 379.305 382.088H438.285V383.088H379.305C378.885 383.088 378.645 383.238 378.615 383.298C378.695 388.658 378.665 388.688 378.475 388.878L378.325 389.028H378.115H378.105Z" fill="#455A64"/>
<path d="M384.565 382.588H383.565V388.568H384.565V382.588Z" fill="#455A64"/>
<path d="M390.975 382.588H389.975V388.568H390.975V382.588Z" fill="#455A64"/>
<path d="M397.375 382.588H396.375V388.568H397.375V382.588Z" fill="#455A64"/>
<path d="M403.785 382.588H402.785V388.568H403.785V382.588Z" fill="#455A64"/>
<path d="M410.195 382.588H409.195V388.568H410.195V382.588Z" fill="#455A64"/>
<path d="M416.595 382.588H415.595V388.568H416.595V382.588Z" fill="#455A64"/>
<path d="M423.005 382.588H422.005V388.568H423.005V382.588Z" fill="#455A64"/>
<path d="M429.405 382.588H428.405V388.568H429.405V382.588Z" fill="#455A64"/>
<path d="M351.915 395.038C351.785 394.978 354.785 387.758 358.625 378.908C362.465 370.058 365.685 362.928 365.815 362.978C365.945 363.038 362.945 370.258 359.105 379.108C355.265 387.958 352.045 395.088 351.915 395.038Z" fill="#263238"/>
<path d="M372.395 393.128L375.775 388.508H430.055L440.285 374.518C441.285 373.148 442.875 372.338 444.575 372.338H496.545L511.865 395.978L372.405 393.138L372.395 393.128Z" fill="#E0E0E0"/>
<path d="M499.025 376.178L463.375 376.438L461.675 390.758H508.525L499.025 376.178Z" fill="#455A64"/>
<g opacity="0.3">
<path d="M490.795 376.238L464.535 390.758H472.295L497.395 376.198L490.795 376.238Z" fill="white"/>
</g>
<g opacity="0.3">
<path d="M499.425 376.798L477.115 390.758H479.945L500.215 378.008L499.425 376.798Z" fill="white"/>
</g>
<g opacity="0.3">
<path d="M497.235 373.418V394.658H500.755L500.505 378.498L497.235 373.418Z" fill="black"/>
</g>
<path d="M499.495 360.918H491.585L490.135 362.868L499.495 373.418V360.918Z" fill="#E0E0E0"/>
<path d="M499.495 360.918C499.495 360.918 499.535 361.208 499.555 361.788C499.575 362.468 499.595 363.328 499.625 364.348C499.675 366.558 499.725 369.718 499.745 373.408V374.058L499.315 373.568C498.085 372.188 496.745 370.678 495.345 369.118C493.415 366.928 491.595 364.868 489.965 363.018L489.835 362.878L489.945 362.728C490.455 362.048 490.945 361.408 491.415 360.788L491.485 360.698H491.595C494.035 360.718 496.035 360.768 497.405 360.808C498.775 360.848 499.525 360.878 499.495 360.908C499.475 360.928 499.265 360.938 498.895 360.958C498.445 360.978 497.915 360.988 497.275 361.008C495.885 361.048 493.945 361.098 491.595 361.118L491.765 361.028C491.305 361.648 490.835 362.308 490.335 362.988V362.698C491.965 364.538 493.795 366.588 495.735 368.768C497.125 370.338 498.455 371.848 499.685 373.238L499.255 373.398C499.275 369.808 499.325 366.718 499.375 364.498C499.405 363.448 499.425 362.578 499.445 361.878C499.465 361.258 499.485 360.918 499.505 360.898L499.495 360.918Z" fill="#263238"/>
<path d="M361.855 379.978C382.715 383.658 404.085 384.338 425.135 381.928C431.075 381.248 436.985 380.318 442.845 379.168C443.635 379.008 443.295 377.808 442.515 377.958C421.995 382.008 400.925 383.098 380.095 381.178C374.095 380.628 368.125 379.818 362.185 378.768C361.395 378.628 361.065 379.838 361.855 379.978Z" fill="#AE7461"/>
<path d="M367.025 388.868C386.435 392.578 406.385 393.288 426.005 390.878C431.465 390.208 436.905 389.298 442.285 388.158C443.075 387.988 442.735 386.788 441.955 386.948C422.885 390.968 403.235 392.028 383.835 390.068C378.305 389.508 372.805 388.698 367.355 387.648C366.565 387.498 366.235 388.698 367.025 388.858V388.868Z" fill="#AE7461"/>
<path d="M442.985 379.408C463.185 383.018 483.795 383.418 504.145 380.828C509.865 380.098 515.545 379.158 521.205 378.028C521.995 377.868 521.655 376.668 520.875 376.818C501.115 380.758 480.915 382.298 460.825 380.538C454.955 380.028 449.125 379.238 443.325 378.198C442.535 378.058 442.205 379.258 442.995 379.408H442.985Z" fill="#AE7461"/>
<path d="M443.175 388.888C463.425 392.758 484.395 393.298 504.855 390.878C510.465 390.218 516.035 389.318 521.555 388.158C522.345 387.988 522.005 386.788 521.225 386.948C501.315 391.148 480.615 392.048 460.375 390.088C454.715 389.538 449.085 388.738 443.505 387.678C442.715 387.528 442.385 388.728 443.175 388.888Z" fill="#AE7461"/>
<g opacity="0.3">
<path d="M440.365 394.658C439.955 394.658 439.625 394.328 439.625 393.918V378.168C439.625 377.758 439.955 377.428 440.365 377.428C440.775 377.428 441.105 377.758 441.105 378.168V393.918C441.105 394.328 440.775 394.658 440.365 394.658Z" fill="black"/>
</g>
<path d="M441.105 376.878V396.168C441.105 397.488 443.145 397.488 443.145 396.168V376.878C443.145 375.558 441.105 375.558 441.105 376.878Z" fill="#E0E0E0"/>
<path d="M441.105 376.878C441.105 376.878 441.045 376.718 441.155 376.408C441.255 376.118 441.685 375.718 442.315 375.798C442.615 375.828 442.965 376.008 443.155 376.358C443.345 376.738 443.265 377.128 443.295 377.528C443.305 378.348 443.315 379.268 443.335 380.268C443.385 384.338 443.415 389.958 443.415 396.158C443.435 396.628 443.115 397.148 442.655 397.308C442.215 397.478 441.705 397.428 441.315 397.138C440.895 396.868 440.825 396.248 440.855 395.918C440.855 395.548 440.855 395.178 440.855 394.808C440.855 393.348 440.865 391.938 440.875 390.588C440.895 387.918 440.915 385.508 440.935 383.448C440.965 381.478 440.995 379.858 441.015 378.628C441.045 377.488 441.085 376.858 441.115 376.858C441.145 376.858 441.185 377.488 441.215 378.628C441.235 379.848 441.265 381.478 441.295 383.448C441.315 385.508 441.325 387.928 441.355 390.588C441.355 391.938 441.355 393.348 441.375 394.808C441.375 395.178 441.375 395.538 441.375 395.918C441.365 396.318 441.405 396.538 441.635 396.728C441.855 396.898 442.195 396.938 442.465 396.828C442.745 396.718 442.895 396.468 442.895 396.168C442.895 389.958 442.925 384.348 442.975 380.278C442.985 379.278 443.005 378.358 443.015 377.538C443.015 377.128 443.075 376.738 442.945 376.478C442.815 376.208 442.555 376.048 442.295 376.008C441.765 375.918 441.375 376.218 441.255 376.458C441.125 376.718 441.145 376.878 441.115 376.878H441.105Z" fill="#263238"/>
<path d="M344.335 395.888C344.335 395.888 353.675 417.028 370.025 432.188C378.455 439.998 389.585 444.218 401.075 444.218L588.245 444.198C597.965 444.498 607.615 441.888 615.635 436.388C619.105 434.008 622.425 430.998 624.955 427.248C633.945 413.888 653.735 388.188 654.765 387.928C655.795 387.668 540.405 398.978 455.345 397.178C389.315 395.778 344.325 395.888 344.325 395.888H344.335Z" fill="#E0E0E0"/>
<path d="M365.535 384.848H346.985V386.618H365.535V384.848Z" fill="#E0E0E0"/>
<path d="M365.535 386.618C365.535 386.618 365.505 386.438 365.485 386.138C365.465 385.778 365.445 385.358 365.425 384.858L365.535 384.968C362.405 385.058 355.275 385.118 346.985 385.118C347.505 384.598 347.125 384.978 347.245 384.858V385.758C347.245 386.058 347.245 386.348 347.245 386.628L346.985 386.368C352.135 386.368 356.725 386.428 360.075 386.478L364.045 386.558C364.985 386.578 365.515 386.608 365.545 386.628C365.565 386.648 365.085 386.678 364.175 386.698C363.165 386.718 361.855 386.748 360.265 386.778C356.935 386.828 352.245 386.888 346.985 386.888H346.725V386.628C346.725 386.348 346.725 386.058 346.725 385.758V384.888V384.868C346.845 384.748 346.465 385.118 346.985 384.598C355.275 384.598 362.405 384.658 365.535 384.748H365.645V384.858C365.625 385.458 365.605 385.908 365.585 386.208C365.565 386.498 365.555 386.648 365.535 386.628V386.618Z" fill="#263238"/>
<path d="M370.235 396.148L359.535 375.928C359.255 375.398 358.705 375.068 358.105 375.068H349.495C348.605 375.068 347.875 375.798 347.875 376.688V395.638H346.105V376.688C346.105 374.818 347.625 373.298 349.495 373.298H358.105C359.365 373.298 360.515 373.988 361.105 375.108L371.805 395.328L370.245 396.158L370.235 396.148Z" fill="#E0E0E0"/>
<path d="M370.235 396.148C370.235 396.148 370.365 396.058 370.615 395.918C370.895 395.758 371.265 395.548 371.765 395.268L371.735 395.348C370.265 392.698 366.795 386.248 362.065 377.378C361.765 376.828 361.465 376.258 361.165 375.688C360.865 375.098 360.565 374.568 360.055 374.188C359.565 373.798 358.945 373.558 358.305 373.518C357.625 373.518 356.925 373.518 356.225 373.518C354.815 373.518 353.365 373.518 351.885 373.518C351.145 373.518 350.395 373.518 349.635 373.518C348.905 373.498 348.205 373.698 347.625 374.138C347.045 374.558 346.615 375.188 346.435 375.898C346.265 376.588 346.365 377.418 346.335 378.208C346.335 379.808 346.335 381.438 346.335 383.088C346.335 386.398 346.335 389.788 346.335 393.258C346.335 394.058 346.335 394.868 346.335 395.608L346.075 395.348C346.705 395.348 347.285 395.348 347.845 395.348L347.585 395.608C347.585 391.778 347.585 388.048 347.585 384.458C347.585 382.658 347.585 380.898 347.585 379.178C347.585 378.318 347.585 377.458 347.585 376.618C347.585 375.628 348.465 374.778 349.425 374.798C351.065 374.798 352.665 374.798 354.225 374.808C355.005 374.808 355.765 374.808 356.515 374.808C356.895 374.808 357.265 374.808 357.635 374.808C357.985 374.808 358.425 374.788 358.805 374.968C359.185 375.138 359.495 375.428 359.675 375.788C359.835 376.098 360.005 376.418 360.165 376.718C360.485 377.338 360.805 377.938 361.115 378.538C361.735 379.728 362.325 380.868 362.895 381.948C365.145 386.288 366.965 389.808 368.245 392.268C368.865 393.468 369.345 394.418 369.695 395.098C369.845 395.408 369.975 395.648 370.065 395.848C370.145 396.018 370.185 396.108 370.185 396.118C370.185 396.118 370.135 396.048 370.045 395.898C369.945 395.718 369.815 395.488 369.655 395.198C369.295 394.538 368.795 393.618 368.155 392.458C366.835 390.008 364.955 386.518 362.625 382.198C362.035 381.108 361.425 379.958 360.785 378.768C360.465 378.168 360.135 377.558 359.805 376.938L359.305 375.998C359.155 375.718 358.915 375.498 358.625 375.368C358.335 375.228 358.015 375.248 357.625 375.248C357.255 375.248 356.885 375.248 356.505 375.248C355.755 375.248 354.985 375.248 354.215 375.248C352.665 375.248 351.065 375.248 349.425 375.258C348.715 375.248 348.055 375.888 348.065 376.618C348.065 377.458 348.065 378.308 348.065 379.168C348.065 380.888 348.065 382.648 348.065 384.448C348.065 388.038 348.065 391.768 348.065 395.598V395.858H347.805C347.245 395.858 346.665 395.858 346.035 395.858H345.775V395.598C345.775 394.858 345.775 394.048 345.775 393.248C345.775 389.778 345.775 386.378 345.775 383.078C345.775 381.428 345.775 379.798 345.775 378.198C345.775 377.798 345.775 377.398 345.775 376.998C345.775 376.618 345.775 376.168 345.895 375.758C346.095 374.938 346.605 374.208 347.275 373.718C347.935 373.218 348.785 372.988 349.575 373.018C350.335 373.018 351.085 373.018 351.825 373.018C353.305 373.018 354.755 373.018 356.165 373.018C356.875 373.018 357.575 373.018 358.275 373.028C359.005 373.078 359.705 373.358 360.265 373.798C360.835 374.228 361.205 374.888 361.475 375.448C361.775 376.018 362.075 376.588 362.365 377.148C367.035 386.048 370.415 392.548 371.775 395.248L371.805 395.308L371.755 395.338C371.235 395.598 370.835 395.798 370.545 395.938C370.285 396.068 370.165 396.118 370.165 396.108L370.235 396.148Z" fill="#263238"/>
<path d="M365.705 363.548C365.115 363.718 365.325 363.588 365.605 363.588C365.845 363.588 366.075 363.578 366.315 363.578C367.185 363.568 368.045 363.558 368.915 363.548C372.005 363.528 375.085 363.518 378.175 363.518C388.185 363.498 398.205 363.498 408.215 363.508C420.215 363.508 432.225 363.528 444.225 363.538C454.575 363.548 464.925 363.568 475.275 363.588C480.295 363.588 485.335 363.768 490.345 363.618C490.415 363.618 490.485 363.618 490.555 363.618C492.525 363.618 492.535 360.558 490.555 360.548C486.405 360.548 482.245 360.528 478.095 360.528C468.155 360.508 458.205 360.498 448.265 360.478C436.235 360.458 424.195 360.448 412.165 360.438C401.745 360.438 391.315 360.438 380.895 360.438C377.435 360.438 373.975 360.448 370.515 360.468C368.865 360.468 367.195 360.428 365.545 360.518C365.325 360.528 365.105 360.528 364.895 360.588C362.995 361.118 363.805 364.078 365.715 363.548H365.705Z" fill="#E0E0E0"/>
<path d="M365.705 363.548C365.705 363.548 365.485 363.658 365.035 363.618C364.595 363.578 363.895 363.128 363.775 362.208C363.715 361.768 363.835 361.218 364.265 360.838C364.705 360.458 365.355 360.438 365.975 360.428C367.245 360.408 368.715 360.388 370.365 360.358C376.985 360.328 386.525 360.288 398.315 360.238C421.935 360.238 454.525 360.248 490.535 360.258C491.165 360.228 491.885 360.618 492.125 361.238C492.395 361.828 492.355 362.538 492.005 363.098C491.835 363.388 491.545 363.598 491.245 363.718C490.945 363.848 490.575 363.848 490.335 363.848L488.665 363.888C486.435 363.928 484.225 363.908 482.035 363.888C477.645 363.818 473.335 363.818 469.085 363.808C460.595 363.788 452.405 363.778 444.605 363.758C429.005 363.728 414.955 363.698 403.145 363.668C391.355 363.638 381.815 363.618 375.195 363.608C371.905 363.608 369.355 363.598 367.595 363.598C366.735 363.598 366.085 363.598 365.615 363.598C365.515 363.578 365.395 363.648 365.345 363.598C365.415 363.598 365.495 363.578 365.545 363.568C365.655 363.548 365.715 363.538 365.715 363.538C365.715 363.538 365.665 363.558 365.555 363.598C365.495 363.608 365.435 363.638 365.345 363.648C365.395 363.538 365.515 363.578 365.625 363.558C366.085 363.548 366.745 363.528 367.605 363.508C369.365 363.488 371.915 363.458 375.205 363.428C381.825 363.408 391.365 363.368 403.155 363.328C414.965 363.328 429.015 363.308 444.615 363.308C452.415 363.308 460.605 363.318 469.095 363.328C473.335 363.328 477.665 363.328 482.045 363.398C484.235 363.418 486.445 363.438 488.665 363.398L490.335 363.358C490.895 363.378 491.325 363.248 491.585 362.838C491.835 362.458 491.875 361.898 491.665 361.478C491.485 361.038 491.035 360.798 490.545 360.798C454.545 360.728 421.945 360.668 398.335 360.618C386.545 360.598 377.005 360.578 370.385 360.568C368.735 360.568 367.275 360.588 366.005 360.588C365.375 360.588 364.775 360.608 364.365 360.938C363.975 361.278 363.845 361.778 363.895 362.198C363.995 363.068 364.645 363.508 365.065 363.568C365.505 363.628 365.725 363.518 365.725 363.548H365.705Z" fill="#263238"/>
<path d="M499.225 360.918C499.115 361.048 496.935 359.268 494.495 356.818C493.365 355.688 492.335 354.668 491.375 353.698C490.585 352.898 490.085 352.408 490.135 352.348C490.245 352.218 492.425 353.998 494.865 356.448C495.995 357.578 497.015 358.598 497.985 359.568C498.775 360.368 499.275 360.858 499.225 360.918Z" fill="#263238"/>
<path d="M499.225 29.7882C499.365 29.8282 498.375 33.9282 497.015 38.9482C495.655 43.9682 494.435 48.0082 494.305 47.9682C494.175 47.9282 495.155 43.8282 496.515 38.8082C497.875 33.7882 499.095 29.7482 499.225 29.7882Z" fill="#263238"/>
<path d="M499.225 25.4982V397.088C499.225 399.058 502.295 399.068 502.295 397.088V25.4982C502.295 23.5282 499.225 23.5182 499.225 25.4982Z" fill="#E0E0E0"/>
<path d="M499.225 25.4982C499.225 25.4982 499.225 25.4582 499.225 25.3782C499.235 25.2982 499.225 25.1682 499.285 25.0182C499.365 24.7182 499.655 24.2182 500.305 24.0582C500.615 23.9782 501.005 23.9682 501.385 24.1082C501.765 24.2482 502.135 24.5782 502.265 25.0582C502.375 25.5382 502.315 26.0482 502.335 26.6082C502.335 27.1582 502.335 27.7482 502.335 28.3782C502.345 33.3982 502.365 40.7882 502.385 50.3082C502.405 69.3582 502.435 96.9182 502.465 130.968C502.485 199.078 502.515 293.158 502.545 397.078C502.545 397.528 502.375 398.038 502.015 398.368C501.655 398.698 501.175 398.848 500.715 398.838C500.255 398.838 499.775 398.658 499.435 398.318C499.085 397.978 498.945 397.468 498.955 397.028C498.955 395.408 498.955 393.788 498.955 392.178C498.955 388.948 498.955 385.728 498.955 382.518C498.955 376.098 498.955 369.728 498.955 363.398C498.955 350.748 498.955 338.278 498.955 326.028C498.955 301.528 498.965 277.888 498.975 255.378C498.995 210.348 499.015 169.798 499.035 135.748C499.065 101.698 499.095 74.1482 499.115 55.0982C499.135 45.5782 499.155 38.1882 499.165 33.1682C499.175 30.6682 499.185 28.7582 499.195 27.4682C499.195 26.1882 499.225 25.5282 499.225 25.5282C499.225 25.5282 499.245 26.1882 499.255 27.4682C499.255 28.7582 499.265 30.6682 499.285 33.1682C499.295 38.1882 499.315 45.5782 499.335 55.0982C499.355 74.1482 499.385 101.698 499.415 135.748C499.435 169.808 499.445 210.358 499.475 255.378C499.475 277.898 499.475 301.528 499.495 326.028C499.495 338.278 499.495 350.748 499.495 363.398C499.495 369.728 499.495 376.098 499.495 382.518V397.028C499.445 397.768 500.025 398.318 500.745 398.318C501.465 398.358 502.075 397.798 502.045 397.078C502.075 293.168 502.105 199.088 502.125 130.968C502.155 96.9182 502.185 69.3582 502.205 50.3082C502.225 40.7882 502.245 33.3982 502.255 28.3782C502.255 27.7482 502.255 27.1582 502.255 26.6082C502.235 26.0582 502.305 25.5282 502.205 25.0782C502.085 24.6282 501.745 24.3082 501.385 24.1682C501.025 24.0282 500.645 24.0282 500.345 24.1082C499.715 24.2582 499.415 24.7282 499.335 25.0282C499.245 25.3382 499.265 25.5082 499.245 25.5082L499.225 25.4982Z" fill="#263238"/>
<path d="M649.735 388.138C649.735 388.138 649.585 387.828 649.325 387.218C649.055 386.598 648.665 385.688 648.165 384.508C647.145 382.108 645.655 378.598 643.735 374.068C639.905 364.988 634.385 351.858 627.555 335.648C613.945 303.178 595.145 258.328 574.375 208.808C553.705 159.218 534.985 114.338 521.445 81.8382C514.735 65.5782 509.305 52.4182 505.545 43.3082C503.705 38.7582 502.265 35.2182 501.295 32.7982C500.825 31.5882 500.455 30.6782 500.225 30.0482C500.005 29.4182 499.905 29.0982 499.905 29.0982C499.905 29.0982 500.045 29.4182 500.275 30.0282C500.535 30.6582 500.905 31.5682 501.395 32.7582C502.395 35.1582 503.855 38.6882 505.735 43.2282C509.535 52.3182 515.015 65.4582 521.795 81.6982C535.385 114.188 554.145 159.048 574.875 208.608C595.585 258.158 614.335 303.018 627.905 335.508C634.675 351.748 640.145 364.898 643.935 373.988C645.815 378.528 647.275 382.058 648.275 384.458C648.765 385.648 649.135 386.558 649.395 387.188C649.645 387.808 649.755 388.128 649.755 388.128L649.735 388.138Z" fill="#263238"/>
<path d="M411.485 411.958H393.995C391.975 411.958 390.335 410.318 390.335 408.298C390.335 406.278 391.975 404.638 393.995 404.638H411.485C413.505 404.638 415.145 406.278 415.145 408.298C415.145 410.318 413.505 411.958 411.485 411.958Z" fill="#455A64"/>
<g opacity="0.3">
<path d="M394.505 411.958L406.185 404.638H411.805C412.145 404.658 412.465 404.728 412.755 404.828L401.685 411.968H394.505V411.958Z" fill="white"/>
</g>
<g opacity="0.3">
<path d="M404.485 411.958L413.925 405.478C414.155 405.678 414.365 405.908 414.545 406.168L405.825 411.958H404.485Z" fill="white"/>
</g>
<path d="M655.525 389.978C655.525 389.978 656.105 389.738 656.125 389.728C656.875 389.368 657.395 388.388 657.365 387.568C657.315 386.468 656.625 385.448 655.525 385.158C654.715 384.938 653.745 385.158 652.925 385.218C651.055 385.378 649.175 385.548 647.305 385.708C640.405 386.308 633.495 386.878 626.585 387.428C604.005 389.228 581.405 390.768 558.795 391.978C531.205 393.458 503.565 394.478 475.935 394.518C460.815 394.538 445.695 394.108 430.575 393.848C416.465 393.608 402.365 393.408 388.255 393.268C373.845 393.128 359.405 392.808 344.985 393.038C344.795 393.038 344.605 393.038 344.415 393.038C341.195 393.038 341.195 398.048 344.415 398.038C356.105 398.008 367.805 398.098 379.495 398.188C408.345 398.428 437.195 399.228 466.035 399.478C493.525 399.718 521.025 398.848 548.485 397.508C572.195 396.348 595.885 394.808 619.555 392.988C627.345 392.388 635.135 391.758 642.925 391.088C646.715 390.768 650.535 390.558 654.305 390.108C654.825 390.048 655.175 390.248 654.195 389.988C653.585 389.188 652.975 388.378 652.355 387.578C652.765 386.858 653.185 386.138 653.595 385.418C653.795 385.338 653.985 385.248 654.185 385.168C651.095 386.058 652.415 390.888 655.515 389.988L655.525 389.978Z" fill="#00BEF8"/>
<path d="M355.785 415.698C359.645 421.188 364.405 427.068 369.995 432.248C370.245 432.478 370.505 432.698 370.765 432.928C454.615 435.138 537.735 435.148 620.095 432.878C621.875 431.238 623.535 429.388 624.935 427.298C628.065 422.638 632.515 416.488 637.015 410.438C590.775 417.998 394.135 418.038 355.775 415.698H355.785Z" fill="#455A64"/>
<path d="M373.825 435.398C381.665 441.178 391.225 444.278 401.055 444.278L588.225 444.258C597.945 444.558 607.595 441.948 615.615 436.448C616.195 436.048 616.765 435.638 617.325 435.208C537.925 437.878 454.135 437.988 373.825 435.408V435.398Z" fill="#00BEF8"/>
<path d="M370.765 432.928C371.755 433.798 372.765 434.628 373.825 435.398C454.135 437.978 537.925 437.868 617.325 435.198C618.275 434.478 619.195 433.698 620.095 432.878C537.735 435.148 454.625 435.138 370.765 432.928Z" fill="white"/>
<path d="M369.915 353.608H491.285C470.265 268.478 483.225 162.528 495.465 44.0282C426.605 150.718 379.325 254.618 369.915 353.608Z" fill="#00BEF8"/>
<path d="M445.225 260.758C445.225 260.758 445.115 261.018 444.845 261.478L443.675 263.498C442.665 265.248 441.125 267.738 439.155 270.768C437.195 273.808 434.755 277.358 431.935 281.228C429.095 285.078 425.875 289.238 422.335 293.478C418.775 297.708 415.245 301.608 411.945 305.068C408.625 308.518 405.555 311.538 402.905 314.008C400.265 316.478 398.075 318.428 396.535 319.728C395.795 320.358 395.195 320.858 394.755 321.228C394.345 321.568 394.125 321.738 394.115 321.728C394.105 321.718 394.305 321.518 394.685 321.148C395.115 320.758 395.685 320.228 396.395 319.578C397.895 318.228 400.045 316.238 402.645 313.738C405.255 311.248 408.295 308.198 411.585 304.738C414.855 301.258 418.375 297.358 421.925 293.138C425.455 288.908 428.685 284.768 431.535 280.938C434.365 277.088 436.835 273.568 438.835 270.558C440.845 267.558 442.425 265.098 443.495 263.378C444.015 262.558 444.435 261.908 444.745 261.418C445.035 260.968 445.195 260.738 445.215 260.748L445.225 260.758Z" fill="#263238"/>
<path d="M443.205 300.468C443.205 300.468 442.875 300.858 442.215 301.498C441.555 302.138 440.585 303.028 439.355 304.118C436.905 306.288 433.415 309.168 429.375 312.108C425.335 315.048 421.535 317.498 418.725 319.178C417.325 320.018 416.175 320.668 415.365 321.108C414.555 321.538 414.105 321.768 414.085 321.738C414.065 321.708 414.485 321.418 415.255 320.938C416.115 320.398 417.205 319.708 418.525 318.878C421.285 317.128 425.045 314.638 429.065 311.708C433.085 308.768 436.605 305.948 439.105 303.858C440.295 302.858 441.295 302.018 442.065 301.368C442.765 300.778 443.165 300.468 443.185 300.498L443.205 300.468Z" fill="#263238"/>
<g opacity="0.3">
<path d="M370.115 353.608C370.115 353.608 413.065 351.698 437.535 337.368C462.005 323.048 480.145 248.578 480.145 248.578C481.635 284.148 483.845 321.718 491.285 353.598H370.115V353.608Z" fill="black"/>
</g>
<path d="M613.085 393.278C613.085 393.278 598.585 394.978 575.025 396.358C551.465 397.758 518.875 398.748 482.875 399.048C446.865 399.288 414.265 398.938 390.675 398.488C378.875 398.268 369.335 398.038 362.745 397.848C359.465 397.748 356.905 397.668 355.155 397.618C354.295 397.588 353.645 397.558 353.185 397.548C352.745 397.528 352.515 397.508 352.515 397.508C352.515 397.508 352.745 397.498 353.185 397.498C353.645 397.498 354.305 397.508 355.165 397.518C356.915 397.548 359.475 397.588 362.755 397.648C369.365 397.758 378.905 397.918 390.685 398.118C414.275 398.478 446.865 398.778 482.875 398.528C518.865 398.228 551.445 397.298 575.005 395.988C577.955 395.848 580.755 395.698 583.405 395.508C586.055 395.328 588.555 395.168 590.895 395.008C593.235 394.848 595.405 394.708 597.405 394.568C599.405 394.398 601.225 394.238 602.875 394.098C606.145 393.828 608.695 393.608 610.445 393.468C611.295 393.398 611.955 393.348 612.415 393.318C612.855 393.288 613.085 393.288 613.085 393.288V393.278Z" fill="#263238"/>
<path d="M430.595 409.618C430.095 411.628 428.065 412.858 426.045 412.368C424.025 411.878 422.805 409.838 423.295 407.818C423.785 405.798 425.825 404.578 427.845 405.068C429.855 405.568 431.085 407.598 430.595 409.618Z" fill="#455A64"/>
<g opacity="0.3">
<path d="M428.325 405.228L423.185 408.608C423.145 408.778 423.165 410.168 424.095 411.168L430.215 406.878C430.215 406.878 429.535 405.638 428.325 405.218V405.228Z" fill="white"/>
</g>
<path d="M439.685 412.478C441.762 412.478 443.445 410.795 443.445 408.718C443.445 406.642 441.762 404.958 439.685 404.958C437.608 404.958 435.925 406.642 435.925 408.718C435.925 410.795 437.608 412.478 439.685 412.478Z" fill="#455A64"/>
<g opacity="0.3">
<path d="M442.185 405.918L436.225 410.188C436.225 410.188 436.595 410.998 436.845 411.168L442.965 406.878C442.965 406.878 442.645 406.248 442.185 405.918Z" fill="white"/>
</g>
<path d="M453.195 372.938C453.275 372.558 457.755 367.368 458.895 367.168C460.025 366.968 479.465 368.778 480.895 369.388C482.335 369.988 484.375 372.938 484.375 372.938H453.195Z" fill="#E0E0E0"/>
<path d="M493.205 372.328C493.205 372.468 482.155 372.588 468.535 372.588C454.915 372.588 443.865 372.468 443.865 372.328C443.865 372.188 454.905 372.068 468.535 372.068C482.165 372.068 493.205 372.188 493.205 372.328Z" fill="#263238"/>
<g opacity="0.3">
<path d="M367.195 397.848C367.195 397.848 450.035 401.908 503.545 401.208C570.095 400.348 626.505 392.288 626.505 392.288C626.505 392.288 541.785 399.398 487.085 398.568C432.385 397.738 367.185 397.848 367.185 397.848H367.195Z" fill="black"/>
</g>
<path d="M639.295 444.278C639.295 444.418 573.265 444.538 491.825 444.538C410.385 444.538 344.345 444.418 344.345 444.278C344.345 444.138 410.365 444.018 491.825 444.018C573.285 444.018 639.295 444.138 639.295 444.278Z" fill="#263238"/>
<path d="M87.6761 245.665C60.6143 272.726 42.1849 307.205 34.7184 344.74C27.2519 382.276 31.0836 421.182 45.7291 456.54C60.3745 491.898 85.1759 522.118 116.997 543.381C148.818 564.643 186.229 575.991 224.5 575.991C262.771 575.991 300.182 564.643 332.003 543.381C363.824 522.118 388.625 491.898 403.271 456.54C417.916 421.182 421.748 382.276 414.282 344.74C406.815 307.205 388.386 272.726 361.324 245.665C325.033 209.383 275.817 189 224.5 189C173.183 189 123.967 209.383 87.6761 245.665ZM299.312 457.382C284.5 472.196 265.629 482.285 245.084 486.373C224.539 490.461 203.243 488.364 183.89 480.349C164.536 472.333 147.994 458.759 136.356 441.341C124.718 423.924 118.506 403.447 118.506 382.499C118.506 361.552 124.718 341.074 136.356 323.657C147.994 306.24 164.536 292.665 183.89 284.65C203.243 276.634 224.539 274.538 245.084 278.626C265.629 282.714 284.5 292.803 299.312 307.616C319.17 327.478 330.325 354.413 330.325 382.499C330.325 410.585 319.17 437.521 299.312 457.382Z" fill="#00BEF8"/>
<g opacity="0.5">
<path d="M299.312 457.382C283.703 473.05 263.56 483.408 241.736 486.988L299.516 560.879C346.086 541.223 383.142 504.161 402.788 457.587L328.938 399.807C325.344 421.63 314.98 441.772 299.312 457.382Z" fill="white"/>
<path d="M46.0483 307.412L119.94 365.192C123.551 343.381 133.898 323.247 149.528 307.613C165.159 291.978 185.291 281.627 207.101 278.01L149.341 204.119C102.76 223.767 65.6961 260.831 46.0483 307.412Z" fill="white"/>
<path d="M46.0483 457.587C65.6961 504.167 102.76 541.231 149.341 560.879L207.101 487.008C185.288 483.386 165.154 473.03 149.521 457.393C133.887 441.756 123.537 421.62 119.919 399.807L46.0483 457.587Z" fill="white"/>
<path d="M299.516 204.119L241.736 278.01C263.55 281.628 283.685 291.979 299.323 307.612C314.96 323.246 325.315 343.379 328.938 365.192L402.809 307.412C383.162 260.837 346.107 223.775 299.536 204.119H299.516Z" fill="white"/>
</g>
<path opacity="0.1" d="M125.562 283.633C106.011 303.187 92.6977 328.098 87.3045 355.218C81.9114 382.338 84.6811 410.448 95.2634 435.994C105.846 461.539 123.765 483.373 146.757 498.735C169.748 514.097 196.778 522.296 224.428 522.296C252.079 522.296 279.109 514.097 302.1 498.735C325.091 483.373 343.011 461.539 353.593 435.994C364.176 410.448 366.945 382.338 361.552 355.218C356.159 328.098 342.845 303.187 323.295 283.633C310.312 270.649 294.899 260.349 277.935 253.322C260.971 246.295 242.79 242.678 224.428 242.678C206.067 242.678 187.885 246.295 170.922 253.322C153.958 260.349 138.545 270.649 125.562 283.633ZM299.352 457.423C284.541 472.237 265.67 482.326 245.125 486.414C224.58 490.502 203.284 488.405 183.931 480.39C164.577 472.374 148.035 458.8 136.397 441.382C124.759 423.965 118.547 403.488 118.547 382.54C118.547 361.593 124.759 341.115 136.397 323.698C148.035 306.281 164.577 292.706 183.931 284.691C203.284 276.675 224.58 274.579 245.125 278.667C265.67 282.755 284.541 292.844 299.352 307.657C319.192 327.522 330.333 354.452 330.325 382.528C330.318 410.604 319.162 437.528 299.311 457.382L299.352 457.423Z" fill="white"/>
</g>
<defs>
<clipPath id="clip0_107_788">
<rect width="500" height="500" fill="white"/>
</clipPath>
</defs>
</svg>
