<svg viewBox="0 0 300 10">
    <path d="M 0 150 C 150 100 20 100 300 100 L 300 0 L 0 0" fill="#c6f8b4" opacity="0.5"></path>
    <path d="M 0 20 C 150 150 300 50 400 100 L 300 0 L 0 0" fill="#178f31"></path>
    <path d="M 0 100 C 150 0 330 100 400 50 L 300 0 L 0 0" fill="#72fe14" opacity="0.8"></path>

    <circle cx="55" cy="70" r="2" fill="#fff" />
    <circle cx="200" cy="75" r="2" fill="#fff" />


    <g transform="translate(250, 40) scale(0.2)">

        <!-- Sun Body -->
        <circle cx="100" cy="100" r="40" fill="#FFD700" />

        <!-- Sun Rays -->
        <g stroke="#FFD700" stroke-width="2">
            <line x1="100" y1="10" x2="100" y2="40" />
            <line x1="100" y1="160" x2="100" y2="190" />
            <line x1="10" y1="100" x2="40" y2="100" />
            <line x1="160" y1="100" x2="190" y2="100" />
            <line x1="30" y1="30" x2="55" y2="55" />
            <line x1="30" y1="170" x2="55" y2="145" />
            <line x1="170" y1="30" x2="145" y2="55" />
            <line x1="170" y1="170" x2="145" y2="145" />
        </g>
    </g>




    <!-- Boat -->
    <g transform="translate(130,60) scale(0.2)">
        <!-- Hull of the boat -->
        <!-- <path d="M 50,150 Q 100,100 150,150" fill="white" /> -->
        <!-- Sail -->
        <polygon points="100,50 100,150 150,150" fill="white" />
    </g>
    <g transform="translate(9,60) scale(0.12)">
        <!-- Hull of the boat -->
        <!-- <path d="M 50,150 Q 100,100 150,150" fill="white" /> -->
        <!-- Sail -->
        <polygon points="100,50 100,150 150,150" fill="white" />
    </g>

    <g transform="translate(230,40) scale(0.25)">
        <!-- Hull of the boat -->
        <!-- <path d="M 50,150 Q 100,100 150,150" fill="white" /> -->
        <!-- Sail -->
        <polygon points="100,50 100,150 150,150" fill="white" />
    </g>
</svg>