<svg id="SvgjsSvg1011" width="256" height="256" xmlns="http://www.w3.org/2000/svg" version="1.1"
    xmlns:xlink="http://www.w3.org/1999/xlink" xmlns:svgjs="http://svgjs.com/svgjs">
    <defs id="SvgjsDefs1012"></defs>
    <g id="SvgjsG1013"><svg xmlns="http://www.w3.org/2000/svg" enable-background="new 0 0 512 512" viewBox="0 0 512 512"
            width="256" height="256">
            <path fill="#f59a38"
                d="M41.9 474.3l1.5 9.1c-2.9 1.1-5.7 1.9-8.6 2.4-1.9.3-3.7.5-5.6.5-.9 0-1.9-.1-2.9-.2-2.8-.2-5.3-.9-7.4-2.1-2.1-1.1-3.8-2.9-5.2-5.4-1.3-2.5-2-5.6-2-9.2v-28.1c0-4.4.6-7.8 1.9-10.1 1.3-2.3 3.2-4.2 5.7-5.8 2.6-1.5 5.7-2.2 9.4-2.2.3 0 .7 0 1.1 0 4.1.2 7.8 1.1 11.3 2.9l-2.7 8.7c-2.7-1-5.6-1.5-8.8-1.5-2.4 0-4.4.7-5.9 2-1.5 1.3-2.3 3-2.3 5.1v28.7c0 1 .1 2 .3 2.8.2.8.6 1.5 1.1 2.1.5.5 1 1 1.6 1.4.5.4 1.3.7 2.2.8.9.1 1.7.2 2.4.3.6.1 1.5 0 2.7-.1 1.1-.2 2-.3 2.7-.4.6-.1 1.6-.3 2.8-.6 1.2-.3 2-.5 2.5-.6C40.1 474.8 40.9 474.6 41.9 474.3zM85.9 441.2v28.1c0 5.9-1.8 10.2-5.4 13-3.6 2.8-7.9 4.2-12.9 4.2-5 0-9.3-1.4-13-4.2-3.6-2.8-5.5-7.1-5.5-13v-28.1c0-6 1.6-10.5 4.9-13.6 3.3-3.1 7.8-4.6 13.6-4.6 5.8 0 10.2 1.6 13.4 4.9C84.3 431 85.9 435.5 85.9 441.2zM76.3 467.4v-23.1c0-3.7-.6-6.5-1.7-8.3-1.1-1.8-3.5-2.8-7-2.8-3.6 0-5.9.9-7 2.7-1.1 1.8-1.7 4.6-1.7 8.3v23.3c0 2.8.7 5 2.1 6.6 1.4 1.6 3.6 2.4 6.6 2.4 2.7 0 4.9-.8 6.4-2.5C75.5 472.3 76.3 470.1 76.3 467.4zM145.3 485.4h-9.6v-32.3l-10.2 32.3h-7.3l-10.1-32.3v32.3h-9.6v-61.2h9.6l13.7 40.5 13.9-40.5h9.6V485.4zM172.7 485.4h-9.6v-51.7l-5.4-.2v-9.3h15V485.4zM229.5 485.4h-9.7l-23.7-41.3v41.3h-9.6v-61.2h9.6l23.7 41.1v-41.1h9.7V485.4zM275.4 485.4h-9.1l-.5-.7c-3 1-5.7 1.6-7.9 1.6-5.1 0-9.5-1.5-13.1-4.4-3.6-2.9-5.4-7.3-5.4-13v-27.4c0-7.5 2.5-12.7 7.6-15.8 2.6-1.5 5.7-2.2 9.4-2.2.3 0 .7 0 1.1 0 4.1.2 7.8 1.1 11.3 2.9L266 435c-2.8-1-5.4-1.6-8-1.6-2.8 0-5 .5-6.6 1.5-1.6 1-2.4 2.9-2.4 5.7v28.4c0 2.8.7 4.8 2.2 5.9 1.5 1.1 3.7 1.7 6.5 1.7 5.3 0 8-2.5 8-7.4v-.8h-5l-3.1-9.2h17.7V485.4zM308.3 469.8l10.3-1.5c.3 2.6 1.3 4.6 3.1 6.2 1.8 1.6 4.2 2.4 7.1 2.4 3.6 0 6.2-.8 7.9-2.4 1.7-1.6 2.5-3.3 2.5-5.2 0-2.3-.5-4.3-1.6-6-1.1-1.7-2.5-3.1-4.2-4.2-1.7-1.1-3.7-2.1-5.7-2.9-2.1-.9-4.2-1.8-6.2-2.8-2.1-1-4-2-5.8-3.2-1.7-1.2-3.2-2.8-4.2-4.8-1.1-2-1.6-4.3-1.6-7 0-4.1 1.7-7.6 5.1-10.6 3.4-3 8.3-4.5 14.6-4.5 4.8 0 9.1.9 12.8 2.6l-.5 1.6c-.3 1-.8 2.4-1.3 3.9-.5 1.6-.9 2.8-1.2 3.6-4-1.3-7.2-1.9-9.6-1.9-3.3 0-5.8.6-7.3 1.7-1.4 1-2.1 2.4-2.1 3.9 0 .2 0 .3 0 .5.2 1.5 1.3 2.9 3.4 4.2 2.1 1.3 4.6 2.5 7.5 3.8 2.9 1.2 5.7 2.6 8.6 4.2 2.8 1.6 5.2 3.8 7.2 6.7 2 2.9 3 6.3 3 10.2 0 5.2-1.7 9.5-5.2 12.8-3.4 3.4-8.7 5.1-15.7 5.1-6.4 0-11.3-1.7-15-5C310.3 478 308.4 474.2 308.3 469.8zM396.3 441.2v28.1c0 5.9-1.8 10.2-5.4 13-3.6 2.8-7.9 4.2-12.9 4.2-5 0-9.3-1.4-13-4.2-3.6-2.8-5.5-7.1-5.5-13v-28.1c0-6 1.6-10.5 4.9-13.6 3.3-3.1 7.8-4.6 13.6-4.6s10.2 1.6 13.4 4.9C394.7 431 396.3 435.5 396.3 441.2zM386.7 467.4v-23.1c0-3.7-.6-6.5-1.7-8.3-1.1-1.8-3.5-2.8-7-2.8-3.6 0-5.9.9-7 2.7-1.1 1.8-1.7 4.6-1.7 8.3v23.3c0 2.8.7 5 2.1 6.6 1.4 1.6 3.6 2.4 6.6 2.4 2.7 0 4.9-.8 6.4-2.5C385.9 472.3 386.7 470.1 386.7 467.4zM443.4 441.2v28.1c0 5.9-1.8 10.2-5.4 13-3.6 2.8-7.9 4.2-12.9 4.2-5 0-9.3-1.4-13-4.2-3.6-2.8-5.5-7.1-5.5-13v-28.1c0-6 1.6-10.5 4.9-13.6 3.3-3.1 7.8-4.6 13.6-4.6 5.8 0 10.2 1.6 13.4 4.9C441.8 431 443.4 435.5 443.4 441.2zM433.8 467.4v-23.1c0-3.7-.6-6.5-1.7-8.3-1.1-1.8-3.5-2.8-7-2.8-3.6 0-5.9.9-7 2.7-1.1 1.8-1.7 4.6-1.7 8.3v23.3c0 2.8.7 5 2.1 6.6 1.4 1.6 3.6 2.4 6.6 2.4 2.7 0 4.9-.8 6.4-2.5C433 472.3 433.8 470.1 433.8 467.4zM499 485.4h-9.7l-23.7-41.3v41.3H456v-61.2h9.6l23.7 41.1v-41.1h9.7V485.4z"
                class="color1774b0 svgShape"></path>
            <rect width="500" height="15.3" x="6" y="372.7" fill="#2e3032" class="color2e3032 svgShape"></rect>
            <path fill="#e6b698" d="M460.3,232.5c0.3-2,0.5-4,0.6-6c0.9-31.2-29.6-57.1-68.2-57.8c-0.3,0-0.6,0-0.9,0
			c-11.9-30.4-41-54.8-78.4-65.2c0.6,1.6,1.1,3.3,1.6,5.2h0v92.6c7.1,4.9,14.3,10,19.4,16.5c3.9,5,6.6,11,6.6,17.1
			c0,3.2-0.5,5.3-1.5,6.6h-4.7H315v12.8c1.5,0.9,2.6,2.6,2.6,4.5c0,0.9-0.2,1.7-0.6,2.4h-3v2.2c0,1.8-1.5,3.2-3.4,3.2h-8.7
			c-1.9,0-3.4-1.5-3.4-3.2v-2.2h-3c-0.4-0.7-0.6-1.5-0.6-2.4c0-1.9,1-3.6,2.6-4.5v-12.8h-15.9v0c0,0.5-0.1,0.9-0.1,1.4
			c1.2,1,1.8,3.4,2.2,4.7c1.5,4.2,2.2,8.7,2.1,13.1c0,0.7-0.1,1.5-0.2,2.2l0,0l-0.1,0.2c-0.1,0.5-0.3,0.9-0.5,1.4l-0.2,0.5
			c-1.2,1.8-3.3,2.8-5.6,2.8h-2v3.8c0,3.4-2.9,6.2-6.4,6.2H263c-0.3,0.4-0.6,0.7-1,0.7c-0.4,0-0.7-0.3-1-0.7h-6.8
			c-3.5,0-6.4-2.8-6.4-6.2v-3.8c-2.6,0-5.5-0.2-7.2-1.9c-1.4-1.4-1.6-3.3-1.7-5.1c-0.1-4.4,0.6-8.9,2.1-13.1c0.5-1.4,1-3.7,2.2-4.7
			c-0.1-0.4-0.1-0.9-0.1-1.4v0h-14.9v12.8c1.5,0.9,2.6,2.6,2.6,4.5c0,0.9-0.2,1.7-0.6,2.4h-3v2.2c0,1.8-1.5,3.2-3.4,3.2H215
			c-1.9,0-3.4-1.5-3.4-3.2v-2.2h-3c-0.4-0.7-0.6-1.5-0.6-2.4c0-1.9,1-3.6,2.6-4.5v-12.8h-19.8h-4.7c-1-1.3-1.5-3.3-1.5-6.6
			c0-6.1,2.7-12.2,6.6-17.1c5.2-6.5,12.3-11.5,19.4-16.4v-92.6h0c0.2-0.8,0.4-1.5,0.6-2.2c-27.1,9.6-49.3,26.9-62.3,48.4
			c-2.2-0.2-4.4-0.4-6.6-0.4c-2.5,0-5.1,0-7.5,0.2c-1.4-0.1-2.8-0.2-4.2-0.2c-38.5-0.7-70.5,24-71.4,55.2
			c-0.2,7.7,1.5,15.1,4.7,21.8c-18.7,3.5-34.7,13.1-44.3,26.1c17.4,4.5,32.4,12.1,41.7,21.4c17.4-9.1,45-11.6,66.7-6.1
			c20.2,5.1,34.2,16.8,35.4,29c2.6,1.3,4.9,2.7,7,4.3c20,4.7,35.4,15.3,38.9,27.2c2.3-0.7,4.6-1.3,7.1-1.8l2.3-43.9l-0.6-7.7
			l-0.6,4.2l-2.4-16.6h8.7l-2.4,16.6l-0.6-4.2l-0.6,7l2.1,43.5c11.9-1.8,24.7-1.5,36.5,0.5l2.9-31.2l-1.1-7.7l-1.1,4.2l-4.4-16.6
			h15.7l-4.4,16.6l-1.1-4.2l-1,7L267,333c7.7,2,14.7,4.9,20.2,8.6c2-6.8,8-13.1,16.5-18.1l1.8-35.6l-0.6-7.7l-0.6,4.2l-2.4-16.6h8.7
			l-2.4,16.6l-0.6-4.2l-0.6,7l1.6,33.7c8.1-3.9,18-6.8,28.4-8.1c3.1-3.6,7-6.9,11.7-9.9c4.8-12.3,17.7-23.6,35.9-31
			c22.7-9.3,53.3-12.5,80.5-8.3c6.5-6.8,16-12.5,27.2-17C483.5,239.7,472.5,234.8,460.3,232.5z"
                class="color1774b0 svgShape"></path>
            <polygon fill="#096193" points="261.1 305.6 261.6 299.9 261.1 296.3" class="color096193 svgShape"></polygon>
            <path fill="#da9baf" d="M460.3,232.5c0.3-2,0.5-4,0.6-6c0.9-31.2-29.6-57.1-68.2-57.8c-0.3,0-0.6,0-0.9,0
			c-11.9-30.4-41-54.8-78.4-65.2c0.6,1.6,1.1,3.3,1.6,5.2h0v92.6c7.1,4.9,14.3,10,19.4,16.5c3.9,5,6.6,11,6.6,17.1
			c0,3.2-0.5,5.3-1.5,6.6h-4.7H315v12.8c1.5,0.9,2.6,2.6,2.6,4.5c0,0.9-0.2,1.7-0.6,2.4h-3v2.2c0,1.8-1.5,3.2-3.4,3.2h-8.7
			c-1.9,0-3.4-1.5-3.4-3.2v-2.2h-3c-0.4-0.7-0.6-1.5-0.6-2.4c0-1.9,1-3.6,2.6-4.5v-12.8h-15.9v0c0,0.5-0.1,0.9-0.1,1.4
			c1.2,1,1.8,3.4,2.2,4.7c1.5,4.2,2.2,8.7,2.1,13.1c0,0.7-0.1,1.5-0.2,2.2l0,0l-0.1,0.2c-0.1,0.5-0.3,0.9-0.5,1.4l-0.2,0.5
			c-1.2,1.8-3.3,2.8-5.6,2.8h-2v3.8c0,3.4-2.9,6.2-6.4,6.2H263c-0.3,0.4-0.6,0.7-1,0.7c-0.4,0-0.7-0.3-1-0.7h0v2.2h9.6l-4.4,16.6
			l-1.1-4.2l-1,7L267,333c7.7,2,14.7,4.9,20.2,8.6c2-6.8,8-13.1,16.5-18.1l1.8-35.6l-0.6-7.7l-0.6,4.2l-2.4-16.6h8.7l-2.4,16.6
			l-0.6-4.2l-0.6,7l1.6,33.7c8.1-3.9,18-6.8,28.4-8.1c3.1-3.6,7-6.9,11.7-9.9c4.8-12.3,17.7-23.6,35.9-31
			c22.7-9.3,53.3-12.5,80.5-8.3c6.5-6.8,16-12.5,27.2-17C483.5,239.7,472.5,234.8,460.3,232.5z"
                class="color096193 svgShape"></path>
            <polygon fill="#ffffff"
                points="167 191.6 169 198.7 176.5 198.9 170.3 203.1 172.4 210.2 166.5 205.7 160.4 209.9 162.9 202.9 157 198.3 164.5 198.6"
                class="colorfff svgShape"></polygon>
            <polygon fill="#ffffff"
                points="374.4 234.2 374.4 239 379 240.5 374.4 242 374.4 246.9 371.6 243 367 244.5 369.8 240.5 366.9 236.6 371.5 238.1"
                class="colorfff svgShape"></polygon>
            <polygon fill="#ffffff"
                points="155.9 258.5 158.5 262.6 163.2 261.4 160.1 265.1 162.6 269.2 158.1 267.4 155 271.1 155.4 266.3 150.9 264.5 155.6 263.3"
                class="colorfff svgShape"></polygon>
            <polygon fill="#ffffff"
                points="323.9 133.9 326.5 138 331.2 136.8 328 140.5 330.6 144.6 326.1 142.8 323 146.5 323.3 141.7 318.8 139.9 323.5 138.7"
                class="colorfff svgShape"></polygon>
            <path fill="#c97624" d="M237.3,67.9h50.4c-5.3-25.4-14.6-42.2-25.2-42.2C252,25.6,242.7,42.5,237.3,67.9z"
                class="colorc97624 svgShape"></path>
            <rect width="50.4" height="172" x="237.3" y="67.9" fill="#f59a38" class="colorf59a38 svgShape"></rect>
            <rect width="49.7" height="1.4" x="238" y="94.9" fill="#c97624" class="colorc97624 svgShape"></rect>
            <rect width="49.7" height="1.4" x="238" y="129.6" fill="#c97624" class="colorc97624 svgShape"></rect>
            <polygon fill="#2d4155" points="267.9 94.6 262 94.6 262.1 171.5 287.7 197.1 287.7 114.1" opacity=".25"
                class="color2d4155 svgShape"></polygon>
            <rect width="79.6" height="6.8" x="223.7" y="127.1" fill="#208953" class="color208953 svgShape"></rect>
            <rect width="79.6" height="6.8" x="223.7" y="172.6" fill="#208953" class="color208953 svgShape"></rect>
            <path fill="#585e67" d="M211.7,258.5v4.8c0,1.8,1.5,3.2,3.4,3.2h8.7c1.9,0,3.4-1.5,3.4-3.2v-4.8H211.7z"
                class="color585e67 svgShape"></path>
            <path fill="#208953" d="M210.6,108.7h17.6c-1.9-7.9-5.1-13.1-8.8-13.1C215.7,95.6,212.4,100.8,210.6,108.7z"
                class="color208953 svgShape"></path>
            <rect width="17.6" height="148.6" x="210.6" y="108.7" fill="#26ab68" class="color26ab68 svgShape"></rect>
            <path fill="#26ab68" d="M230.2,261.1c0.4-0.7,0.6-1.5,0.6-2.4c0-2.9-2.4-5.3-5.3-5.3h-12.2c-2.9,0-5.3,2.4-5.3,5.3
							c0,0.9,0.2,1.7,0.6,2.4H230.2z" class="color26ab68 svgShape"></path>
            <rect width="17.6" height="1.4" x="210.6" y="123.5" fill="#208953" class="color208953 svgShape"></rect>
            <rect width="17.6" height="1.4" x="210.6" y="137.7" fill="#208953" class="color208953 svgShape"></rect>
            <rect width="17.6" height="1.4" x="210.6" y="153.2" fill="#208953" class="color208953 svgShape"></rect>
            <rect width="17.6" height="1.4" x="210.6" y="167.2" fill="#208953" class="color208953 svgShape"></rect>
            <rect width="17.6" height="1.4" x="210.6" y="182.3" fill="#208953" class="color208953 svgShape"></rect>
            <path fill="#585e67" d="M298.5,258.5v4.8c0,1.8,1.5,3.2,3.4,3.2h8.7c1.9,0,3.4-1.5,3.4-3.2v-4.8H298.5z"
                class="color585e67 svgShape"></path>
            <path fill="#208953" d="M297.5,108.7H315c-1.9-7.9-5.1-13.1-8.8-13.1C302.6,95.6,299.3,100.8,297.5,108.7z"
                class="color208953 svgShape"></path>
            <rect width="17.6" height="148.6" x="297.5" y="108.7" fill="#45b173" class="color45b173 svgShape"></rect>
            <path fill="#45b173" d="M317,261.1c0.4-0.7,0.6-1.5,0.6-2.4c0-2.9-2.4-5.3-5.3-5.3h-12.2c-2.9,0-5.3,2.4-5.3,5.3
							c0,0.9,0.2,1.7,0.6,2.4H317z" class="color45b173 svgShape"></path>
            <rect width="17.6" height="1.4" x="297.5" y="123.5" fill="#208953" class="color208953 svgShape"></rect>
            <rect width="17.6" height="1.4" x="297.5" y="137.7" fill="#208953" class="color208953 svgShape"></rect>
            <rect width="17.6" height="1.4" x="297.5" y="153.2" fill="#208953" class="color208953 svgShape"></rect>
            <rect width="17.6" height="1.4" x="297.5" y="167.2" fill="#208953" class="color208953 svgShape"></rect>
            <rect width="17.6" height="1.4" x="297.5" y="182.3" fill="#208953" class="color208953 svgShape"></rect>
            <polygon fill="#2d4155" points="237.3 115.4 237.3 198.1 249.5 210.3 249.5 127.3" opacity=".25"
                class="color2d4155 svgShape"></polygon>
            <polygon fill="#2d4155" points="297.5 130.3 297.5 213.7 315 230.4 315 146.8" opacity=".25"
                class="color2d4155 svgShape"></polygon>
            <g fill="#000000" class="color000 svgShape">
                <path fill="#585e67" d="M247.8,262.3v9.1c0,3.4,2.9,6.2,6.4,6.2h16.6c3.5,0,6.4-2.8,6.4-6.2v-9.1H247.8z"
                    class="color585e67 svgShape"></path>
                <path fill="#434b54" d="M277.6,127.1c3.1,12.6,6.3,25.3,9.4,37.9c1.2,4.9,2.5,9.9,4.9,14.5c4.4,8.1,12.3,14.2,20.3,19.9
								c8,5.6,16.4,11.1,22.2,18.4c3.9,5,6.6,11,6.6,17.1c0,3.2-0.5,5.3-1.5,6.6h-62V127.1z"
                    class="color434b54 svgShape"></path>
                <path fill="#bfc4c9" d="M280.5,144.8c2.7,10.7,5.5,21.4,8.2,32c1.1,4.2,2.2,8.4,4.3,12.2c3.9,6.8,10.8,12,17.8,16.8
								c7,4.7,14.4,9.3,19.5,15.6c3.5,4.2,5.8,9.3,5.8,14.5c0,2.7-0.4,4.5-1.3,5.5h-54.4V144.8z"
                    class="colorbfc4c9 svgShape"></path>
                <path fill="#434b54" d="M248.1,127.1c-3.1,12.6-6.3,25.3-9.4,37.9c-1.2,4.9-2.5,9.9-4.9,14.5c-4.4,8.1-12.3,14.2-20.3,19.9
								c-8,5.6-16.4,11.1-22.2,18.4c-3.9,5-6.6,11-6.6,17.1c0,3.2,0.5,5.3,1.5,6.6h62V127.1z"
                    class="color434b54 svgShape"></path>
                <path fill="#bfc4c9" d="M245.2,144.8c-2.7,10.7-5.5,21.4-8.2,32c-1.1,4.2-2.2,8.4-4.3,12.2c-3.9,6.8-10.8,12-17.8,16.8
								c-7,4.7-14.4,9.3-19.5,15.6c-3.5,4.2-5.8,9.3-5.8,14.5c0,2.7,0.4,4.5,1.3,5.5h54.4V144.8z"
                    class="colorbfc4c9 svgShape"></path>
                <path fill="#ffffff" d="M262.5,90.7c-10.8,0.6-19.5,36-19.5,79.6c0,2.5,0,5.1,0.1,7.5c-0.1,0.4-0.1,0.7-0.1,1.1v62.4
							c0,0.5,0.1,0.9,0.1,1.4c-1.2,1-1.8,3.4-2.2,4.7c-1.5,4.2-2.2,8.7-2.1,13.1c0,1.8,0.3,3.8,1.7,5.1c1.8,1.8,4.8,1.9,7.5,1.9
							c4.8,0,9.7,0,14.5,0V90.7z" class="colorfff svgShape"></path>
                <path fill="#ecf0f1" d="M262,90.7c10.8,0.6,19.5,36,19.5,79.6c0,2.5,0,5.1-0.1,7.5c0.1,0.4,0.1,0.7,0.1,1.1v62.4
							c0,0.5-0.1,0.9-0.1,1.4c1.2,1,1.8,3.4,2.2,4.7c1.5,4.2,2.2,8.7,2.1,13.1c0,1.8-0.3,3.8-1.7,5.1c-1.8,1.8-4.8,1.9-7.5,1.9
							c-4.8,0-9.7,0-14.5,0V90.7z" class="colorecf0f1 svgShape"></path>
                <g fill="#000000" class="color000 svgShape">
                    <path fill="#393f47"
                        d="M263.3 119.8h11.3c-1.2-2.8-5.7-4.8-11-4.8-.1 0-.2 0-.3 0V119.8zM260.8 119.8h-11.3c1.2-2.8 5.7-4.8 11-4.8.1 0 .2 0 .3 0V119.8z"
                        class="color393f47 svgShape"></path>
                    <path fill="#2d4155"
                        d="M284.8,264.9l0.7-2l-23.1-43.5L262,219v48.6h17.2C281.5,267.7,283.6,266.6,284.8,264.9z"
                        opacity=".25" class="color2d4155 svgShape"></path>
                    <rect width="34.3" height="1.4" x="245" y="141.6" fill="#e6e9ed" class="colore6e9ed svgShape">
                    </rect>
                    <rect width="36.7" height="1.4" x="243.8" y="171.9" fill="#e6e9ed" class="colore6e9ed svgShape">
                    </rect>
                    <rect width="36.7" height="1.4" x="243.8" y="198.6" fill="#e6e9ed" class="colore6e9ed svgShape">
                    </rect>
                    <path fill="#bfc4c9" d="M262,219c-0.8,0.1-1.4,1.2-1.4,2.6v54.1c0,1.4,0.6,2.5,1.4,2.6V219z"
                        class="colorbfc4c9 svgShape"></path>
                    <path fill="#959ba6" d="M262,219c0.8,0.1,1.4,1.2,1.4,2.6v54.1c0,1.4-0.6,2.5-1.4,2.6V219z"
                        class="color959ba6 svgShape"></path>
                </g>
            </g>
        </svg></g>
</svg>